<svg id="visual" viewBox="0 0 1920 300" width="1920" height="300" xmlns="http://www.w3.org/2000/svg" xmlns:xlink="http://www.w3.org/1999/xlink" version="1.1"><rect x="0" y="0" width="1920" height="300" fill="#001220"></rect><path d="M0 23L21.3 26.8C42.7 30.7 85.3 38.3 128 41.2C170.7 44 213.3 42 256 38.3C298.7 34.7 341.3 29.3 384 27.8C426.7 26.3 469.3 28.7 512 31.5C554.7 34.3 597.3 37.7 640 35.3C682.7 33 725.3 25 768 27.2C810.7 29.3 853.3 41.7 896 41.7C938.7 41.7 981.3 29.3 1024 24.8C1066.7 20.3 1109.3 23.7 1152 29.5C1194.7 35.3 1237.3 43.7 1280 45.8C1322.7 48 1365.3 44 1408 43.3C1450.7 42.7 1493.3 45.3 1536 46.3C1578.7 47.3 1621.3 46.7 1664 47.8C1706.7 49 1749.3 52 1792 50.3C1834.7 48.7 1877.3 42.3 1898.7 39.2L1920 36L1920 301L1898.7 301C1877.3 301 1834.7 301 1792 301C1749.3 301 1706.7 301 1664 301C1621.3 301 1578.7 301 1536 301C1493.3 301 1450.7 301 1408 301C1365.3 301 1322.7 301 1280 301C1237.3 301 1194.7 301 1152 301C1109.3 301 1066.7 301 1024 301C981.3 301 938.7 301 896 301C853.3 301 810.7 301 768 301C725.3 301 682.7 301 640 301C597.3 301 554.7 301 512 301C469.3 301 426.7 301 384 301C341.3 301 298.7 301 256 301C213.3 301 170.7 301 128 301C85.3 301 42.7 301 21.3 301L0 301Z" fill="#001220"></path><path d="M0 48L21.3 52.2C42.7 56.3 85.3 64.7 128 70.8C170.7 77 213.3 81 256 76.3C298.7 71.7 341.3 58.3 384 51.5C426.7 44.7 469.3 44.3 512 49.8C554.7 55.3 597.3 66.7 640 69.7C682.7 72.7 725.3 67.3 768 66.8C810.7 66.3 853.3 70.7 896 68.5C938.7 66.3 981.3 57.7 1024 53.8C1066.7 50 1109.3 51 1152 56.8C1194.7 62.7 1237.3 73.3 1280 75.7C1322.7 78 1365.3 72 1408 71.7C1450.7 71.3 1493.3 76.7 1536 76.7C1578.7 76.7 1621.3 71.3 1664 69.7C1706.7 68 1749.3 70 1792 68.8C1834.7 67.7 1877.3 63.3 1898.7 61.2L1920 59L1920 301L1898.7 301C1877.3 301 1834.7 301 1792 301C1749.3 301 1706.7 301 1664 301C1621.3 301 1578.7 301 1536 301C1493.3 301 1450.7 301 1408 301C1365.3 301 1322.7 301 1280 301C1237.3 301 1194.7 301 1152 301C1109.3 301 1066.7 301 1024 301C981.3 301 938.7 301 896 301C853.3 301 810.7 301 768 301C725.3 301 682.7 301 640 301C597.3 301 554.7 301 512 301C469.3 301 426.7 301 384 301C341.3 301 298.7 301 256 301C213.3 301 170.7 301 128 301C85.3 301 42.7 301 21.3 301L0 301Z" fill="#15213f"></path><path d="M0 96L21.3 100.2C42.7 104.3 85.3 112.7 128 111C170.7 109.3 213.3 97.7 256 93.7C298.7 89.7 341.3 93.3 384 96C426.7 98.7 469.3 100.3 512 102.8C554.7 105.3 597.3 108.7 640 105.3C682.7 102 725.3 92 768 90.8C810.7 89.7 853.3 97.3 896 99.2C938.7 101 981.3 97 1024 97C1066.7 97 1109.3 101 1152 105.8C1194.7 110.7 1237.3 116.3 1280 112.2C1322.7 108 1365.3 94 1408 93.8C1450.7 93.7 1493.3 107.3 1536 110C1578.7 112.7 1621.3 104.3 1664 104.2C1706.7 104 1749.3 112 1792 110.2C1834.7 108.3 1877.3 96.7 1898.7 90.8L1920 85L1920 301L1898.7 301C1877.3 301 1834.7 301 1792 301C1749.3 301 1706.7 301 1664 301C1621.3 301 1578.7 301 1536 301C1493.3 301 1450.7 301 1408 301C1365.3 301 1322.7 301 1280 301C1237.3 301 1194.7 301 1152 301C1109.3 301 1066.7 301 1024 301C981.3 301 938.7 301 896 301C853.3 301 810.7 301 768 301C725.3 301 682.7 301 640 301C597.3 301 554.7 301 512 301C469.3 301 426.7 301 384 301C341.3 301 298.7 301 256 301C213.3 301 170.7 301 128 301C85.3 301 42.7 301 21.3 301L0 301Z" fill="#3e2b5a"></path><path d="M0 136L21.3 133.8C42.7 131.7 85.3 127.3 128 129C170.7 130.7 213.3 138.3 256 138.7C298.7 139 341.3 132 384 127.8C426.7 123.7 469.3 122.3 512 123.2C554.7 124 597.3 127 640 130C682.7 133 725.3 136 768 133.2C810.7 130.3 853.3 121.7 896 121.5C938.7 121.3 981.3 129.7 1024 134.3C1066.7 139 1109.3 140 1152 136.8C1194.7 133.7 1237.3 126.3 1280 122.5C1322.7 118.7 1365.3 118.3 1408 117C1450.7 115.7 1493.3 113.3 1536 116.3C1578.7 119.3 1621.3 127.7 1664 134.8C1706.7 142 1749.3 148 1792 145.8C1834.7 143.7 1877.3 133.3 1898.7 128.2L1920 123L1920 301L1898.7 301C1877.3 301 1834.7 301 1792 301C1749.3 301 1706.7 301 1664 301C1621.3 301 1578.7 301 1536 301C1493.3 301 1450.7 301 1408 301C1365.3 301 1322.7 301 1280 301C1237.3 301 1194.7 301 1152 301C1109.3 301 1066.7 301 1024 301C981.3 301 938.7 301 896 301C853.3 301 810.7 301 768 301C725.3 301 682.7 301 640 301C597.3 301 554.7 301 512 301C469.3 301 426.7 301 384 301C341.3 301 298.7 301 256 301C213.3 301 170.7 301 128 301C85.3 301 42.7 301 21.3 301L0 301Z" fill="#6f2f68"></path><path d="M0 161L21.3 159.2C42.7 157.3 85.3 153.7 128 152C170.7 150.3 213.3 150.7 256 155.5C298.7 160.3 341.3 169.7 384 168.7C426.7 167.7 469.3 156.3 512 154.5C554.7 152.7 597.3 160.3 640 160.8C682.7 161.3 725.3 154.7 768 156.7C810.7 158.7 853.3 169.3 896 173.7C938.7 178 981.3 176 1024 175.3C1066.7 174.7 1109.3 175.3 1152 177.5C1194.7 179.7 1237.3 183.3 1280 180.2C1322.7 177 1365.3 167 1408 161.2C1450.7 155.3 1493.3 153.7 1536 156.3C1578.7 159 1621.3 166 1664 167.5C1706.7 169 1749.3 165 1792 167.3C1834.7 169.7 1877.3 178.3 1898.7 182.7L1920 187L1920 301L1898.7 301C1877.3 301 1834.7 301 1792 301C1749.3 301 1706.7 301 1664 301C1621.3 301 1578.7 301 1536 301C1493.3 301 1450.7 301 1408 301C1365.3 301 1322.7 301 1280 301C1237.3 301 1194.7 301 1152 301C1109.3 301 1066.7 301 1024 301C981.3 301 938.7 301 896 301C853.3 301 810.7 301 768 301C725.3 301 682.7 301 640 301C597.3 301 554.7 301 512 301C469.3 301 426.7 301 384 301C341.3 301 298.7 301 256 301C213.3 301 170.7 301 128 301C85.3 301 42.7 301 21.3 301L0 301Z" fill="#a22f68"></path><path d="M0 206L21.3 204.7C42.7 203.3 85.3 200.7 128 196.2C170.7 191.7 213.3 185.3 256 187.5C298.7 189.7 341.3 200.3 384 201.2C426.7 202 469.3 193 512 192.2C554.7 191.3 597.3 198.7 640 202.2C682.7 205.7 725.3 205.3 768 201.8C810.7 198.3 853.3 191.7 896 194.2C938.7 196.7 981.3 208.3 1024 211C1066.7 213.7 1109.3 207.3 1152 201C1194.7 194.7 1237.3 188.3 1280 186.7C1322.7 185 1365.3 188 1408 188.8C1450.7 189.7 1493.3 188.3 1536 191.5C1578.7 194.7 1621.3 202.3 1664 203.7C1706.7 205 1749.3 200 1792 199.3C1834.7 198.7 1877.3 202.3 1898.7 204.2L1920 206L1920 301L1898.7 301C1877.3 301 1834.7 301 1792 301C1749.3 301 1706.7 301 1664 301C1621.3 301 1578.7 301 1536 301C1493.3 301 1450.7 301 1408 301C1365.3 301 1322.7 301 1280 301C1237.3 301 1194.7 301 1152 301C1109.3 301 1066.7 301 1024 301C981.3 301 938.7 301 896 301C853.3 301 810.7 301 768 301C725.3 301 682.7 301 640 301C597.3 301 554.7 301 512 301C469.3 301 426.7 301 384 301C341.3 301 298.7 301 256 301C213.3 301 170.7 301 128 301C85.3 301 42.7 301 21.3 301L0 301Z" fill="#cd3758"></path><path d="M0 218L21.3 220.3C42.7 222.7 85.3 227.3 128 229.7C170.7 232 213.3 232 256 230C298.7 228 341.3 224 384 226.8C426.7 229.7 469.3 239.3 512 237.7C554.7 236 597.3 223 640 218.5C682.7 214 725.3 218 768 218.8C810.7 219.7 853.3 217.3 896 217.3C938.7 217.3 981.3 219.7 1024 225.2C1066.7 230.7 1109.3 239.3 1152 239.2C1194.7 239 1237.3 230 1280 224C1322.7 218 1365.3 215 1408 218.2C1450.7 221.3 1493.3 230.7 1536 232.3C1578.7 234 1621.3 228 1664 224.2C1706.7 220.3 1749.3 218.7 1792 216.8C1834.7 215 1877.3 213 1898.7 212L1920 211L1920 301L1898.7 301C1877.3 301 1834.7 301 1792 301C1749.3 301 1706.7 301 1664 301C1621.3 301 1578.7 301 1536 301C1493.3 301 1450.7 301 1408 301C1365.3 301 1322.7 301 1280 301C1237.3 301 1194.7 301 1152 301C1109.3 301 1066.7 301 1024 301C981.3 301 938.7 301 896 301C853.3 301 810.7 301 768 301C725.3 301 682.7 301 640 301C597.3 301 554.7 301 512 301C469.3 301 426.7 301 384 301C341.3 301 298.7 301 256 301C213.3 301 170.7 301 128 301C85.3 301 42.7 301 21.3 301L0 301Z" fill="#eb533c"></path><path d="M0 253L21.3 255.5C42.7 258 85.3 263 128 262.7C170.7 262.3 213.3 256.7 256 257.3C298.7 258 341.3 265 384 265.3C426.7 265.7 469.3 259.3 512 256.5C554.7 253.7 597.3 254.3 640 253C682.7 251.7 725.3 248.3 768 246.3C810.7 244.3 853.3 243.7 896 250C938.7 256.3 981.3 269.7 1024 275.8C1066.7 282 1109.3 281 1152 277.2C1194.7 273.3 1237.3 266.7 1280 267.7C1322.7 268.7 1365.3 277.3 1408 281.8C1450.7 286.3 1493.3 286.7 1536 280.8C1578.7 275 1621.3 263 1664 262.5C1706.7 262 1749.3 273 1792 274.2C1834.7 275.3 1877.3 266.7 1898.7 262.3L1920 258L1920 301L1898.7 301C1877.3 301 1834.7 301 1792 301C1749.3 301 1706.7 301 1664 301C1621.3 301 1578.7 301 1536 301C1493.3 301 1450.7 301 1408 301C1365.3 301 1322.7 301 1280 301C1237.3 301 1194.7 301 1152 301C1109.3 301 1066.7 301 1024 301C981.3 301 938.7 301 896 301C853.3 301 810.7 301 768 301C725.3 301 682.7 301 640 301C597.3 301 554.7 301 512 301C469.3 301 426.7 301 384 301C341.3 301 298.7 301 256 301C213.3 301 170.7 301 128 301C85.3 301 42.7 301 21.3 301L0 301Z" fill="#f57c00"></path></svg>