<svg id="visual" viewBox="0 0 1920 300" width="1920" height="300" xmlns="http://www.w3.org/2000/svg" xmlns:xlink="http://www.w3.org/1999/xlink" version="1.1"><rect x="0" y="0" width="1920" height="300" fill="#315ab7"></rect><path d="M0 273L21.3 270.2C42.7 267.3 85.3 261.7 128 260.2C170.7 258.7 213.3 261.3 256 262.8C298.7 264.3 341.3 264.7 384 267.5C426.7 270.3 469.3 275.7 512 276.3C554.7 277 597.3 273 640 268.8C682.7 264.7 725.3 260.3 768 261C810.7 261.7 853.3 267.3 896 268.7C938.7 270 981.3 267 1024 268.8C1066.7 270.7 1109.3 277.3 1152 280C1194.7 282.7 1237.3 281.3 1280 278.8C1322.7 276.3 1365.3 272.7 1408 267.3C1450.7 262 1493.3 255 1536 257C1578.7 259 1621.3 270 1664 271C1706.7 272 1749.3 263 1792 263.8C1834.7 264.7 1877.3 275.3 1898.7 280.7L1920 286L1920 0L1898.7 0C1877.3 0 1834.7 0 1792 0C1749.3 0 1706.7 0 1664 0C1621.3 0 1578.7 0 1536 0C1493.3 0 1450.7 0 1408 0C1365.3 0 1322.7 0 1280 0C1237.3 0 1194.7 0 1152 0C1109.3 0 1066.7 0 1024 0C981.3 0 938.7 0 896 0C853.3 0 810.7 0 768 0C725.3 0 682.7 0 640 0C597.3 0 554.7 0 512 0C469.3 0 426.7 0 384 0C341.3 0 298.7 0 256 0C213.3 0 170.7 0 128 0C85.3 0 42.7 0 21.3 0L0 0Z" fill="#315ab7"></path><path d="M0 231L21.3 230.2C42.7 229.3 85.3 227.7 128 226.2C170.7 224.7 213.3 223.3 256 220.7C298.7 218 341.3 214 384 215.8C426.7 217.7 469.3 225.3 512 229.7C554.7 234 597.3 235 640 237.3C682.7 239.7 725.3 243.3 768 244C810.7 244.7 853.3 242.3 896 241.7C938.7 241 981.3 242 1024 237.8C1066.7 233.7 1109.3 224.3 1152 225.5C1194.7 226.7 1237.3 238.3 1280 243C1322.7 247.7 1365.3 245.3 1408 243.5C1450.7 241.7 1493.3 240.3 1536 237.5C1578.7 234.7 1621.3 230.3 1664 231C1706.7 231.7 1749.3 237.3 1792 242.3C1834.7 247.3 1877.3 251.7 1898.7 253.8L1920 256L1920 0L1898.7 0C1877.3 0 1834.7 0 1792 0C1749.3 0 1706.7 0 1664 0C1621.3 0 1578.7 0 1536 0C1493.3 0 1450.7 0 1408 0C1365.3 0 1322.7 0 1280 0C1237.3 0 1194.7 0 1152 0C1109.3 0 1066.7 0 1024 0C981.3 0 938.7 0 896 0C853.3 0 810.7 0 768 0C725.3 0 682.7 0 640 0C597.3 0 554.7 0 512 0C469.3 0 426.7 0 384 0C341.3 0 298.7 0 256 0C213.3 0 170.7 0 128 0C85.3 0 42.7 0 21.3 0L0 0Z" fill="#1e50a0"></path><path d="M0 191L21.3 193C42.7 195 85.3 199 128 201.7C170.7 204.3 213.3 205.7 256 202.3C298.7 199 341.3 191 384 188.5C426.7 186 469.3 189 512 191C554.7 193 597.3 194 640 196.3C682.7 198.7 725.3 202.3 768 206C810.7 209.7 853.3 213.3 896 213C938.7 212.7 981.3 208.3 1024 205.3C1066.7 202.3 1109.3 200.7 1152 200.5C1194.7 200.3 1237.3 201.7 1280 198.8C1322.7 196 1365.3 189 1408 189.2C1450.7 189.3 1493.3 196.7 1536 198.2C1578.7 199.7 1621.3 195.3 1664 194.7C1706.7 194 1749.3 197 1792 197.2C1834.7 197.3 1877.3 194.7 1898.7 193.3L1920 192L1920 0L1898.7 0C1877.3 0 1834.7 0 1792 0C1749.3 0 1706.7 0 1664 0C1621.3 0 1578.7 0 1536 0C1493.3 0 1450.7 0 1408 0C1365.3 0 1322.7 0 1280 0C1237.3 0 1194.7 0 1152 0C1109.3 0 1066.7 0 1024 0C981.3 0 938.7 0 896 0C853.3 0 810.7 0 768 0C725.3 0 682.7 0 640 0C597.3 0 554.7 0 512 0C469.3 0 426.7 0 384 0C341.3 0 298.7 0 256 0C213.3 0 170.7 0 128 0C85.3 0 42.7 0 21.3 0L0 0Z" fill="#0e468a"></path><path d="M0 148L21.3 154.2C42.7 160.3 85.3 172.7 128 178C170.7 183.3 213.3 181.7 256 178C298.7 174.3 341.3 168.7 384 167.7C426.7 166.7 469.3 170.3 512 172.2C554.7 174 597.3 174 640 168.8C682.7 163.7 725.3 153.3 768 149.3C810.7 145.3 853.3 147.7 896 152.8C938.7 158 981.3 166 1024 171.3C1066.7 176.7 1109.3 179.3 1152 177.8C1194.7 176.3 1237.3 170.7 1280 171.8C1322.7 173 1365.3 181 1408 183.3C1450.7 185.7 1493.3 182.3 1536 179.2C1578.7 176 1621.3 173 1664 173.2C1706.7 173.3 1749.3 176.7 1792 173.5C1834.7 170.3 1877.3 160.7 1898.7 155.8L1920 151L1920 0L1898.7 0C1877.3 0 1834.7 0 1792 0C1749.3 0 1706.7 0 1664 0C1621.3 0 1578.7 0 1536 0C1493.3 0 1450.7 0 1408 0C1365.3 0 1322.7 0 1280 0C1237.3 0 1194.7 0 1152 0C1109.3 0 1066.7 0 1024 0C981.3 0 938.7 0 896 0C853.3 0 810.7 0 768 0C725.3 0 682.7 0 640 0C597.3 0 554.7 0 512 0C469.3 0 426.7 0 384 0C341.3 0 298.7 0 256 0C213.3 0 170.7 0 128 0C85.3 0 42.7 0 21.3 0L0 0Z" fill="#023c73"></path><path d="M0 151L21.3 150.7C42.7 150.3 85.3 149.7 128 145.2C170.7 140.7 213.3 132.3 256 133.2C298.7 134 341.3 144 384 146.7C426.7 149.3 469.3 144.7 512 144.7C554.7 144.7 597.3 149.3 640 148C682.7 146.7 725.3 139.3 768 137.5C810.7 135.7 853.3 139.3 896 139.3C938.7 139.3 981.3 135.7 1024 136C1066.7 136.3 1109.3 140.7 1152 143.3C1194.7 146 1237.3 147 1280 146C1322.7 145 1365.3 142 1408 138.8C1450.7 135.7 1493.3 132.3 1536 127.8C1578.7 123.3 1621.3 117.7 1664 114.8C1706.7 112 1749.3 112 1792 116C1834.7 120 1877.3 128 1898.7 132L1920 136L1920 0L1898.7 0C1877.3 0 1834.7 0 1792 0C1749.3 0 1706.7 0 1664 0C1621.3 0 1578.7 0 1536 0C1493.3 0 1450.7 0 1408 0C1365.3 0 1322.7 0 1280 0C1237.3 0 1194.7 0 1152 0C1109.3 0 1066.7 0 1024 0C981.3 0 938.7 0 896 0C853.3 0 810.7 0 768 0C725.3 0 682.7 0 640 0C597.3 0 554.7 0 512 0C469.3 0 426.7 0 384 0C341.3 0 298.7 0 256 0C213.3 0 170.7 0 128 0C85.3 0 42.7 0 21.3 0L0 0Z" fill="#00325d"></path><path d="M0 91L21.3 94.7C42.7 98.3 85.3 105.7 128 109.8C170.7 114 213.3 115 256 111.3C298.7 107.7 341.3 99.3 384 95.5C426.7 91.7 469.3 92.3 512 90.7C554.7 89 597.3 85 640 85.3C682.7 85.7 725.3 90.3 768 94.8C810.7 99.3 853.3 103.7 896 107.7C938.7 111.7 981.3 115.3 1024 113.7C1066.7 112 1109.3 105 1152 98.2C1194.7 91.3 1237.3 84.7 1280 88.3C1322.7 92 1365.3 106 1408 106.3C1450.7 106.7 1493.3 93.3 1536 86.5C1578.7 79.7 1621.3 79.3 1664 84.3C1706.7 89.3 1749.3 99.7 1792 102.5C1834.7 105.3 1877.3 100.7 1898.7 98.3L1920 96L1920 0L1898.7 0C1877.3 0 1834.7 0 1792 0C1749.3 0 1706.7 0 1664 0C1621.3 0 1578.7 0 1536 0C1493.3 0 1450.7 0 1408 0C1365.3 0 1322.7 0 1280 0C1237.3 0 1194.7 0 1152 0C1109.3 0 1066.7 0 1024 0C981.3 0 938.7 0 896 0C853.3 0 810.7 0 768 0C725.3 0 682.7 0 640 0C597.3 0 554.7 0 512 0C469.3 0 426.7 0 384 0C341.3 0 298.7 0 256 0C213.3 0 170.7 0 128 0C85.3 0 42.7 0 21.3 0L0 0Z" fill="#002748"></path><path d="M0 71L21.3 66.8C42.7 62.7 85.3 54.3 128 55.7C170.7 57 213.3 68 256 68C298.7 68 341.3 57 384 53.8C426.7 50.7 469.3 55.3 512 60.5C554.7 65.7 597.3 71.3 640 72.5C682.7 73.7 725.3 70.3 768 71.5C810.7 72.7 853.3 78.3 896 80.5C938.7 82.7 981.3 81.3 1024 74.7C1066.7 68 1109.3 56 1152 56.7C1194.7 57.3 1237.3 70.7 1280 78C1322.7 85.3 1365.3 86.7 1408 87C1450.7 87.3 1493.3 86.7 1536 86C1578.7 85.3 1621.3 84.7 1664 84C1706.7 83.3 1749.3 82.7 1792 77.5C1834.7 72.3 1877.3 62.7 1898.7 57.8L1920 53L1920 0L1898.7 0C1877.3 0 1834.7 0 1792 0C1749.3 0 1706.7 0 1664 0C1621.3 0 1578.7 0 1536 0C1493.3 0 1450.7 0 1408 0C1365.3 0 1322.7 0 1280 0C1237.3 0 1194.7 0 1152 0C1109.3 0 1066.7 0 1024 0C981.3 0 938.7 0 896 0C853.3 0 810.7 0 768 0C725.3 0 682.7 0 640 0C597.3 0 554.7 0 512 0C469.3 0 426.7 0 384 0C341.3 0 298.7 0 256 0C213.3 0 170.7 0 128 0C85.3 0 42.7 0 21.3 0L0 0Z" fill="#001d33"></path><path d="M0 32L21.3 34.8C42.7 37.7 85.3 43.3 128 43.3C170.7 43.3 213.3 37.7 256 34.7C298.7 31.7 341.3 31.3 384 28.8C426.7 26.3 469.3 21.7 512 21.7C554.7 21.7 597.3 26.3 640 26.2C682.7 26 725.3 21 768 24.2C810.7 27.3 853.3 38.7 896 38.2C938.7 37.7 981.3 25.3 1024 20.5C1066.7 15.7 1109.3 18.3 1152 22C1194.7 25.7 1237.3 30.3 1280 31.3C1322.7 32.3 1365.3 29.7 1408 28.2C1450.7 26.7 1493.3 26.3 1536 24.3C1578.7 22.3 1621.3 18.7 1664 20.2C1706.7 21.7 1749.3 28.3 1792 30.3C1834.7 32.3 1877.3 29.7 1898.7 28.3L1920 27L1920 0L1898.7 0C1877.3 0 1834.7 0 1792 0C1749.3 0 1706.7 0 1664 0C1621.3 0 1578.7 0 1536 0C1493.3 0 1450.7 0 1408 0C1365.3 0 1322.7 0 1280 0C1237.3 0 1194.7 0 1152 0C1109.3 0 1066.7 0 1024 0C981.3 0 938.7 0 896 0C853.3 0 810.7 0 768 0C725.3 0 682.7 0 640 0C597.3 0 554.7 0 512 0C469.3 0 426.7 0 384 0C341.3 0 298.7 0 256 0C213.3 0 170.7 0 128 0C85.3 0 42.7 0 21.3 0L0 0Z" fill="#001220"></path></svg>