<svg
  id="visual"
  viewBox="0 0 1920 300"
  width="1920"
  height="300"
  xmlns="http://www.w3.org/2000/svg"
  xmlns:xlink="http://www.w3.org/1999/xlink"
  version="1.1"
>
  <rect x="0" y="0" width="1920" height="300" fill="#001220"></rect>
  <path
    d="M0 16L22.8 14.8C45.7 13.7 91.3 11.3 137 13.5C182.7 15.7 228.3 22.3 274 23.7C319.7 25 365.3 21 411.2 20.8C457 20.7 503 24.3 548.8 30.2C594.7 36 640.3 44 686 44.7C731.7 45.3 777.3 38.7 823 35.8C868.7 33 914.3 34 960 31.5C1005.7 29 1051.3 23 1097 19.5C1142.7 16 1188.3 15 1234 13.8C1279.7 12.7 1325.3 11.3 1371.2 18C1417 24.7 1463 39.3 1508.8 43.3C1554.7 47.3 1600.3 40.7 1646 33.5C1691.7 26.3 1737.3 18.7 1783 17.2C1828.7 15.7 1874.3 20.3 1897.2 22.7L1920 25L1920 301L1897.2 301C1874.3 301 1828.7 301 1783 301C1737.3 301 1691.7 301 1646 301C1600.3 301 1554.7 301 1508.8 301C1463 301 1417 301 1371.2 301C1325.3 301 1279.7 301 1234 301C1188.3 301 1142.7 301 1097 301C1051.3 301 1005.7 301 960 301C914.3 301 868.7 301 823 301C777.3 301 731.7 301 686 301C640.3 301 594.7 301 548.8 301C503 301 457 301 411.2 301C365.3 301 319.7 301 274 301C228.3 301 182.7 301 137 301C91.3 301 45.7 301 22.8 301L0 301Z"
    fill="#001220"
  ></path>
  <path
    d="M0 45L22.8 51.2C45.7 57.3 91.3 69.7 137 73C182.7 76.3 228.3 70.7 274 66.8C319.7 63 365.3 61 411.2 64C457 67 503 75 548.8 79C594.7 83 640.3 83 686 79.5C731.7 76 777.3 69 823 69.7C868.7 70.3 914.3 78.7 960 75.5C1005.7 72.3 1051.3 57.7 1097 53.3C1142.7 49 1188.3 55 1234 58.5C1279.7 62 1325.3 63 1371.2 60.5C1417 58 1463 52 1508.8 53.3C1554.7 54.7 1600.3 63.3 1646 70.3C1691.7 77.3 1737.3 82.7 1783 79.8C1828.7 77 1874.3 66 1897.2 60.5L1920 55L1920 301L1897.2 301C1874.3 301 1828.7 301 1783 301C1737.3 301 1691.7 301 1646 301C1600.3 301 1554.7 301 1508.8 301C1463 301 1417 301 1371.2 301C1325.3 301 1279.7 301 1234 301C1188.3 301 1142.7 301 1097 301C1051.3 301 1005.7 301 960 301C914.3 301 868.7 301 823 301C777.3 301 731.7 301 686 301C640.3 301 594.7 301 548.8 301C503 301 457 301 411.2 301C365.3 301 319.7 301 274 301C228.3 301 182.7 301 137 301C91.3 301 45.7 301 22.8 301L0 301Z"
    fill="#00203d"
  ></path>
  <path
    d="M0 122L22.8 117.3C45.7 112.7 91.3 103.3 137 101.2C182.7 99 228.3 104 274 100.5C319.7 97 365.3 85 411.2 82.8C457 80.7 503 88.3 548.8 93.3C594.7 98.3 640.3 100.7 686 100.7C731.7 100.7 777.3 98.3 823 93.8C868.7 89.3 914.3 82.7 960 79C1005.7 75.3 1051.3 74.7 1097 79.7C1142.7 84.7 1188.3 95.3 1234 102C1279.7 108.7 1325.3 111.3 1371.2 107.3C1417 103.3 1463 92.7 1508.8 91.7C1554.7 90.7 1600.3 99.3 1646 103.7C1691.7 108 1737.3 108 1783 108.2C1828.7 108.3 1874.3 108.7 1897.2 108.8L1920 109L1920 301L1897.2 301C1874.3 301 1828.7 301 1783 301C1737.3 301 1691.7 301 1646 301C1600.3 301 1554.7 301 1508.8 301C1463 301 1417 301 1371.2 301C1325.3 301 1279.7 301 1234 301C1188.3 301 1142.7 301 1097 301C1051.3 301 1005.7 301 960 301C914.3 301 868.7 301 823 301C777.3 301 731.7 301 686 301C640.3 301 594.7 301 548.8 301C503 301 457 301 411.2 301C365.3 301 319.7 301 274 301C228.3 301 182.7 301 137 301C91.3 301 45.7 301 22.8 301L0 301Z"
    fill="#002e5c"
  ></path>
  <path
    d="M0 118L22.8 120C45.7 122 91.3 126 137 125.8C182.7 125.7 228.3 121.3 274 118.5C319.7 115.7 365.3 114.3 411.2 114.8C457 115.3 503 117.7 548.8 123.7C594.7 129.7 640.3 139.3 686 138.5C731.7 137.7 777.3 126.3 823 121.2C868.7 116 914.3 117 960 116.3C1005.7 115.7 1051.3 113.3 1097 116.2C1142.7 119 1188.3 127 1234 133.3C1279.7 139.7 1325.3 144.3 1371.2 141.3C1417 138.3 1463 127.7 1508.8 121C1554.7 114.3 1600.3 111.7 1646 112.3C1691.7 113 1737.3 117 1783 120.2C1828.7 123.3 1874.3 125.7 1897.2 126.8L1920 128L1920 301L1897.2 301C1874.3 301 1828.7 301 1783 301C1737.3 301 1691.7 301 1646 301C1600.3 301 1554.7 301 1508.8 301C1463 301 1417 301 1371.2 301C1325.3 301 1279.7 301 1234 301C1188.3 301 1142.7 301 1097 301C1051.3 301 1005.7 301 960 301C914.3 301 868.7 301 823 301C777.3 301 731.7 301 686 301C640.3 301 594.7 301 548.8 301C503 301 457 301 411.2 301C365.3 301 319.7 301 274 301C228.3 301 182.7 301 137 301C91.3 301 45.7 301 22.8 301L0 301Z"
    fill="#003a7b"
  ></path>
  <path
    d="M0 186L22.8 179.7C45.7 173.3 91.3 160.7 137 155.2C182.7 149.7 228.3 151.3 274 157.5C319.7 163.7 365.3 174.3 411.2 178.3C457 182.3 503 179.7 548.8 178.2C594.7 176.7 640.3 176.3 686 170.5C731.7 164.7 777.3 153.3 823 148.2C868.7 143 914.3 144 960 151C1005.7 158 1051.3 171 1097 174C1142.7 177 1188.3 170 1234 168.2C1279.7 166.3 1325.3 169.7 1371.2 172.2C1417 174.7 1463 176.3 1508.8 173C1554.7 169.7 1600.3 161.3 1646 163.3C1691.7 165.3 1737.3 177.7 1783 183C1828.7 188.3 1874.3 186.7 1897.2 185.8L1920 185L1920 301L1897.2 301C1874.3 301 1828.7 301 1783 301C1737.3 301 1691.7 301 1646 301C1600.3 301 1554.7 301 1508.8 301C1463 301 1417 301 1371.2 301C1325.3 301 1279.7 301 1234 301C1188.3 301 1142.7 301 1097 301C1051.3 301 1005.7 301 960 301C914.3 301 868.7 301 823 301C777.3 301 731.7 301 686 301C640.3 301 594.7 301 548.8 301C503 301 457 301 411.2 301C365.3 301 319.7 301 274 301C228.3 301 182.7 301 137 301C91.3 301 45.7 301 22.8 301L0 301Z"
    fill="#00469b"
  ></path>
  <path
    d="M0 194L22.8 195.5C45.7 197 91.3 200 137 202.2C182.7 204.3 228.3 205.7 274 206.3C319.7 207 365.3 207 411.2 202C457 197 503 187 548.8 183C594.7 179 640.3 181 686 186.2C731.7 191.3 777.3 199.7 823 202.5C868.7 205.3 914.3 202.7 960 203.8C1005.7 205 1051.3 210 1097 206.5C1142.7 203 1188.3 191 1234 185.8C1279.7 180.7 1325.3 182.3 1371.2 189.2C1417 196 1463 208 1508.8 213.7C1554.7 219.3 1600.3 218.7 1646 219.5C1691.7 220.3 1737.3 222.7 1783 220.2C1828.7 217.7 1874.3 210.3 1897.2 206.7L1920 203L1920 301L1897.2 301C1874.3 301 1828.7 301 1783 301C1737.3 301 1691.7 301 1646 301C1600.3 301 1554.7 301 1508.8 301C1463 301 1417 301 1371.2 301C1325.3 301 1279.7 301 1234 301C1188.3 301 1142.7 301 1097 301C1051.3 301 1005.7 301 960 301C914.3 301 868.7 301 823 301C777.3 301 731.7 301 686 301C640.3 301 594.7 301 548.8 301C503 301 457 301 411.2 301C365.3 301 319.7 301 274 301C228.3 301 182.7 301 137 301C91.3 301 45.7 301 22.8 301L0 301Z"
    fill="#0051bc"
  ></path>
  <path
    d="M0 216L22.8 219.2C45.7 222.3 91.3 228.7 137 227.3C182.7 226 228.3 217 274 219.7C319.7 222.3 365.3 236.7 411.2 240.5C457 244.3 503 237.7 548.8 232.2C594.7 226.7 640.3 222.3 686 225.5C731.7 228.7 777.3 239.3 823 239.2C868.7 239 914.3 228 960 223.2C1005.7 218.3 1051.3 219.7 1097 226.7C1142.7 233.7 1188.3 246.3 1234 247.3C1279.7 248.3 1325.3 237.7 1371.2 232.3C1417 227 1463 227 1508.8 227C1554.7 227 1600.3 227 1646 227.3C1691.7 227.7 1737.3 228.3 1783 226C1828.7 223.7 1874.3 218.3 1897.2 215.7L1920 213L1920 301L1897.2 301C1874.3 301 1828.7 301 1783 301C1737.3 301 1691.7 301 1646 301C1600.3 301 1554.7 301 1508.8 301C1463 301 1417 301 1371.2 301C1325.3 301 1279.7 301 1234 301C1188.3 301 1142.7 301 1097 301C1051.3 301 1005.7 301 960 301C914.3 301 868.7 301 823 301C777.3 301 731.7 301 686 301C640.3 301 594.7 301 548.8 301C503 301 457 301 411.2 301C365.3 301 319.7 301 274 301C228.3 301 182.7 301 137 301C91.3 301 45.7 301 22.8 301L0 301Z"
    fill="#005cdd"
  ></path>
  <path
    d="M0 266L22.8 267.2C45.7 268.3 91.3 270.7 137 272.8C182.7 275 228.3 277 274 276.5C319.7 276 365.3 273 411.2 273.2C457 273.3 503 276.7 548.8 275.2C594.7 273.7 640.3 267.3 686 261.3C731.7 255.3 777.3 249.7 823 246.5C868.7 243.3 914.3 242.7 960 249.8C1005.7 257 1051.3 272 1097 275C1142.7 278 1188.3 269 1234 266.7C1279.7 264.3 1325.3 268.7 1371.2 271.5C1417 274.3 1463 275.7 1508.8 270C1554.7 264.3 1600.3 251.7 1646 252.5C1691.7 253.3 1737.3 267.7 1783 274.3C1828.7 281 1874.3 280 1897.2 279.5L1920 279L1920 301L1897.2 301C1874.3 301 1828.7 301 1783 301C1737.3 301 1691.7 301 1646 301C1600.3 301 1554.7 301 1508.8 301C1463 301 1417 301 1371.2 301C1325.3 301 1279.7 301 1234 301C1188.3 301 1142.7 301 1097 301C1051.3 301 1005.7 301 960 301C914.3 301 868.7 301 823 301C777.3 301 731.7 301 686 301C640.3 301 594.7 301 548.8 301C503 301 457 301 411.2 301C365.3 301 319.7 301 274 301C228.3 301 182.7 301 137 301C91.3 301 45.7 301 22.8 301L0 301Z"
    fill="#0066ff"
  ></path>
</svg>
