<svg
  id="visual"
  viewBox="0 0 1920 200"
  width="1920"
  height="200"
  xmlns="http://www.w3.org/2000/svg"
  xmlns:xlink="http://www.w3.org/1999/xlink"
  version="1.1"
>
  <rect x="0" y="0" width="1920" height="200" fill="#ffffff"></rect>
  <path
    d="M0 150L21.3 152.7C42.7 155.3 85.3 160.7 128 160.5C170.7 160.3 213.3 154.7 256 155.2C298.7 155.7 341.3 162.3 384 162.2C426.7 162 469.3 155 512 155.5C554.7 156 597.3 164 640 163.7C682.7 163.3 725.3 154.7 768 155.2C810.7 155.7 853.3 165.3 896 168.5C938.7 171.7 981.3 168.3 1024 166.3C1066.7 164.3 1109.3 163.7 1152 164.2C1194.7 164.7 1237.3 166.3 1280 164.3C1322.7 162.3 1365.3 156.7 1408 153.3C1450.7 150 1493.3 149 1536 148.8C1578.7 148.7 1621.3 149.3 1664 149.8C1706.7 150.3 1749.3 150.7 1792 150.7C1834.7 150.7 1877.3 150.3 1898.7 150.2L1920 150L1920 0L1898.7 0C1877.3 0 1834.7 0 1792 0C1749.3 0 1706.7 0 1664 0C1621.3 0 1578.7 0 1536 0C1493.3 0 1450.7 0 1408 0C1365.3 0 1322.7 0 1280 0C1237.3 0 1194.7 0 1152 0C1109.3 0 1066.7 0 1024 0C981.3 0 938.7 0 896 0C853.3 0 810.7 0 768 0C725.3 0 682.7 0 640 0C597.3 0 554.7 0 512 0C469.3 0 426.7 0 384 0C341.3 0 298.7 0 256 0C213.3 0 170.7 0 128 0C85.3 0 42.7 0 21.3 0L0 0Z"
    fill="#ffffff"
  ></path>
  <path
    d="M0 130L21.3 129.7C42.7 129.3 85.3 128.7 128 133.3C170.7 138 213.3 148 256 151.3C298.7 154.7 341.3 151.3 384 147C426.7 142.7 469.3 137.3 512 139C554.7 140.7 597.3 149.3 640 152.5C682.7 155.7 725.3 153.3 768 148.7C810.7 144 853.3 137 896 137.3C938.7 137.7 981.3 145.3 1024 147.7C1066.7 150 1109.3 147 1152 144.2C1194.7 141.3 1237.3 138.7 1280 139.8C1322.7 141 1365.3 146 1408 148C1450.7 150 1493.3 149 1536 145.5C1578.7 142 1621.3 136 1664 132.5C1706.7 129 1749.3 128 1792 129.5C1834.7 131 1877.3 135 1898.7 137L1920 139L1920 0L1898.7 0C1877.3 0 1834.7 0 1792 0C1749.3 0 1706.7 0 1664 0C1621.3 0 1578.7 0 1536 0C1493.3 0 1450.7 0 1408 0C1365.3 0 1322.7 0 1280 0C1237.3 0 1194.7 0 1152 0C1109.3 0 1066.7 0 1024 0C981.3 0 938.7 0 896 0C853.3 0 810.7 0 768 0C725.3 0 682.7 0 640 0C597.3 0 554.7 0 512 0C469.3 0 426.7 0 384 0C341.3 0 298.7 0 256 0C213.3 0 170.7 0 128 0C85.3 0 42.7 0 21.3 0L0 0Z"
    fill="#fee0cc"
  ></path>
  <path
    d="M0 122L21.3 122.7C42.7 123.3 85.3 124.7 128 124.7C170.7 124.7 213.3 123.3 256 121.5C298.7 119.7 341.3 117.3 384 119C426.7 120.7 469.3 126.3 512 127.8C554.7 129.3 597.3 126.7 640 128.2C682.7 129.7 725.3 135.3 768 133C810.7 130.7 853.3 120.3 896 115.8C938.7 111.3 981.3 112.7 1024 114.7C1066.7 116.7 1109.3 119.3 1152 123.5C1194.7 127.7 1237.3 133.3 1280 134.7C1322.7 136 1365.3 133 1408 129.2C1450.7 125.3 1493.3 120.7 1536 121.2C1578.7 121.7 1621.3 127.3 1664 127.2C1706.7 127 1749.3 121 1792 119.5C1834.7 118 1877.3 121 1898.7 122.5L1920 124L1920 0L1898.7 0C1877.3 0 1834.7 0 1792 0C1749.3 0 1706.7 0 1664 0C1621.3 0 1578.7 0 1536 0C1493.3 0 1450.7 0 1408 0C1365.3 0 1322.7 0 1280 0C1237.3 0 1194.7 0 1152 0C1109.3 0 1066.7 0 1024 0C981.3 0 938.7 0 896 0C853.3 0 810.7 0 768 0C725.3 0 682.7 0 640 0C597.3 0 554.7 0 512 0C469.3 0 426.7 0 384 0C341.3 0 298.7 0 256 0C213.3 0 170.7 0 128 0C85.3 0 42.7 0 21.3 0L0 0Z"
    fill="#fed2b3"
  ></path>
  <path
    d="M0 115L21.3 113.3C42.7 111.7 85.3 108.3 128 105C170.7 101.7 213.3 98.3 256 96.3C298.7 94.3 341.3 93.7 384 94.5C426.7 95.3 469.3 97.7 512 100.3C554.7 103 597.3 106 640 105C682.7 104 725.3 99 768 98.2C810.7 97.3 853.3 100.7 896 103.8C938.7 107 981.3 110 1024 108.7C1066.7 107.3 1109.3 101.7 1152 99.8C1194.7 98 1237.3 100 1280 100.8C1322.7 101.7 1365.3 101.3 1408 101.7C1450.7 102 1493.3 103 1536 101.7C1578.7 100.3 1621.3 96.7 1664 98.7C1706.7 100.7 1749.3 108.3 1792 109.2C1834.7 110 1877.3 104 1898.7 101L1920 98L1920 0L1898.7 0C1877.3 0 1834.7 0 1792 0C1749.3 0 1706.7 0 1664 0C1621.3 0 1578.7 0 1536 0C1493.3 0 1450.7 0 1408 0C1365.3 0 1322.7 0 1280 0C1237.3 0 1194.7 0 1152 0C1109.3 0 1066.7 0 1024 0C981.3 0 938.7 0 896 0C853.3 0 810.7 0 768 0C725.3 0 682.7 0 640 0C597.3 0 554.7 0 512 0C469.3 0 426.7 0 384 0C341.3 0 298.7 0 256 0C213.3 0 170.7 0 128 0C85.3 0 42.7 0 21.3 0L0 0Z"
    fill="#fdc29a"
  ></path>
  <path
    d="M0 89L21.3 90.7C42.7 92.3 85.3 95.7 128 93.7C170.7 91.7 213.3 84.3 256 84.8C298.7 85.3 341.3 93.7 384 93.2C426.7 92.7 469.3 83.3 512 83.8C554.7 84.3 597.3 94.7 640 96.5C682.7 98.3 725.3 91.7 768 88.2C810.7 84.7 853.3 84.3 896 84.8C938.7 85.3 981.3 86.7 1024 86C1066.7 85.3 1109.3 82.7 1152 80.5C1194.7 78.3 1237.3 76.7 1280 78.8C1322.7 81 1365.3 87 1408 88.7C1450.7 90.3 1493.3 87.7 1536 85C1578.7 82.3 1621.3 79.7 1664 80.7C1706.7 81.7 1749.3 86.3 1792 89.7C1834.7 93 1877.3 95 1898.7 96L1920 97L1920 0L1898.7 0C1877.3 0 1834.7 0 1792 0C1749.3 0 1706.7 0 1664 0C1621.3 0 1578.7 0 1536 0C1493.3 0 1450.7 0 1408 0C1365.3 0 1322.7 0 1280 0C1237.3 0 1194.7 0 1152 0C1109.3 0 1066.7 0 1024 0C981.3 0 938.7 0 896 0C853.3 0 810.7 0 768 0C725.3 0 682.7 0 640 0C597.3 0 554.7 0 512 0C469.3 0 426.7 0 384 0C341.3 0 298.7 0 256 0C213.3 0 170.7 0 128 0C85.3 0 42.7 0 21.3 0L0 0Z"
    fill="#fdb481"
  ></path>
  <path
    d="M0 72L21.3 72C42.7 72 85.3 72 128 70.7C170.7 69.3 213.3 66.7 256 68.7C298.7 70.7 341.3 77.3 384 77.8C426.7 78.3 469.3 72.7 512 72C554.7 71.3 597.3 75.7 640 73.8C682.7 72 725.3 64 768 64.3C810.7 64.7 853.3 73.3 896 77.8C938.7 82.3 981.3 82.7 1024 78.8C1066.7 75 1109.3 67 1152 67.7C1194.7 68.3 1237.3 77.7 1280 77.5C1322.7 77.3 1365.3 67.7 1408 66C1450.7 64.3 1493.3 70.7 1536 73C1578.7 75.3 1621.3 73.7 1664 73.5C1706.7 73.3 1749.3 74.7 1792 74.3C1834.7 74 1877.3 72 1898.7 71L1920 70L1920 0L1898.7 0C1877.3 0 1834.7 0 1792 0C1749.3 0 1706.7 0 1664 0C1621.3 0 1578.7 0 1536 0C1493.3 0 1450.7 0 1408 0C1365.3 0 1322.7 0 1280 0C1237.3 0 1194.7 0 1152 0C1109.3 0 1066.7 0 1024 0C981.3 0 938.7 0 896 0C853.3 0 810.7 0 768 0C725.3 0 682.7 0 640 0C597.3 0 554.7 0 512 0C469.3 0 426.7 0 384 0C341.3 0 298.7 0 256 0C213.3 0 170.7 0 128 0C85.3 0 42.7 0 21.3 0L0 0Z"
    fill="#fca569"
  ></path>
  <path
    d="M0 51L21.3 49.7C42.7 48.3 85.3 45.7 128 44.2C170.7 42.7 213.3 42.3 256 42.8C298.7 43.3 341.3 44.7 384 48.2C426.7 51.7 469.3 57.3 512 59C554.7 60.7 597.3 58.3 640 54.2C682.7 50 725.3 44 768 45C810.7 46 853.3 54 896 55.2C938.7 56.3 981.3 50.7 1024 49.2C1066.7 47.7 1109.3 50.3 1152 50.8C1194.7 51.3 1237.3 49.7 1280 47.3C1322.7 45 1365.3 42 1408 41.8C1450.7 41.7 1493.3 44.3 1536 47.2C1578.7 50 1621.3 53 1664 56C1706.7 59 1749.3 62 1792 60.7C1834.7 59.3 1877.3 53.7 1898.7 50.8L1920 48L1920 0L1898.7 0C1877.3 0 1834.7 0 1792 0C1749.3 0 1706.7 0 1664 0C1621.3 0 1578.7 0 1536 0C1493.3 0 1450.7 0 1408 0C1365.3 0 1322.7 0 1280 0C1237.3 0 1194.7 0 1152 0C1109.3 0 1066.7 0 1024 0C981.3 0 938.7 0 896 0C853.3 0 810.7 0 768 0C725.3 0 682.7 0 640 0C597.3 0 554.7 0 512 0C469.3 0 426.7 0 384 0C341.3 0 298.7 0 256 0C213.3 0 170.7 0 128 0C85.3 0 42.7 0 21.3 0L0 0Z"
    fill="#f99750"
  ></path>
  <path
    d="M0 31L21.3 32.5C42.7 34 85.3 37 128 38.7C170.7 40.3 213.3 40.7 256 40.2C298.7 39.7 341.3 38.3 384 36C426.7 33.7 469.3 30.3 512 28.3C554.7 26.3 597.3 25.7 640 28C682.7 30.3 725.3 35.7 768 37.8C810.7 40 853.3 39 896 37.2C938.7 35.3 981.3 32.7 1024 32.8C1066.7 33 1109.3 36 1152 39.5C1194.7 43 1237.3 47 1280 44.8C1322.7 42.7 1365.3 34.3 1408 30.5C1450.7 26.7 1493.3 27.3 1536 28.8C1578.7 30.3 1621.3 32.7 1664 32.2C1706.7 31.7 1749.3 28.3 1792 26.2C1834.7 24 1877.3 23 1898.7 22.5L1920 22L1920 0L1898.7 0C1877.3 0 1834.7 0 1792 0C1749.3 0 1706.7 0 1664 0C1621.3 0 1578.7 0 1536 0C1493.3 0 1450.7 0 1408 0C1365.3 0 1322.7 0 1280 0C1237.3 0 1194.7 0 1152 0C1109.3 0 1066.7 0 1024 0C981.3 0 938.7 0 896 0C853.3 0 810.7 0 768 0C725.3 0 682.7 0 640 0C597.3 0 554.7 0 512 0C469.3 0 426.7 0 384 0C341.3 0 298.7 0 256 0C213.3 0 170.7 0 128 0C85.3 0 42.7 0 21.3 0L0 0Z"
    fill="#f68837"
  ></path>
  <path
    d="M0 20L21.3 17.8C42.7 15.7 85.3 11.3 128 10.8C170.7 10.3 213.3 13.7 256 16C298.7 18.3 341.3 19.7 384 22C426.7 24.3 469.3 27.7 512 24.3C554.7 21 597.3 11 640 8C682.7 5 725.3 9 768 10C810.7 11 853.3 9 896 10C938.7 11 981.3 15 1024 15.8C1066.7 16.7 1109.3 14.3 1152 14.3C1194.7 14.3 1237.3 16.7 1280 15.7C1322.7 14.7 1365.3 10.3 1408 10.7C1450.7 11 1493.3 16 1536 20C1578.7 24 1621.3 27 1664 26.5C1706.7 26 1749.3 22 1792 17.5C1834.7 13 1877.3 8 1898.7 5.5L1920 3L1920 0L1898.7 0C1877.3 0 1834.7 0 1792 0C1749.3 0 1706.7 0 1664 0C1621.3 0 1578.7 0 1536 0C1493.3 0 1450.7 0 1408 0C1365.3 0 1322.7 0 1280 0C1237.3 0 1194.7 0 1152 0C1109.3 0 1066.7 0 1024 0C981.3 0 938.7 0 896 0C853.3 0 810.7 0 768 0C725.3 0 682.7 0 640 0C597.3 0 554.7 0 512 0C469.3 0 426.7 0 384 0C341.3 0 298.7 0 256 0C213.3 0 170.7 0 128 0C85.3 0 42.7 0 21.3 0L0 0Z"
    fill="#f57c00"
  ></path>
</svg>
