<svg id="visual" viewBox="0 0 1920 300" width="1920" height="300" xmlns="http://www.w3.org/2000/svg" xmlns:xlink="http://www.w3.org/1999/xlink" version="1.1"><rect x="0" y="0" width="1920" height="300" fill="#001220"></rect><path d="M0 265L21.3 265.3C42.7 265.7 85.3 266.3 128 263C170.7 259.7 213.3 252.3 256 250.5C298.7 248.7 341.3 252.3 384 258.8C426.7 265.3 469.3 274.7 512 279C554.7 283.3 597.3 282.7 640 278.2C682.7 273.7 725.3 265.3 768 265C810.7 264.7 853.3 272.3 896 272.5C938.7 272.7 981.3 265.3 1024 266.5C1066.7 267.7 1109.3 277.3 1152 278.3C1194.7 279.3 1237.3 271.7 1280 271.7C1322.7 271.7 1365.3 279.3 1408 282C1450.7 284.7 1493.3 282.3 1536 279.2C1578.7 276 1621.3 272 1664 271.5C1706.7 271 1749.3 274 1792 276.3C1834.7 278.7 1877.3 280.3 1898.7 281.2L1920 282L1920 0L1898.7 0C1877.3 0 1834.7 0 1792 0C1749.3 0 1706.7 0 1664 0C1621.3 0 1578.7 0 1536 0C1493.3 0 1450.7 0 1408 0C1365.3 0 1322.7 0 1280 0C1237.3 0 1194.7 0 1152 0C1109.3 0 1066.7 0 1024 0C981.3 0 938.7 0 896 0C853.3 0 810.7 0 768 0C725.3 0 682.7 0 640 0C597.3 0 554.7 0 512 0C469.3 0 426.7 0 384 0C341.3 0 298.7 0 256 0C213.3 0 170.7 0 128 0C85.3 0 42.7 0 21.3 0L0 0Z" fill="#001220"></path><path d="M0 236L21.3 236.2C42.7 236.3 85.3 236.7 128 236.8C170.7 237 213.3 237 256 235C298.7 233 341.3 229 384 231.7C426.7 234.3 469.3 243.7 512 247C554.7 250.3 597.3 247.7 640 245.7C682.7 243.7 725.3 242.3 768 242.5C810.7 242.7 853.3 244.3 896 239.2C938.7 234 981.3 222 1024 216.3C1066.7 210.7 1109.3 211.3 1152 218.8C1194.7 226.3 1237.3 240.7 1280 245.5C1322.7 250.3 1365.3 245.7 1408 240.8C1450.7 236 1493.3 231 1536 230.3C1578.7 229.7 1621.3 233.3 1664 238C1706.7 242.7 1749.3 248.3 1792 249.8C1834.7 251.3 1877.3 248.7 1898.7 247.3L1920 246L1920 0L1898.7 0C1877.3 0 1834.7 0 1792 0C1749.3 0 1706.7 0 1664 0C1621.3 0 1578.7 0 1536 0C1493.3 0 1450.7 0 1408 0C1365.3 0 1322.7 0 1280 0C1237.3 0 1194.7 0 1152 0C1109.3 0 1066.7 0 1024 0C981.3 0 938.7 0 896 0C853.3 0 810.7 0 768 0C725.3 0 682.7 0 640 0C597.3 0 554.7 0 512 0C469.3 0 426.7 0 384 0C341.3 0 298.7 0 256 0C213.3 0 170.7 0 128 0C85.3 0 42.7 0 21.3 0L0 0Z" fill="#15213f"></path><path d="M0 187L21.3 185.8C42.7 184.7 85.3 182.3 128 184.2C170.7 186 213.3 192 256 194.5C298.7 197 341.3 196 384 193.2C426.7 190.3 469.3 185.7 512 188.3C554.7 191 597.3 201 640 206C682.7 211 725.3 211 768 208.7C810.7 206.3 853.3 201.7 896 197.8C938.7 194 981.3 191 1024 188.7C1066.7 186.3 1109.3 184.7 1152 189.3C1194.7 194 1237.3 205 1280 211.3C1322.7 217.7 1365.3 219.3 1408 213.3C1450.7 207.3 1493.3 193.7 1536 193.8C1578.7 194 1621.3 208 1664 214.3C1706.7 220.7 1749.3 219.3 1792 216C1834.7 212.7 1877.3 207.3 1898.7 204.7L1920 202L1920 0L1898.7 0C1877.3 0 1834.7 0 1792 0C1749.3 0 1706.7 0 1664 0C1621.3 0 1578.7 0 1536 0C1493.3 0 1450.7 0 1408 0C1365.3 0 1322.7 0 1280 0C1237.3 0 1194.7 0 1152 0C1109.3 0 1066.7 0 1024 0C981.3 0 938.7 0 896 0C853.3 0 810.7 0 768 0C725.3 0 682.7 0 640 0C597.3 0 554.7 0 512 0C469.3 0 426.7 0 384 0C341.3 0 298.7 0 256 0C213.3 0 170.7 0 128 0C85.3 0 42.7 0 21.3 0L0 0Z" fill="#3e2b5a"></path><path d="M0 169L21.3 168.7C42.7 168.3 85.3 167.7 128 165.8C170.7 164 213.3 161 256 161.2C298.7 161.3 341.3 164.7 384 167.7C426.7 170.7 469.3 173.3 512 170.3C554.7 167.3 597.3 158.7 640 156C682.7 153.3 725.3 156.7 768 162C810.7 167.3 853.3 174.7 896 173C938.7 171.3 981.3 160.7 1024 157.8C1066.7 155 1109.3 160 1152 161.5C1194.7 163 1237.3 161 1280 159.3C1322.7 157.7 1365.3 156.3 1408 158C1450.7 159.7 1493.3 164.3 1536 166.3C1578.7 168.3 1621.3 167.7 1664 166C1706.7 164.3 1749.3 161.7 1792 158C1834.7 154.3 1877.3 149.7 1898.7 147.3L1920 145L1920 0L1898.7 0C1877.3 0 1834.7 0 1792 0C1749.3 0 1706.7 0 1664 0C1621.3 0 1578.7 0 1536 0C1493.3 0 1450.7 0 1408 0C1365.3 0 1322.7 0 1280 0C1237.3 0 1194.7 0 1152 0C1109.3 0 1066.7 0 1024 0C981.3 0 938.7 0 896 0C853.3 0 810.7 0 768 0C725.3 0 682.7 0 640 0C597.3 0 554.7 0 512 0C469.3 0 426.7 0 384 0C341.3 0 298.7 0 256 0C213.3 0 170.7 0 128 0C85.3 0 42.7 0 21.3 0L0 0Z" fill="#6f2f68"></path><path d="M0 142L21.3 136.8C42.7 131.7 85.3 121.3 128 122.2C170.7 123 213.3 135 256 136C298.7 137 341.3 127 384 121.2C426.7 115.3 469.3 113.7 512 112.5C554.7 111.3 597.3 110.7 640 110.8C682.7 111 725.3 112 768 116.2C810.7 120.3 853.3 127.7 896 133.8C938.7 140 981.3 145 1024 140.8C1066.7 136.7 1109.3 123.3 1152 116.7C1194.7 110 1237.3 110 1280 112.8C1322.7 115.7 1365.3 121.3 1408 127.7C1450.7 134 1493.3 141 1536 140.8C1578.7 140.7 1621.3 133.3 1664 134.3C1706.7 135.3 1749.3 144.7 1792 146C1834.7 147.3 1877.3 140.7 1898.7 137.3L1920 134L1920 0L1898.7 0C1877.3 0 1834.7 0 1792 0C1749.3 0 1706.7 0 1664 0C1621.3 0 1578.7 0 1536 0C1493.3 0 1450.7 0 1408 0C1365.3 0 1322.7 0 1280 0C1237.3 0 1194.7 0 1152 0C1109.3 0 1066.7 0 1024 0C981.3 0 938.7 0 896 0C853.3 0 810.7 0 768 0C725.3 0 682.7 0 640 0C597.3 0 554.7 0 512 0C469.3 0 426.7 0 384 0C341.3 0 298.7 0 256 0C213.3 0 170.7 0 128 0C85.3 0 42.7 0 21.3 0L0 0Z" fill="#a22f68"></path><path d="M0 117L21.3 114C42.7 111 85.3 105 128 100.7C170.7 96.3 213.3 93.7 256 92.8C298.7 92 341.3 93 384 95.3C426.7 97.7 469.3 101.3 512 98.5C554.7 95.7 597.3 86.3 640 81.5C682.7 76.7 725.3 76.3 768 82.7C810.7 89 853.3 102 896 105.2C938.7 108.3 981.3 101.7 1024 98C1066.7 94.3 1109.3 93.7 1152 91.3C1194.7 89 1237.3 85 1280 84.2C1322.7 83.3 1365.3 85.7 1408 89C1450.7 92.3 1493.3 96.7 1536 94.7C1578.7 92.7 1621.3 84.3 1664 85.3C1706.7 86.3 1749.3 96.7 1792 97.8C1834.7 99 1877.3 91 1898.7 87L1920 83L1920 0L1898.7 0C1877.3 0 1834.7 0 1792 0C1749.3 0 1706.7 0 1664 0C1621.3 0 1578.7 0 1536 0C1493.3 0 1450.7 0 1408 0C1365.3 0 1322.7 0 1280 0C1237.3 0 1194.7 0 1152 0C1109.3 0 1066.7 0 1024 0C981.3 0 938.7 0 896 0C853.3 0 810.7 0 768 0C725.3 0 682.7 0 640 0C597.3 0 554.7 0 512 0C469.3 0 426.7 0 384 0C341.3 0 298.7 0 256 0C213.3 0 170.7 0 128 0C85.3 0 42.7 0 21.3 0L0 0Z" fill="#cd3758"></path><path d="M0 47L21.3 51.2C42.7 55.3 85.3 63.7 128 63.5C170.7 63.3 213.3 54.7 256 54.7C298.7 54.7 341.3 63.3 384 68.8C426.7 74.3 469.3 76.7 512 75.3C554.7 74 597.3 69 640 66.2C682.7 63.3 725.3 62.7 768 64.8C810.7 67 853.3 72 896 70.2C938.7 68.3 981.3 59.7 1024 54C1066.7 48.3 1109.3 45.7 1152 51.7C1194.7 57.7 1237.3 72.3 1280 75.5C1322.7 78.7 1365.3 70.3 1408 66.2C1450.7 62 1493.3 62 1536 60.3C1578.7 58.7 1621.3 55.3 1664 52.7C1706.7 50 1749.3 48 1792 47.5C1834.7 47 1877.3 48 1898.7 48.5L1920 49L1920 0L1898.7 0C1877.3 0 1834.7 0 1792 0C1749.3 0 1706.7 0 1664 0C1621.3 0 1578.7 0 1536 0C1493.3 0 1450.7 0 1408 0C1365.3 0 1322.7 0 1280 0C1237.3 0 1194.7 0 1152 0C1109.3 0 1066.7 0 1024 0C981.3 0 938.7 0 896 0C853.3 0 810.7 0 768 0C725.3 0 682.7 0 640 0C597.3 0 554.7 0 512 0C469.3 0 426.7 0 384 0C341.3 0 298.7 0 256 0C213.3 0 170.7 0 128 0C85.3 0 42.7 0 21.3 0L0 0Z" fill="#eb533c"></path><path d="M0 25L21.3 22.3C42.7 19.7 85.3 14.3 128 15.3C170.7 16.3 213.3 23.7 256 28.2C298.7 32.7 341.3 34.3 384 31.3C426.7 28.3 469.3 20.7 512 21.7C554.7 22.7 597.3 32.3 640 34C682.7 35.7 725.3 29.3 768 30.3C810.7 31.3 853.3 39.7 896 43.2C938.7 46.7 981.3 45.3 1024 42.8C1066.7 40.3 1109.3 36.7 1152 32.7C1194.7 28.7 1237.3 24.3 1280 25.7C1322.7 27 1365.3 34 1408 34.2C1450.7 34.3 1493.3 27.7 1536 26.7C1578.7 25.7 1621.3 30.3 1664 29.5C1706.7 28.7 1749.3 22.3 1792 21.8C1834.7 21.3 1877.3 26.7 1898.7 29.3L1920 32L1920 0L1898.7 0C1877.3 0 1834.7 0 1792 0C1749.3 0 1706.7 0 1664 0C1621.3 0 1578.7 0 1536 0C1493.3 0 1450.7 0 1408 0C1365.3 0 1322.7 0 1280 0C1237.3 0 1194.7 0 1152 0C1109.3 0 1066.7 0 1024 0C981.3 0 938.7 0 896 0C853.3 0 810.7 0 768 0C725.3 0 682.7 0 640 0C597.3 0 554.7 0 512 0C469.3 0 426.7 0 384 0C341.3 0 298.7 0 256 0C213.3 0 170.7 0 128 0C85.3 0 42.7 0 21.3 0L0 0Z" fill="#f57c00"></path></svg>