<svg id="visual" viewBox="0 0 1920 300" width="1920" height="300" xmlns="http://www.w3.org/2000/svg" xmlns:xlink="http://www.w3.org/1999/xlink" version="1.1"><rect x="0" y="0" width="1920" height="300" fill="#001220"></rect><path d="M0 271L22.8 267.2C45.7 263.3 91.3 255.7 137 255.8C182.7 256 228.3 264 274 263.3C319.7 262.7 365.3 253.3 411.2 253.8C457 254.3 503 264.7 548.8 271.7C594.7 278.7 640.3 282.3 686 282.3C731.7 282.3 777.3 278.7 823 276.7C868.7 274.7 914.3 274.3 960 274.5C1005.7 274.7 1051.3 275.3 1097 277.3C1142.7 279.3 1188.3 282.7 1234 278.5C1279.7 274.3 1325.3 262.7 1371.2 263.3C1417 264 1463 277 1508.8 281C1554.7 285 1600.3 280 1646 277.3C1691.7 274.7 1737.3 274.3 1783 274.7C1828.7 275 1874.3 276 1897.2 276.5L1920 277L1920 0L1897.2 0C1874.3 0 1828.7 0 1783 0C1737.3 0 1691.7 0 1646 0C1600.3 0 1554.7 0 1508.8 0C1463 0 1417 0 1371.2 0C1325.3 0 1279.7 0 1234 0C1188.3 0 1142.7 0 1097 0C1051.3 0 1005.7 0 960 0C914.3 0 868.7 0 823 0C777.3 0 731.7 0 686 0C640.3 0 594.7 0 548.8 0C503 0 457 0 411.2 0C365.3 0 319.7 0 274 0C228.3 0 182.7 0 137 0C91.3 0 45.7 0 22.8 0L0 0Z" fill="#001220"></path><path d="M0 212L22.8 211.7C45.7 211.3 91.3 210.7 137 210.8C182.7 211 228.3 212 274 219.5C319.7 227 365.3 241 411.2 241.3C457 241.7 503 228.3 548.8 228.7C594.7 229 640.3 243 686 247.5C731.7 252 777.3 247 823 244.2C868.7 241.3 914.3 240.7 960 236C1005.7 231.3 1051.3 222.7 1097 222C1142.7 221.3 1188.3 228.7 1234 233.3C1279.7 238 1325.3 240 1371.2 239.2C1417 238.3 1463 234.7 1508.8 234.3C1554.7 234 1600.3 237 1646 236.7C1691.7 236.3 1737.3 232.7 1783 227.7C1828.7 222.7 1874.3 216.3 1897.2 213.2L1920 210L1920 0L1897.2 0C1874.3 0 1828.7 0 1783 0C1737.3 0 1691.7 0 1646 0C1600.3 0 1554.7 0 1508.8 0C1463 0 1417 0 1371.2 0C1325.3 0 1279.7 0 1234 0C1188.3 0 1142.7 0 1097 0C1051.3 0 1005.7 0 960 0C914.3 0 868.7 0 823 0C777.3 0 731.7 0 686 0C640.3 0 594.7 0 548.8 0C503 0 457 0 411.2 0C365.3 0 319.7 0 274 0C228.3 0 182.7 0 137 0C91.3 0 45.7 0 22.8 0L0 0Z" fill="#222e3b"></path><path d="M0 220L22.8 219.3C45.7 218.7 91.3 217.3 137 210C182.7 202.7 228.3 189.3 274 185.5C319.7 181.7 365.3 187.3 411.2 189.5C457 191.7 503 190.3 548.8 194.3C594.7 198.3 640.3 207.7 686 208C731.7 208.3 777.3 199.7 823 199C868.7 198.3 914.3 205.7 960 206.3C1005.7 207 1051.3 201 1097 202C1142.7 203 1188.3 211 1234 211.2C1279.7 211.3 1325.3 203.7 1371.2 200C1417 196.3 1463 196.7 1508.8 201.5C1554.7 206.3 1600.3 215.7 1646 215.2C1691.7 214.7 1737.3 204.3 1783 197.5C1828.7 190.7 1874.3 187.3 1897.2 185.7L1920 184L1920 0L1897.2 0C1874.3 0 1828.7 0 1783 0C1737.3 0 1691.7 0 1646 0C1600.3 0 1554.7 0 1508.8 0C1463 0 1417 0 1371.2 0C1325.3 0 1279.7 0 1234 0C1188.3 0 1142.7 0 1097 0C1051.3 0 1005.7 0 960 0C914.3 0 868.7 0 823 0C777.3 0 731.7 0 686 0C640.3 0 594.7 0 548.8 0C503 0 457 0 411.2 0C365.3 0 319.7 0 274 0C228.3 0 182.7 0 137 0C91.3 0 45.7 0 22.8 0L0 0Z" fill="#434c58"></path><path d="M0 185L22.8 185C45.7 185 91.3 185 137 179.3C182.7 173.7 228.3 162.3 274 161.2C319.7 160 365.3 169 411.2 168.5C457 168 503 158 548.8 157.3C594.7 156.7 640.3 165.3 686 171.7C731.7 178 777.3 182 823 178.3C868.7 174.7 914.3 163.3 960 158.3C1005.7 153.3 1051.3 154.7 1097 158.8C1142.7 163 1188.3 170 1234 170.2C1279.7 170.3 1325.3 163.7 1371.2 159.7C1417 155.7 1463 154.3 1508.8 158.7C1554.7 163 1600.3 173 1646 179.3C1691.7 185.7 1737.3 188.3 1783 187.2C1828.7 186 1874.3 181 1897.2 178.5L1920 176L1920 0L1897.2 0C1874.3 0 1828.7 0 1783 0C1737.3 0 1691.7 0 1646 0C1600.3 0 1554.7 0 1508.8 0C1463 0 1417 0 1371.2 0C1325.3 0 1279.7 0 1234 0C1188.3 0 1142.7 0 1097 0C1051.3 0 1005.7 0 960 0C914.3 0 868.7 0 823 0C777.3 0 731.7 0 686 0C640.3 0 594.7 0 548.8 0C503 0 457 0 411.2 0C365.3 0 319.7 0 274 0C228.3 0 182.7 0 137 0C91.3 0 45.7 0 22.8 0L0 0Z" fill="#656d77"></path><path d="M0 129L22.8 129.3C45.7 129.7 91.3 130.3 137 127.2C182.7 124 228.3 117 274 113.2C319.7 109.3 365.3 108.7 411.2 109C457 109.3 503 110.7 548.8 117C594.7 123.3 640.3 134.7 686 138C731.7 141.3 777.3 136.7 823 131C868.7 125.3 914.3 118.7 960 116C1005.7 113.3 1051.3 114.7 1097 121.2C1142.7 127.7 1188.3 139.3 1234 141.2C1279.7 143 1325.3 135 1371.2 129.5C1417 124 1463 121 1508.8 119.2C1554.7 117.3 1600.3 116.7 1646 115C1691.7 113.3 1737.3 110.7 1783 111.3C1828.7 112 1874.3 116 1897.2 118L1920 120L1920 0L1897.2 0C1874.3 0 1828.7 0 1783 0C1737.3 0 1691.7 0 1646 0C1600.3 0 1554.7 0 1508.8 0C1463 0 1417 0 1371.2 0C1325.3 0 1279.7 0 1234 0C1188.3 0 1142.7 0 1097 0C1051.3 0 1005.7 0 960 0C914.3 0 868.7 0 823 0C777.3 0 731.7 0 686 0C640.3 0 594.7 0 548.8 0C503 0 457 0 411.2 0C365.3 0 319.7 0 274 0C228.3 0 182.7 0 137 0C91.3 0 45.7 0 22.8 0L0 0Z" fill="#898f97"></path><path d="M0 75L22.8 78.5C45.7 82 91.3 89 137 95C182.7 101 228.3 106 274 109.2C319.7 112.3 365.3 113.7 411.2 109.7C457 105.7 503 96.3 548.8 91.8C594.7 87.3 640.3 87.7 686 92.5C731.7 97.3 777.3 106.7 823 110.5C868.7 114.3 914.3 112.7 960 107.3C1005.7 102 1051.3 93 1097 87C1142.7 81 1188.3 78 1234 77.8C1279.7 77.7 1325.3 80.3 1371.2 85C1417 89.7 1463 96.3 1508.8 103.3C1554.7 110.3 1600.3 117.7 1646 114.7C1691.7 111.7 1737.3 98.3 1783 93.7C1828.7 89 1874.3 93 1897.2 95L1920 97L1920 0L1897.2 0C1874.3 0 1828.7 0 1783 0C1737.3 0 1691.7 0 1646 0C1600.3 0 1554.7 0 1508.8 0C1463 0 1417 0 1371.2 0C1325.3 0 1279.7 0 1234 0C1188.3 0 1142.7 0 1097 0C1051.3 0 1005.7 0 960 0C914.3 0 868.7 0 823 0C777.3 0 731.7 0 686 0C640.3 0 594.7 0 548.8 0C503 0 457 0 411.2 0C365.3 0 319.7 0 274 0C228.3 0 182.7 0 137 0C91.3 0 45.7 0 22.8 0L0 0Z" fill="#afb3b9"></path><path d="M0 55L22.8 56.5C45.7 58 91.3 61 137 63.2C182.7 65.3 228.3 66.7 274 67.3C319.7 68 365.3 68 411.2 65.8C457 63.7 503 59.3 548.8 57.2C594.7 55 640.3 55 686 54.3C731.7 53.7 777.3 52.3 823 55.8C868.7 59.3 914.3 67.7 960 69.3C1005.7 71 1051.3 66 1097 60.8C1142.7 55.7 1188.3 50.3 1234 54.3C1279.7 58.3 1325.3 71.7 1371.2 77.2C1417 82.7 1463 80.3 1508.8 76C1554.7 71.7 1600.3 65.3 1646 65.3C1691.7 65.3 1737.3 71.7 1783 75.5C1828.7 79.3 1874.3 80.7 1897.2 81.3L1920 82L1920 0L1897.2 0C1874.3 0 1828.7 0 1783 0C1737.3 0 1691.7 0 1646 0C1600.3 0 1554.7 0 1508.8 0C1463 0 1417 0 1371.2 0C1325.3 0 1279.7 0 1234 0C1188.3 0 1142.7 0 1097 0C1051.3 0 1005.7 0 960 0C914.3 0 868.7 0 823 0C777.3 0 731.7 0 686 0C640.3 0 594.7 0 548.8 0C503 0 457 0 411.2 0C365.3 0 319.7 0 274 0C228.3 0 182.7 0 137 0C91.3 0 45.7 0 22.8 0L0 0Z" fill="#d6d8db"></path><path d="M0 47L22.8 47C45.7 47 91.3 47 137 42.3C182.7 37.7 228.3 28.3 274 29.8C319.7 31.3 365.3 43.7 411.2 43C457 42.3 503 28.7 548.8 26.5C594.7 24.3 640.3 33.7 686 37.8C731.7 42 777.3 41 823 42C868.7 43 914.3 46 960 47.7C1005.7 49.3 1051.3 49.7 1097 44.5C1142.7 39.3 1188.3 28.7 1234 22.2C1279.7 15.7 1325.3 13.3 1371.2 13.7C1417 14 1463 17 1508.8 23C1554.7 29 1600.3 38 1646 43C1691.7 48 1737.3 49 1783 42.8C1828.7 36.7 1874.3 23.3 1897.2 16.7L1920 10L1920 0L1897.2 0C1874.3 0 1828.7 0 1783 0C1737.3 0 1691.7 0 1646 0C1600.3 0 1554.7 0 1508.8 0C1463 0 1417 0 1371.2 0C1325.3 0 1279.7 0 1234 0C1188.3 0 1142.7 0 1097 0C1051.3 0 1005.7 0 960 0C914.3 0 868.7 0 823 0C777.3 0 731.7 0 686 0C640.3 0 594.7 0 548.8 0C503 0 457 0 411.2 0C365.3 0 319.7 0 274 0C228.3 0 182.7 0 137 0C91.3 0 45.7 0 22.8 0L0 0Z" fill="#ffffff"></path></svg>