<svg
  id="visual"
  viewBox="0 0 1920 400"
  width="1920"
  height="400"
  xmlns="http://www.w3.org/2000/svg"
  xmlns:xlink="http://www.w3.org/1999/xlink"
  version="1.1"
>
  <rect x="0" y="0" width="1920" height="400" fill="#001220"></rect>
  <path
    d="M0 375L13.8 371.8C27.7 368.7 55.3 362.3 83.2 358.5C111 354.7 139 353.3 166.8 351.7C194.7 350 222.3 348 250.2 347.8C278 347.7 306 349.3 333.8 346.2C361.7 343 389.3 335 417.2 331.8C445 328.7 473 330.3 500.8 329.7C528.7 329 556.3 326 584.2 328.3C612 330.7 640 338.3 667.8 337.8C695.7 337.3 723.3 328.7 751.2 328.8C779 329 807 338 834.8 339C862.7 340 890.3 333 918.2 330.7C946 328.3 974 330.7 1001.8 329.8C1029.7 329 1057.3 325 1085.2 323.2C1113 321.3 1141 321.7 1168.8 327.3C1196.7 333 1224.3 344 1252.2 346.8C1280 349.7 1308 344.3 1335.8 341.8C1363.7 339.3 1391.3 339.7 1419.2 337.8C1447 336 1475 332 1502.8 332.5C1530.7 333 1558.3 338 1586.2 346.3C1614 354.7 1642 366.3 1669.8 371.3C1697.7 376.3 1725.3 374.7 1753.2 372.2C1781 369.7 1809 366.3 1836.8 361.8C1864.7 357.3 1892.3 351.7 1906.2 348.8L1920 346L1920 0L1906.2 0C1892.3 0 1864.7 0 1836.8 0C1809 0 1781 0 1753.2 0C1725.3 0 1697.7 0 1669.8 0C1642 0 1614 0 1586.2 0C1558.3 0 1530.7 0 1502.8 0C1475 0 1447 0 1419.2 0C1391.3 0 1363.7 0 1335.8 0C1308 0 1280 0 1252.2 0C1224.3 0 1196.7 0 1168.8 0C1141 0 1113 0 1085.2 0C1057.3 0 1029.7 0 1001.8 0C974 0 946 0 918.2 0C890.3 0 862.7 0 834.8 0C807 0 779 0 751.2 0C723.3 0 695.7 0 667.8 0C640 0 612 0 584.2 0C556.3 0 528.7 0 500.8 0C473 0 445 0 417.2 0C389.3 0 361.7 0 333.8 0C306 0 278 0 250.2 0C222.3 0 194.7 0 166.8 0C139 0 111 0 83.2 0C55.3 0 27.7 0 13.8 0L0 0Z"
    fill="#001220"
  ></path>
  <path
    d="M0 278L13.8 276.8C27.7 275.7 55.3 273.3 83.2 280.8C111 288.3 139 305.7 166.8 315C194.7 324.3 222.3 325.7 250.2 321C278 316.3 306 305.7 333.8 298.7C361.7 291.7 389.3 288.3 417.2 291C445 293.7 473 302.3 500.8 308.3C528.7 314.3 556.3 317.7 584.2 311.5C612 305.3 640 289.7 667.8 284C695.7 278.3 723.3 282.7 751.2 283.7C779 284.7 807 282.3 834.8 279.5C862.7 276.7 890.3 273.3 918.2 274.2C946 275 974 280 1001.8 285.5C1029.7 291 1057.3 297 1085.2 302.3C1113 307.7 1141 312.3 1168.8 309C1196.7 305.7 1224.3 294.3 1252.2 289.2C1280 284 1308 285 1335.8 284.2C1363.7 283.3 1391.3 280.7 1419.2 286.8C1447 293 1475 308 1502.8 307C1530.7 306 1558.3 289 1586.2 288.5C1614 288 1642 304 1669.8 307.7C1697.7 311.3 1725.3 302.7 1753.2 298.7C1781 294.7 1809 295.3 1836.8 300.5C1864.7 305.7 1892.3 315.3 1906.2 320.2L1920 325L1920 0L1906.2 0C1892.3 0 1864.7 0 1836.8 0C1809 0 1781 0 1753.2 0C1725.3 0 1697.7 0 1669.8 0C1642 0 1614 0 1586.2 0C1558.3 0 1530.7 0 1502.8 0C1475 0 1447 0 1419.2 0C1391.3 0 1363.7 0 1335.8 0C1308 0 1280 0 1252.2 0C1224.3 0 1196.7 0 1168.8 0C1141 0 1113 0 1085.2 0C1057.3 0 1029.7 0 1001.8 0C974 0 946 0 918.2 0C890.3 0 862.7 0 834.8 0C807 0 779 0 751.2 0C723.3 0 695.7 0 667.8 0C640 0 612 0 584.2 0C556.3 0 528.7 0 500.8 0C473 0 445 0 417.2 0C389.3 0 361.7 0 333.8 0C306 0 278 0 250.2 0C222.3 0 194.7 0 166.8 0C139 0 111 0 83.2 0C55.3 0 27.7 0 13.8 0L0 0Z"
    fill="#002342"
  ></path>
  <path
    d="M0 271L13.8 272.2C27.7 273.3 55.3 275.7 83.2 269.3C111 263 139 248 166.8 242.7C194.7 237.3 222.3 241.7 250.2 244C278 246.3 306 246.7 333.8 250.8C361.7 255 389.3 263 417.2 262.2C445 261.3 473 251.7 500.8 244C528.7 236.3 556.3 230.7 584.2 233.8C612 237 640 249 667.8 249.7C695.7 250.3 723.3 239.7 751.2 242C779 244.3 807 259.7 834.8 259.8C862.7 260 890.3 245 918.2 239C946 233 974 236 1001.8 241.7C1029.7 247.3 1057.3 255.7 1085.2 261.7C1113 267.7 1141 271.3 1168.8 273.8C1196.7 276.3 1224.3 277.7 1252.2 272.8C1280 268 1308 257 1335.8 253.2C1363.7 249.3 1391.3 252.7 1419.2 248.3C1447 244 1475 232 1502.8 231.7C1530.7 231.3 1558.3 242.7 1586.2 243.8C1614 245 1642 236 1669.8 233.5C1697.7 231 1725.3 235 1753.2 238.5C1781 242 1809 245 1836.8 244.7C1864.7 244.3 1892.3 240.7 1906.2 238.8L1920 237L1920 0L1906.2 0C1892.3 0 1864.7 0 1836.8 0C1809 0 1781 0 1753.2 0C1725.3 0 1697.7 0 1669.8 0C1642 0 1614 0 1586.2 0C1558.3 0 1530.7 0 1502.8 0C1475 0 1447 0 1419.2 0C1391.3 0 1363.7 0 1335.8 0C1308 0 1280 0 1252.2 0C1224.3 0 1196.7 0 1168.8 0C1141 0 1113 0 1085.2 0C1057.3 0 1029.7 0 1001.8 0C974 0 946 0 918.2 0C890.3 0 862.7 0 834.8 0C807 0 779 0 751.2 0C723.3 0 695.7 0 667.8 0C640 0 612 0 584.2 0C556.3 0 528.7 0 500.8 0C473 0 445 0 417.2 0C389.3 0 361.7 0 333.8 0C306 0 278 0 250.2 0C222.3 0 194.7 0 166.8 0C139 0 111 0 83.2 0C55.3 0 27.7 0 13.8 0L0 0Z"
    fill="#003266"
  ></path>
  <path
    d="M0 209L13.8 208.3C27.7 207.7 55.3 206.3 83.2 200C111 193.7 139 182.3 166.8 182.7C194.7 183 222.3 195 250.2 195.3C278 195.7 306 184.3 333.8 183.8C361.7 183.3 389.3 193.7 417.2 198.7C445 203.7 473 203.3 500.8 197.5C528.7 191.7 556.3 180.3 584.2 177C612 173.7 640 178.3 667.8 178.5C695.7 178.7 723.3 174.3 751.2 176.3C779 178.3 807 186.7 834.8 188.8C862.7 191 890.3 187 918.2 191C946 195 974 207 1001.8 205.3C1029.7 203.7 1057.3 188.3 1085.2 189.2C1113 190 1141 207 1168.8 215.2C1196.7 223.3 1224.3 222.7 1252.2 218.3C1280 214 1308 206 1335.8 199.3C1363.7 192.7 1391.3 187.3 1419.2 188C1447 188.7 1475 195.3 1502.8 200.2C1530.7 205 1558.3 208 1586.2 206.7C1614 205.3 1642 199.7 1669.8 198.8C1697.7 198 1725.3 202 1753.2 201.8C1781 201.7 1809 197.3 1836.8 196.3C1864.7 195.3 1892.3 197.7 1906.2 198.8L1920 200L1920 0L1906.2 0C1892.3 0 1864.7 0 1836.8 0C1809 0 1781 0 1753.2 0C1725.3 0 1697.7 0 1669.8 0C1642 0 1614 0 1586.2 0C1558.3 0 1530.7 0 1502.8 0C1475 0 1447 0 1419.2 0C1391.3 0 1363.7 0 1335.8 0C1308 0 1280 0 1252.2 0C1224.3 0 1196.7 0 1168.8 0C1141 0 1113 0 1085.2 0C1057.3 0 1029.7 0 1001.8 0C974 0 946 0 918.2 0C890.3 0 862.7 0 834.8 0C807 0 779 0 751.2 0C723.3 0 695.7 0 667.8 0C640 0 612 0 584.2 0C556.3 0 528.7 0 500.8 0C473 0 445 0 417.2 0C389.3 0 361.7 0 333.8 0C306 0 278 0 250.2 0C222.3 0 194.7 0 166.8 0C139 0 111 0 83.2 0C55.3 0 27.7 0 13.8 0L0 0Z"
    fill="#00408b"
  ></path>
  <path
    d="M0 148L13.8 151.7C27.7 155.3 55.3 162.7 83.2 161.7C111 160.7 139 151.3 166.8 146.2C194.7 141 222.3 140 250.2 139C278 138 306 137 333.8 139.7C361.7 142.3 389.3 148.7 417.2 147.7C445 146.7 473 138.3 500.8 135.2C528.7 132 556.3 134 584.2 133C612 132 640 128 667.8 130.8C695.7 133.7 723.3 143.3 751.2 150.2C779 157 807 161 834.8 161.7C862.7 162.3 890.3 159.7 918.2 153C946 146.3 974 135.7 1001.8 129.5C1029.7 123.3 1057.3 121.7 1085.2 126.2C1113 130.7 1141 141.3 1168.8 147C1196.7 152.7 1224.3 153.3 1252.2 150.8C1280 148.3 1308 142.7 1335.8 141.7C1363.7 140.7 1391.3 144.3 1419.2 144C1447 143.7 1475 139.3 1502.8 134.8C1530.7 130.3 1558.3 125.7 1586.2 127.2C1614 128.7 1642 136.3 1669.8 144C1697.7 151.7 1725.3 159.3 1753.2 158.2C1781 157 1809 147 1836.8 143.3C1864.7 139.7 1892.3 142.3 1906.2 143.7L1920 145L1920 0L1906.2 0C1892.3 0 1864.7 0 1836.8 0C1809 0 1781 0 1753.2 0C1725.3 0 1697.7 0 1669.8 0C1642 0 1614 0 1586.2 0C1558.3 0 1530.7 0 1502.8 0C1475 0 1447 0 1419.2 0C1391.3 0 1363.7 0 1335.8 0C1308 0 1280 0 1252.2 0C1224.3 0 1196.7 0 1168.8 0C1141 0 1113 0 1085.2 0C1057.3 0 1029.7 0 1001.8 0C974 0 946 0 918.2 0C890.3 0 862.7 0 834.8 0C807 0 779 0 751.2 0C723.3 0 695.7 0 667.8 0C640 0 612 0 584.2 0C556.3 0 528.7 0 500.8 0C473 0 445 0 417.2 0C389.3 0 361.7 0 333.8 0C306 0 278 0 250.2 0C222.3 0 194.7 0 166.8 0C139 0 111 0 83.2 0C55.3 0 27.7 0 13.8 0L0 0Z"
    fill="#004db1"
  ></path>
  <path
    d="M0 76L13.8 78.5C27.7 81 55.3 86 83.2 88C111 90 139 89 166.8 89.5C194.7 90 222.3 92 250.2 98C278 104 306 114 333.8 119.7C361.7 125.3 389.3 126.7 417.2 125.5C445 124.3 473 120.7 500.8 116C528.7 111.3 556.3 105.7 584.2 98.8C612 92 640 84 667.8 80.3C695.7 76.7 723.3 77.3 751.2 85.7C779 94 807 110 834.8 116.8C862.7 123.7 890.3 121.3 918.2 113.3C946 105.3 974 91.7 1001.8 83.3C1029.7 75 1057.3 72 1085.2 79C1113 86 1141 103 1168.8 112.3C1196.7 121.7 1224.3 123.3 1252.2 120.2C1280 117 1308 109 1335.8 104C1363.7 99 1391.3 97 1419.2 93.8C1447 90.7 1475 86.3 1502.8 86.3C1530.7 86.3 1558.3 90.7 1586.2 98.3C1614 106 1642 117 1669.8 115C1697.7 113 1725.3 98 1753.2 93C1781 88 1809 93 1836.8 90.8C1864.7 88.7 1892.3 79.3 1906.2 74.7L1920 70L1920 0L1906.2 0C1892.3 0 1864.7 0 1836.8 0C1809 0 1781 0 1753.2 0C1725.3 0 1697.7 0 1669.8 0C1642 0 1614 0 1586.2 0C1558.3 0 1530.7 0 1502.8 0C1475 0 1447 0 1419.2 0C1391.3 0 1363.7 0 1335.8 0C1308 0 1280 0 1252.2 0C1224.3 0 1196.7 0 1168.8 0C1141 0 1113 0 1085.2 0C1057.3 0 1029.7 0 1001.8 0C974 0 946 0 918.2 0C890.3 0 862.7 0 834.8 0C807 0 779 0 751.2 0C723.3 0 695.7 0 667.8 0C640 0 612 0 584.2 0C556.3 0 528.7 0 500.8 0C473 0 445 0 417.2 0C389.3 0 361.7 0 333.8 0C306 0 278 0 250.2 0C222.3 0 194.7 0 166.8 0C139 0 111 0 83.2 0C55.3 0 27.7 0 13.8 0L0 0Z"
    fill="#005ad8"
  ></path>
  <path
    d="M0 34L13.8 40.8C27.7 47.7 55.3 61.3 83.2 68.2C111 75 139 75 166.8 69.5C194.7 64 222.3 53 250.2 50.3C278 47.7 306 53.3 333.8 57.5C361.7 61.7 389.3 64.3 417.2 66.5C445 68.7 473 70.3 500.8 62.7C528.7 55 556.3 38 584.2 37.3C612 36.7 640 52.3 667.8 57.2C695.7 62 723.3 56 751.2 53C779 50 807 50 834.8 51C862.7 52 890.3 54 918.2 49.2C946 44.3 974 32.7 1001.8 34.7C1029.7 36.7 1057.3 52.3 1085.2 60.8C1113 69.3 1141 70.7 1168.8 66.7C1196.7 62.7 1224.3 53.3 1252.2 53.7C1280 54 1308 64 1335.8 63.8C1363.7 63.7 1391.3 53.3 1419.2 51C1447 48.7 1475 54.3 1502.8 57.2C1530.7 60 1558.3 60 1586.2 56.8C1614 53.7 1642 47.3 1669.8 44C1697.7 40.7 1725.3 40.3 1753.2 36.8C1781 33.3 1809 26.7 1836.8 24.3C1864.7 22 1892.3 24 1906.2 25L1920 26L1920 0L1906.2 0C1892.3 0 1864.7 0 1836.8 0C1809 0 1781 0 1753.2 0C1725.3 0 1697.7 0 1669.8 0C1642 0 1614 0 1586.2 0C1558.3 0 1530.7 0 1502.8 0C1475 0 1447 0 1419.2 0C1391.3 0 1363.7 0 1335.8 0C1308 0 1280 0 1252.2 0C1224.3 0 1196.7 0 1168.8 0C1141 0 1113 0 1085.2 0C1057.3 0 1029.7 0 1001.8 0C974 0 946 0 918.2 0C890.3 0 862.7 0 834.8 0C807 0 779 0 751.2 0C723.3 0 695.7 0 667.8 0C640 0 612 0 584.2 0C556.3 0 528.7 0 500.8 0C473 0 445 0 417.2 0C389.3 0 361.7 0 333.8 0C306 0 278 0 250.2 0C222.3 0 194.7 0 166.8 0C139 0 111 0 83.2 0C55.3 0 27.7 0 13.8 0L0 0Z"
    fill="#0066ff"
  ></path>
</svg>
