<svg id="visual" viewBox="0 0 1920 300" width="1920" height="300" xmlns="http://www.w3.org/2000/svg" xmlns:xlink="http://www.w3.org/1999/xlink" version="1.1"><rect x="0" y="0" width="1920" height="300" fill="#0066ff"></rect><path d="M0 8L22.8 9C45.7 10 91.3 12 137 19.7C182.7 27.3 228.3 40.7 274 40.8C319.7 41 365.3 28 411.2 21.3C457 14.7 503 14.3 548.8 21.2C594.7 28 640.3 42 686 47.8C731.7 53.7 777.3 51.3 823 46.3C868.7 41.3 914.3 33.7 960 29.3C1005.7 25 1051.3 24 1097 23.7C1142.7 23.3 1188.3 23.7 1234 22.7C1279.7 21.7 1325.3 19.3 1371.2 20.3C1417 21.3 1463 25.7 1508.8 26.7C1554.7 27.7 1600.3 25.3 1646 29.5C1691.7 33.7 1737.3 44.3 1783 47.8C1828.7 51.3 1874.3 47.7 1897.2 45.8L1920 44L1920 301L1897.2 301C1874.3 301 1828.7 301 1783 301C1737.3 301 1691.7 301 1646 301C1600.3 301 1554.7 301 1508.8 301C1463 301 1417 301 1371.2 301C1325.3 301 1279.7 301 1234 301C1188.3 301 1142.7 301 1097 301C1051.3 301 1005.7 301 960 301C914.3 301 868.7 301 823 301C777.3 301 731.7 301 686 301C640.3 301 594.7 301 548.8 301C503 301 457 301 411.2 301C365.3 301 319.7 301 274 301C228.3 301 182.7 301 137 301C91.3 301 45.7 301 22.8 301L0 301Z" fill="#0066ff"></path><path d="M0 47L22.8 49.7C45.7 52.3 91.3 57.7 137 64.2C182.7 70.7 228.3 78.3 274 76.2C319.7 74 365.3 62 411.2 61.2C457 60.3 503 70.7 548.8 73C594.7 75.3 640.3 69.7 686 65.5C731.7 61.3 777.3 58.7 823 61.8C868.7 65 914.3 74 960 74.5C1005.7 75 1051.3 67 1097 67.2C1142.7 67.3 1188.3 75.7 1234 81C1279.7 86.3 1325.3 88.7 1371.2 81.5C1417 74.3 1463 57.7 1508.8 55C1554.7 52.3 1600.3 63.7 1646 65.7C1691.7 67.7 1737.3 60.3 1783 61.2C1828.7 62 1874.3 71 1897.2 75.5L1920 80L1920 301L1897.2 301C1874.3 301 1828.7 301 1783 301C1737.3 301 1691.7 301 1646 301C1600.3 301 1554.7 301 1508.8 301C1463 301 1417 301 1371.2 301C1325.3 301 1279.7 301 1234 301C1188.3 301 1142.7 301 1097 301C1051.3 301 1005.7 301 960 301C914.3 301 868.7 301 823 301C777.3 301 731.7 301 686 301C640.3 301 594.7 301 548.8 301C503 301 457 301 411.2 301C365.3 301 319.7 301 274 301C228.3 301 182.7 301 137 301C91.3 301 45.7 301 22.8 301L0 301Z" fill="#005cdd"></path><path d="M0 119L22.8 113.8C45.7 108.7 91.3 98.3 137 93C182.7 87.7 228.3 87.3 274 90.7C319.7 94 365.3 101 411.2 103.5C457 106 503 104 548.8 106C594.7 108 640.3 114 686 113.7C731.7 113.3 777.3 106.7 823 101C868.7 95.3 914.3 90.7 960 94.8C1005.7 99 1051.3 112 1097 114.3C1142.7 116.7 1188.3 108.3 1234 102.3C1279.7 96.3 1325.3 92.7 1371.2 92C1417 91.3 1463 93.7 1508.8 92.5C1554.7 91.3 1600.3 86.7 1646 83.3C1691.7 80 1737.3 78 1783 81.3C1828.7 84.7 1874.3 93.3 1897.2 97.7L1920 102L1920 301L1897.2 301C1874.3 301 1828.7 301 1783 301C1737.3 301 1691.7 301 1646 301C1600.3 301 1554.7 301 1508.8 301C1463 301 1417 301 1371.2 301C1325.3 301 1279.7 301 1234 301C1188.3 301 1142.7 301 1097 301C1051.3 301 1005.7 301 960 301C914.3 301 868.7 301 823 301C777.3 301 731.7 301 686 301C640.3 301 594.7 301 548.8 301C503 301 457 301 411.2 301C365.3 301 319.7 301 274 301C228.3 301 182.7 301 137 301C91.3 301 45.7 301 22.8 301L0 301Z" fill="#0051bc"></path><path d="M0 125L22.8 123.5C45.7 122 91.3 119 137 116C182.7 113 228.3 110 274 113.5C319.7 117 365.3 127 411.2 129.2C457 131.3 503 125.7 548.8 123.2C594.7 120.7 640.3 121.3 686 120.7C731.7 120 777.3 118 823 121.3C868.7 124.7 914.3 133.3 960 139.7C1005.7 146 1051.3 150 1097 152C1142.7 154 1188.3 154 1234 151.3C1279.7 148.7 1325.3 143.3 1371.2 138.3C1417 133.3 1463 128.7 1508.8 126.3C1554.7 124 1600.3 124 1646 127.8C1691.7 131.7 1737.3 139.3 1783 143.5C1828.7 147.7 1874.3 148.3 1897.2 148.7L1920 149L1920 301L1897.2 301C1874.3 301 1828.7 301 1783 301C1737.3 301 1691.7 301 1646 301C1600.3 301 1554.7 301 1508.8 301C1463 301 1417 301 1371.2 301C1325.3 301 1279.7 301 1234 301C1188.3 301 1142.7 301 1097 301C1051.3 301 1005.7 301 960 301C914.3 301 868.7 301 823 301C777.3 301 731.7 301 686 301C640.3 301 594.7 301 548.8 301C503 301 457 301 411.2 301C365.3 301 319.7 301 274 301C228.3 301 182.7 301 137 301C91.3 301 45.7 301 22.8 301L0 301Z" fill="#00469b"></path><path d="M0 182L22.8 183.7C45.7 185.3 91.3 188.7 137 182.8C182.7 177 228.3 162 274 160.3C319.7 158.7 365.3 170.3 411.2 175.3C457 180.3 503 178.7 548.8 173.2C594.7 167.7 640.3 158.3 686 155.5C731.7 152.7 777.3 156.3 823 159.7C868.7 163 914.3 166 960 167.2C1005.7 168.3 1051.3 167.7 1097 170.8C1142.7 174 1188.3 181 1234 177.8C1279.7 174.7 1325.3 161.3 1371.2 162C1417 162.7 1463 177.3 1508.8 184C1554.7 190.7 1600.3 189.3 1646 182C1691.7 174.7 1737.3 161.3 1783 157.3C1828.7 153.3 1874.3 158.7 1897.2 161.3L1920 164L1920 301L1897.2 301C1874.3 301 1828.7 301 1783 301C1737.3 301 1691.7 301 1646 301C1600.3 301 1554.7 301 1508.8 301C1463 301 1417 301 1371.2 301C1325.3 301 1279.7 301 1234 301C1188.3 301 1142.7 301 1097 301C1051.3 301 1005.7 301 960 301C914.3 301 868.7 301 823 301C777.3 301 731.7 301 686 301C640.3 301 594.7 301 548.8 301C503 301 457 301 411.2 301C365.3 301 319.7 301 274 301C228.3 301 182.7 301 137 301C91.3 301 45.7 301 22.8 301L0 301Z" fill="#003a7b"></path><path d="M0 203L22.8 205.7C45.7 208.3 91.3 213.7 137 216C182.7 218.3 228.3 217.7 274 215.3C319.7 213 365.3 209 411.2 207.3C457 205.7 503 206.3 548.8 207.5C594.7 208.7 640.3 210.3 686 211.3C731.7 212.3 777.3 212.7 823 213.2C868.7 213.7 914.3 214.3 960 212.8C1005.7 211.3 1051.3 207.7 1097 202.3C1142.7 197 1188.3 190 1234 186C1279.7 182 1325.3 181 1371.2 187.2C1417 193.3 1463 206.7 1508.8 207.7C1554.7 208.7 1600.3 197.3 1646 195.3C1691.7 193.3 1737.3 200.7 1783 204C1828.7 207.3 1874.3 206.7 1897.2 206.3L1920 206L1920 301L1897.2 301C1874.3 301 1828.7 301 1783 301C1737.3 301 1691.7 301 1646 301C1600.3 301 1554.7 301 1508.8 301C1463 301 1417 301 1371.2 301C1325.3 301 1279.7 301 1234 301C1188.3 301 1142.7 301 1097 301C1051.3 301 1005.7 301 960 301C914.3 301 868.7 301 823 301C777.3 301 731.7 301 686 301C640.3 301 594.7 301 548.8 301C503 301 457 301 411.2 301C365.3 301 319.7 301 274 301C228.3 301 182.7 301 137 301C91.3 301 45.7 301 22.8 301L0 301Z" fill="#002e5c"></path><path d="M0 224L22.8 223.5C45.7 223 91.3 222 137 221.8C182.7 221.7 228.3 222.3 274 227.8C319.7 233.3 365.3 243.7 411.2 242C457 240.3 503 226.7 548.8 223.7C594.7 220.7 640.3 228.3 686 227.3C731.7 226.3 777.3 216.7 823 217.5C868.7 218.3 914.3 229.7 960 233.3C1005.7 237 1051.3 233 1097 235.5C1142.7 238 1188.3 247 1234 245.5C1279.7 244 1325.3 232 1371.2 227.5C1417 223 1463 226 1508.8 228.7C1554.7 231.3 1600.3 233.7 1646 231.2C1691.7 228.7 1737.3 221.3 1783 219.2C1828.7 217 1874.3 220 1897.2 221.5L1920 223L1920 301L1897.2 301C1874.3 301 1828.7 301 1783 301C1737.3 301 1691.7 301 1646 301C1600.3 301 1554.7 301 1508.8 301C1463 301 1417 301 1371.2 301C1325.3 301 1279.7 301 1234 301C1188.3 301 1142.7 301 1097 301C1051.3 301 1005.7 301 960 301C914.3 301 868.7 301 823 301C777.3 301 731.7 301 686 301C640.3 301 594.7 301 548.8 301C503 301 457 301 411.2 301C365.3 301 319.7 301 274 301C228.3 301 182.7 301 137 301C91.3 301 45.7 301 22.8 301L0 301Z" fill="#00203d"></path><path d="M0 248L22.8 248.8C45.7 249.7 91.3 251.3 137 258.2C182.7 265 228.3 277 274 276C319.7 275 365.3 261 411.2 257.7C457 254.3 503 261.7 548.8 266.3C594.7 271 640.3 273 686 271.5C731.7 270 777.3 265 823 265.8C868.7 266.7 914.3 273.3 960 271.5C1005.7 269.7 1051.3 259.3 1097 257.7C1142.7 256 1188.3 263 1234 263.7C1279.7 264.3 1325.3 258.7 1371.2 262C1417 265.3 1463 277.7 1508.8 276.8C1554.7 276 1600.3 262 1646 261.5C1691.7 261 1737.3 274 1783 280.8C1828.7 287.7 1874.3 288.3 1897.2 288.7L1920 289L1920 301L1897.2 301C1874.3 301 1828.7 301 1783 301C1737.3 301 1691.7 301 1646 301C1600.3 301 1554.7 301 1508.8 301C1463 301 1417 301 1371.2 301C1325.3 301 1279.7 301 1234 301C1188.3 301 1142.7 301 1097 301C1051.3 301 1005.7 301 960 301C914.3 301 868.7 301 823 301C777.3 301 731.7 301 686 301C640.3 301 594.7 301 548.8 301C503 301 457 301 411.2 301C365.3 301 319.7 301 274 301C228.3 301 182.7 301 137 301C91.3 301 45.7 301 22.8 301L0 301Z" fill="#001220"></path></svg>