<svg id="visual" viewBox="0 0 1920 400" width="1920" height="400" xmlns="http://www.w3.org/2000/svg" xmlns:xlink="http://www.w3.org/1999/xlink" version="1.1"><path d="M0 340L22.8 345C45.7 350 91.3 360 137 364C182.7 368 228.3 366 274 359.8C319.7 353.7 365.3 343.3 411.2 341.3C457 339.3 503 345.7 548.8 344.3C594.7 343 640.3 334 686 338C731.7 342 777.3 359 823 358.3C868.7 357.7 914.3 339.3 960 338.8C1005.7 338.3 1051.3 355.7 1097 357.3C1142.7 359 1188.3 345 1234 339.2C1279.7 333.3 1325.3 335.7 1371.2 334.8C1417 334 1463 330 1508.8 329.8C1554.7 329.7 1600.3 333.3 1646 336.7C1691.7 340 1737.3 343 1783 340.2C1828.7 337.3 1874.3 328.7 1897.2 324.3L1920 320L1920 0L1897.2 0C1874.3 0 1828.7 0 1783 0C1737.3 0 1691.7 0 1646 0C1600.3 0 1554.7 0 1508.8 0C1463 0 1417 0 1371.2 0C1325.3 0 1279.7 0 1234 0C1188.3 0 1142.7 0 1097 0C1051.3 0 1005.7 0 960 0C914.3 0 868.7 0 823 0C777.3 0 731.7 0 686 0C640.3 0 594.7 0 548.8 0C503 0 457 0 411.2 0C365.3 0 319.7 0 274 0C228.3 0 182.7 0 137 0C91.3 0 45.7 0 22.8 0L0 0Z" fill="#ffffff"></path><path d="M0 292L22.8 292.3C45.7 292.7 91.3 293.3 137 296C182.7 298.7 228.3 303.3 274 308.5C319.7 313.7 365.3 319.3 411.2 321.7C457 324 503 323 548.8 322.2C594.7 321.3 640.3 320.7 686 317.5C731.7 314.3 777.3 308.7 823 306.3C868.7 304 914.3 305 960 299.7C1005.7 294.3 1051.3 282.7 1097 284.5C1142.7 286.3 1188.3 301.7 1234 302.8C1279.7 304 1325.3 291 1371.2 286C1417 281 1463 284 1508.8 286.7C1554.7 289.3 1600.3 291.7 1646 290.3C1691.7 289 1737.3 284 1783 288C1828.7 292 1874.3 305 1897.2 311.5L1920 318L1920 0L1897.2 0C1874.3 0 1828.7 0 1783 0C1737.3 0 1691.7 0 1646 0C1600.3 0 1554.7 0 1508.8 0C1463 0 1417 0 1371.2 0C1325.3 0 1279.7 0 1234 0C1188.3 0 1142.7 0 1097 0C1051.3 0 1005.7 0 960 0C914.3 0 868.7 0 823 0C777.3 0 731.7 0 686 0C640.3 0 594.7 0 548.8 0C503 0 457 0 411.2 0C365.3 0 319.7 0 274 0C228.3 0 182.7 0 137 0C91.3 0 45.7 0 22.8 0L0 0Z" fill="#ffe5da"></path><path d="M0 257L22.8 257.7C45.7 258.3 91.3 259.7 137 257.7C182.7 255.7 228.3 250.3 274 251.3C319.7 252.3 365.3 259.7 411.2 257.5C457 255.3 503 243.7 548.8 237.7C594.7 231.7 640.3 231.3 686 238.5C731.7 245.7 777.3 260.3 823 259.2C868.7 258 914.3 241 960 237.3C1005.7 233.7 1051.3 243.3 1097 248.5C1142.7 253.7 1188.3 254.3 1234 251C1279.7 247.7 1325.3 240.3 1371.2 234.7C1417 229 1463 225 1508.8 232.2C1554.7 239.3 1600.3 257.7 1646 265C1691.7 272.3 1737.3 268.7 1783 263C1828.7 257.3 1874.3 249.7 1897.2 245.8L1920 242L1920 0L1897.2 0C1874.3 0 1828.7 0 1783 0C1737.3 0 1691.7 0 1646 0C1600.3 0 1554.7 0 1508.8 0C1463 0 1417 0 1371.2 0C1325.3 0 1279.7 0 1234 0C1188.3 0 1142.7 0 1097 0C1051.3 0 1005.7 0 960 0C914.3 0 868.7 0 823 0C777.3 0 731.7 0 686 0C640.3 0 594.7 0 548.8 0C503 0 457 0 411.2 0C365.3 0 319.7 0 274 0C228.3 0 182.7 0 137 0C91.3 0 45.7 0 22.8 0L0 0Z" fill="#ffccb6"></path><path d="M0 203L22.8 205.2C45.7 207.3 91.3 211.7 137 214.3C182.7 217 228.3 218 274 214.2C319.7 210.3 365.3 201.7 411.2 197.3C457 193 503 193 548.8 192.3C594.7 191.7 640.3 190.3 686 191.2C731.7 192 777.3 195 823 200C868.7 205 914.3 212 960 215.2C1005.7 218.3 1051.3 217.7 1097 216.5C1142.7 215.3 1188.3 213.7 1234 210.8C1279.7 208 1325.3 204 1371.2 204.7C1417 205.3 1463 210.7 1508.8 205.7C1554.7 200.7 1600.3 185.3 1646 187.5C1691.7 189.7 1737.3 209.3 1783 211.8C1828.7 214.3 1874.3 199.7 1897.2 192.3L1920 185L1920 0L1897.2 0C1874.3 0 1828.7 0 1783 0C1737.3 0 1691.7 0 1646 0C1600.3 0 1554.7 0 1508.8 0C1463 0 1417 0 1371.2 0C1325.3 0 1279.7 0 1234 0C1188.3 0 1142.7 0 1097 0C1051.3 0 1005.7 0 960 0C914.3 0 868.7 0 823 0C777.3 0 731.7 0 686 0C640.3 0 594.7 0 548.8 0C503 0 457 0 411.2 0C365.3 0 319.7 0 274 0C228.3 0 182.7 0 137 0C91.3 0 45.7 0 22.8 0L0 0Z" fill="#ffb293"></path><path d="M0 141L22.8 142.2C45.7 143.3 91.3 145.7 137 145.3C182.7 145 228.3 142 274 141.5C319.7 141 365.3 143 411.2 148.3C457 153.7 503 162.3 548.8 158.3C594.7 154.3 640.3 137.7 686 137.8C731.7 138 777.3 155 823 156C868.7 157 914.3 142 960 134.2C1005.7 126.3 1051.3 125.7 1097 129.8C1142.7 134 1188.3 143 1234 150.2C1279.7 157.3 1325.3 162.7 1371.2 161.3C1417 160 1463 152 1508.8 144.5C1554.7 137 1600.3 130 1646 134C1691.7 138 1737.3 153 1783 161.2C1828.7 169.3 1874.3 170.7 1897.2 171.3L1920 172L1920 0L1897.2 0C1874.3 0 1828.7 0 1783 0C1737.3 0 1691.7 0 1646 0C1600.3 0 1554.7 0 1508.8 0C1463 0 1417 0 1371.2 0C1325.3 0 1279.7 0 1234 0C1188.3 0 1142.7 0 1097 0C1051.3 0 1005.7 0 960 0C914.3 0 868.7 0 823 0C777.3 0 731.7 0 686 0C640.3 0 594.7 0 548.8 0C503 0 457 0 411.2 0C365.3 0 319.7 0 274 0C228.3 0 182.7 0 137 0C91.3 0 45.7 0 22.8 0L0 0Z" fill="#fe9870"></path><path d="M0 73L22.8 73.7C45.7 74.3 91.3 75.7 137 80.3C182.7 85 228.3 93 274 101.2C319.7 109.3 365.3 117.7 411.2 113.3C457 109 503 92 548.8 91.2C594.7 90.3 640.3 105.7 686 111.3C731.7 117 777.3 113 823 105.3C868.7 97.7 914.3 86.3 960 86.3C1005.7 86.3 1051.3 97.7 1097 98C1142.7 98.3 1188.3 87.7 1234 85C1279.7 82.3 1325.3 87.7 1371.2 89.5C1417 91.3 1463 89.7 1508.8 93C1554.7 96.3 1600.3 104.7 1646 104.2C1691.7 103.7 1737.3 94.3 1783 94.3C1828.7 94.3 1874.3 103.7 1897.2 108.3L1920 113L1920 0L1897.2 0C1874.3 0 1828.7 0 1783 0C1737.3 0 1691.7 0 1646 0C1600.3 0 1554.7 0 1508.8 0C1463 0 1417 0 1371.2 0C1325.3 0 1279.7 0 1234 0C1188.3 0 1142.7 0 1097 0C1051.3 0 1005.7 0 960 0C914.3 0 868.7 0 823 0C777.3 0 731.7 0 686 0C640.3 0 594.7 0 548.8 0C503 0 457 0 411.2 0C365.3 0 319.7 0 274 0C228.3 0 182.7 0 137 0C91.3 0 45.7 0 22.8 0L0 0Z" fill="#fa7d4e"></path><path d="M0 20L22.8 29C45.7 38 91.3 56 137 58C182.7 60 228.3 46 274 46.7C319.7 47.3 365.3 62.7 411.2 65.3C457 68 503 58 548.8 53.3C594.7 48.7 640.3 49.3 686 49C731.7 48.7 777.3 47.3 823 42.7C868.7 38 914.3 30 960 29.7C1005.7 29.3 1051.3 36.7 1097 41.8C1142.7 47 1188.3 50 1234 54.8C1279.7 59.7 1325.3 66.3 1371.2 69.8C1417 73.3 1463 73.7 1508.8 67.7C1554.7 61.7 1600.3 49.3 1646 46.3C1691.7 43.3 1737.3 49.7 1783 54C1828.7 58.3 1874.3 60.7 1897.2 61.8L1920 63L1920 0L1897.2 0C1874.3 0 1828.7 0 1783 0C1737.3 0 1691.7 0 1646 0C1600.3 0 1554.7 0 1508.8 0C1463 0 1417 0 1371.2 0C1325.3 0 1279.7 0 1234 0C1188.3 0 1142.7 0 1097 0C1051.3 0 1005.7 0 960 0C914.3 0 868.7 0 823 0C777.3 0 731.7 0 686 0C640.3 0 594.7 0 548.8 0C503 0 457 0 411.2 0C365.3 0 319.7 0 274 0C228.3 0 182.7 0 137 0C91.3 0 45.7 0 22.8 0L0 0Z" fill="#f4602c"></path></svg>