<svg
  id="visual"
  viewBox="0 0 1920 300"
  width="1920"
  height="300"
  xmlns="http://www.w3.org/2000/svg"
  xmlns:xlink="http://www.w3.org/1999/xlink"
  version="1.1"
>
  <rect x="0" y="0" width="1920" height="300" fill="#001220"></rect>
  <path
    d="M0 260L16.8 260C33.7 260 67.3 260 101 252.2C134.7 244.3 168.3 228.7 202 234.7C235.7 240.7 269.3 268.3 303 280.3C336.7 292.3 370.3 288.7 404 274.2C437.7 259.7 471.3 234.3 505 234.2C538.7 234 572.3 259 606 263.3C639.7 267.7 673.3 251.3 707 247.8C740.7 244.3 774.3 253.7 808 262C841.7 270.3 875.3 277.7 909.2 272.7C943 267.7 977 250.3 1010.8 243.5C1044.7 236.7 1078.3 240.3 1112 246.5C1145.7 252.7 1179.3 261.3 1213 263.3C1246.7 265.3 1280.3 260.7 1314 255.8C1347.7 251 1381.3 246 1415 247.5C1448.7 249 1482.3 257 1516 260C1549.7 263 1583.3 261 1617 255.5C1650.7 250 1684.3 241 1718 233C1751.7 225 1785.3 218 1819 213.7C1852.7 209.3 1886.3 207.7 1903.2 206.8L1920 206L1920 0L1903.2 0C1886.3 0 1852.7 0 1819 0C1785.3 0 1751.7 0 1718 0C1684.3 0 1650.7 0 1617 0C1583.3 0 1549.7 0 1516 0C1482.3 0 1448.7 0 1415 0C1381.3 0 1347.7 0 1314 0C1280.3 0 1246.7 0 1213 0C1179.3 0 1145.7 0 1112 0C1078.3 0 1044.7 0 1010.8 0C977 0 943 0 909.2 0C875.3 0 841.7 0 808 0C774.3 0 740.7 0 707 0C673.3 0 639.7 0 606 0C572.3 0 538.7 0 505 0C471.3 0 437.7 0 404 0C370.3 0 336.7 0 303 0C269.3 0 235.7 0 202 0C168.3 0 134.7 0 101 0C67.3 0 33.7 0 16.8 0L0 0Z"
    fill="#001220"
  ></path>
  <path
    d="M0 235L16.8 233.8C33.7 232.7 67.3 230.3 101 216.7C134.7 203 168.3 178 202 171.7C235.7 165.3 269.3 177.7 303 184.2C336.7 190.7 370.3 191.3 404 185.8C437.7 180.3 471.3 168.7 505 169.8C538.7 171 572.3 185 606 190.5C639.7 196 673.3 193 707 199.7C740.7 206.3 774.3 222.7 808 221.2C841.7 219.7 875.3 200.3 909.2 190.8C943 181.3 977 181.7 1010.8 191C1044.7 200.3 1078.3 218.7 1112 217.5C1145.7 216.3 1179.3 195.7 1213 183.8C1246.7 172 1280.3 169 1314 175.2C1347.7 181.3 1381.3 196.7 1415 202.2C1448.7 207.7 1482.3 203.3 1516 194.2C1549.7 185 1583.3 171 1617 176.2C1650.7 181.3 1684.3 205.7 1718 216.8C1751.7 228 1785.3 226 1819 224.5C1852.7 223 1886.3 222 1903.2 221.5L1920 221L1920 0L1903.2 0C1886.3 0 1852.7 0 1819 0C1785.3 0 1751.7 0 1718 0C1684.3 0 1650.7 0 1617 0C1583.3 0 1549.7 0 1516 0C1482.3 0 1448.7 0 1415 0C1381.3 0 1347.7 0 1314 0C1280.3 0 1246.7 0 1213 0C1179.3 0 1145.7 0 1112 0C1078.3 0 1044.7 0 1010.8 0C977 0 943 0 909.2 0C875.3 0 841.7 0 808 0C774.3 0 740.7 0 707 0C673.3 0 639.7 0 606 0C572.3 0 538.7 0 505 0C471.3 0 437.7 0 404 0C370.3 0 336.7 0 303 0C269.3 0 235.7 0 202 0C168.3 0 134.7 0 101 0C67.3 0 33.7 0 16.8 0L0 0Z"
    fill="#2c2851"
  ></path>
  <path
    d="M0 126L16.8 127.5C33.7 129 67.3 132 101 131C134.7 130 168.3 125 202 134.5C235.7 144 269.3 168 303 177.7C336.7 187.3 370.3 182.7 404 167.7C437.7 152.7 471.3 127.3 505 116.2C538.7 105 572.3 108 606 119C639.7 130 673.3 149 707 156.8C740.7 164.7 774.3 161.3 808 158.8C841.7 156.3 875.3 154.7 909.2 158.7C943 162.7 977 172.3 1010.8 171.2C1044.7 170 1078.3 158 1112 157C1145.7 156 1179.3 166 1213 164.3C1246.7 162.7 1280.3 149.3 1314 144.8C1347.7 140.3 1381.3 144.7 1415 142.7C1448.7 140.7 1482.3 132.3 1516 125C1549.7 117.7 1583.3 111.3 1617 118.8C1650.7 126.3 1684.3 147.7 1718 157.5C1751.7 167.3 1785.3 165.7 1819 158.5C1852.7 151.3 1886.3 138.7 1903.2 132.3L1920 126L1920 0L1903.2 0C1886.3 0 1852.7 0 1819 0C1785.3 0 1751.7 0 1718 0C1684.3 0 1650.7 0 1617 0C1583.3 0 1549.7 0 1516 0C1482.3 0 1448.7 0 1415 0C1381.3 0 1347.7 0 1314 0C1280.3 0 1246.7 0 1213 0C1179.3 0 1145.7 0 1112 0C1078.3 0 1044.7 0 1010.8 0C977 0 943 0 909.2 0C875.3 0 841.7 0 808 0C774.3 0 740.7 0 707 0C673.3 0 639.7 0 606 0C572.3 0 538.7 0 505 0C471.3 0 437.7 0 404 0C370.3 0 336.7 0 303 0C269.3 0 235.7 0 202 0C168.3 0 134.7 0 101 0C67.3 0 33.7 0 16.8 0L0 0Z"
    fill="#7a2f6b"
  ></path>
  <path
    d="M0 134L16.8 125.8C33.7 117.7 67.3 101.3 101 90.7C134.7 80 168.3 75 202 83.5C235.7 92 269.3 114 303 125C336.7 136 370.3 136 404 122.2C437.7 108.3 471.3 80.7 505 66.3C538.7 52 572.3 51 606 55.7C639.7 60.3 673.3 70.7 707 85.5C740.7 100.3 774.3 119.7 808 126.7C841.7 133.7 875.3 128.3 909.2 118.5C943 108.7 977 94.3 1010.8 85.3C1044.7 76.3 1078.3 72.7 1112 74.8C1145.7 77 1179.3 85 1213 85.7C1246.7 86.3 1280.3 79.7 1314 83.5C1347.7 87.3 1381.3 101.7 1415 104.5C1448.7 107.3 1482.3 98.7 1516 91C1549.7 83.3 1583.3 76.7 1617 82.3C1650.7 88 1684.3 106 1718 117.5C1751.7 129 1785.3 134 1819 134.3C1852.7 134.7 1886.3 130.3 1903.2 128.2L1920 126L1920 0L1903.2 0C1886.3 0 1852.7 0 1819 0C1785.3 0 1751.7 0 1718 0C1684.3 0 1650.7 0 1617 0C1583.3 0 1549.7 0 1516 0C1482.3 0 1448.7 0 1415 0C1381.3 0 1347.7 0 1314 0C1280.3 0 1246.7 0 1213 0C1179.3 0 1145.7 0 1112 0C1078.3 0 1044.7 0 1010.8 0C977 0 943 0 909.2 0C875.3 0 841.7 0 808 0C774.3 0 740.7 0 707 0C673.3 0 639.7 0 606 0C572.3 0 538.7 0 505 0C471.3 0 437.7 0 404 0C370.3 0 336.7 0 303 0C269.3 0 235.7 0 202 0C168.3 0 134.7 0 101 0C67.3 0 33.7 0 16.8 0L0 0Z"
    fill="#c7325e"
  ></path>
  <path
    d="M0 31L16.8 29.3C33.7 27.7 67.3 24.3 101 19.7C134.7 15 168.3 9 202 11.2C235.7 13.3 269.3 23.7 303 25.5C336.7 27.3 370.3 20.7 404 18.5C437.7 16.3 471.3 18.7 505 30.2C538.7 41.7 572.3 62.3 606 63.3C639.7 64.3 673.3 45.7 707 40.3C740.7 35 774.3 43 808 42.7C841.7 42.3 875.3 33.7 909.2 41C943 48.3 977 71.7 1010.8 76.2C1044.7 80.7 1078.3 66.3 1112 53.5C1145.7 40.7 1179.3 29.3 1213 28.2C1246.7 27 1280.3 36 1314 43.2C1347.7 50.3 1381.3 55.7 1415 48.5C1448.7 41.3 1482.3 21.7 1516 15.2C1549.7 8.7 1583.3 15.3 1617 18.5C1650.7 21.7 1684.3 21.3 1718 29.7C1751.7 38 1785.3 55 1819 59.8C1852.7 64.7 1886.3 57.3 1903.2 53.7L1920 50L1920 0L1903.2 0C1886.3 0 1852.7 0 1819 0C1785.3 0 1751.7 0 1718 0C1684.3 0 1650.7 0 1617 0C1583.3 0 1549.7 0 1516 0C1482.3 0 1448.7 0 1415 0C1381.3 0 1347.7 0 1314 0C1280.3 0 1246.7 0 1213 0C1179.3 0 1145.7 0 1112 0C1078.3 0 1044.7 0 1010.8 0C977 0 943 0 909.2 0C875.3 0 841.7 0 808 0C774.3 0 740.7 0 707 0C673.3 0 639.7 0 606 0C572.3 0 538.7 0 505 0C471.3 0 437.7 0 404 0C370.3 0 336.7 0 303 0C269.3 0 235.7 0 202 0C168.3 0 134.7 0 101 0C67.3 0 33.7 0 16.8 0L0 0Z"
    fill="#f4602c"
  ></path>
</svg>
