<svg
  id="visual"
  viewBox="0 0 1920 400"
  width="1920"
  height="400"
  xmlns="http://www.w3.org/2000/svg"
  xmlns:xlink="http://www.w3.org/1999/xlink"
  version="1.1"
>
  <rect x="0" y="0" width="1920" height="400" fill="#001220"></rect>
  <path
    d="M0 351L22.8 350.3C45.7 349.7 91.3 348.3 137 351.2C182.7 354 228.3 361 274 356.5C319.7 352 365.3 336 411.2 337.8C457 339.7 503 359.3 548.8 365.8C594.7 372.3 640.3 365.7 686 359.3C731.7 353 777.3 347 823 343.2C868.7 339.3 914.3 337.7 960 337C1005.7 336.3 1051.3 336.7 1097 338.2C1142.7 339.7 1188.3 342.3 1234 339.5C1279.7 336.7 1325.3 328.3 1371.2 326.3C1417 324.3 1463 328.7 1508.8 337.3C1554.7 346 1600.3 359 1646 360.8C1691.7 362.7 1737.3 353.3 1783 345C1828.7 336.7 1874.3 329.3 1897.2 325.7L1920 322L1920 0L1897.2 0C1874.3 0 1828.7 0 1783 0C1737.3 0 1691.7 0 1646 0C1600.3 0 1554.7 0 1508.8 0C1463 0 1417 0 1371.2 0C1325.3 0 1279.7 0 1234 0C1188.3 0 1142.7 0 1097 0C1051.3 0 1005.7 0 960 0C914.3 0 868.7 0 823 0C777.3 0 731.7 0 686 0C640.3 0 594.7 0 548.8 0C503 0 457 0 411.2 0C365.3 0 319.7 0 274 0C228.3 0 182.7 0 137 0C91.3 0 45.7 0 22.8 0L0 0Z"
    fill="#001220"
  ></path>
  <path
    d="M0 315L22.8 311.8C45.7 308.7 91.3 302.3 137 297C182.7 291.7 228.3 287.3 274 292.7C319.7 298 365.3 313 411.2 316.3C457 319.7 503 311.3 548.8 309.3C594.7 307.3 640.3 311.7 686 309.2C731.7 306.7 777.3 297.3 823 297.7C868.7 298 914.3 308 960 307.2C1005.7 306.3 1051.3 294.7 1097 292.5C1142.7 290.3 1188.3 297.7 1234 300.5C1279.7 303.3 1325.3 301.7 1371.2 298C1417 294.3 1463 288.7 1508.8 291.2C1554.7 293.7 1600.3 304.3 1646 311.3C1691.7 318.3 1737.3 321.7 1783 319.7C1828.7 317.7 1874.3 310.3 1897.2 306.7L1920 303L1920 0L1897.2 0C1874.3 0 1828.7 0 1783 0C1737.3 0 1691.7 0 1646 0C1600.3 0 1554.7 0 1508.8 0C1463 0 1417 0 1371.2 0C1325.3 0 1279.7 0 1234 0C1188.3 0 1142.7 0 1097 0C1051.3 0 1005.7 0 960 0C914.3 0 868.7 0 823 0C777.3 0 731.7 0 686 0C640.3 0 594.7 0 548.8 0C503 0 457 0 411.2 0C365.3 0 319.7 0 274 0C228.3 0 182.7 0 137 0C91.3 0 45.7 0 22.8 0L0 0Z"
    fill="#002342"
  ></path>
  <path
    d="M0 244L22.8 243.5C45.7 243 91.3 242 137 247.7C182.7 253.3 228.3 265.7 274 270.5C319.7 275.3 365.3 272.7 411.2 265.7C457 258.7 503 247.3 548.8 243.8C594.7 240.3 640.3 244.7 686 251.3C731.7 258 777.3 267 823 269.3C868.7 271.7 914.3 267.3 960 261.2C1005.7 255 1051.3 247 1097 249.7C1142.7 252.3 1188.3 265.7 1234 272C1279.7 278.3 1325.3 277.7 1371.2 273.3C1417 269 1463 261 1508.8 259.2C1554.7 257.3 1600.3 261.7 1646 261.3C1691.7 261 1737.3 256 1783 257.7C1828.7 259.3 1874.3 267.7 1897.2 271.8L1920 276L1920 0L1897.2 0C1874.3 0 1828.7 0 1783 0C1737.3 0 1691.7 0 1646 0C1600.3 0 1554.7 0 1508.8 0C1463 0 1417 0 1371.2 0C1325.3 0 1279.7 0 1234 0C1188.3 0 1142.7 0 1097 0C1051.3 0 1005.7 0 960 0C914.3 0 868.7 0 823 0C777.3 0 731.7 0 686 0C640.3 0 594.7 0 548.8 0C503 0 457 0 411.2 0C365.3 0 319.7 0 274 0C228.3 0 182.7 0 137 0C91.3 0 45.7 0 22.8 0L0 0Z"
    fill="#003266"
  ></path>
  <path
    d="M0 179L22.8 182.8C45.7 186.7 91.3 194.3 137 200.8C182.7 207.3 228.3 212.7 274 214.8C319.7 217 365.3 216 411.2 216.8C457 217.7 503 220.3 548.8 221C594.7 221.7 640.3 220.3 686 217.2C731.7 214 777.3 209 823 205.3C868.7 201.7 914.3 199.3 960 199C1005.7 198.7 1051.3 200.3 1097 204.5C1142.7 208.7 1188.3 215.3 1234 212.7C1279.7 210 1325.3 198 1371.2 194.2C1417 190.3 1463 194.7 1508.8 197.2C1554.7 199.7 1600.3 200.3 1646 204.7C1691.7 209 1737.3 217 1783 214.5C1828.7 212 1874.3 199 1897.2 192.5L1920 186L1920 0L1897.2 0C1874.3 0 1828.7 0 1783 0C1737.3 0 1691.7 0 1646 0C1600.3 0 1554.7 0 1508.8 0C1463 0 1417 0 1371.2 0C1325.3 0 1279.7 0 1234 0C1188.3 0 1142.7 0 1097 0C1051.3 0 1005.7 0 960 0C914.3 0 868.7 0 823 0C777.3 0 731.7 0 686 0C640.3 0 594.7 0 548.8 0C503 0 457 0 411.2 0C365.3 0 319.7 0 274 0C228.3 0 182.7 0 137 0C91.3 0 45.7 0 22.8 0L0 0Z"
    fill="#00408b"
  ></path>
  <path
    d="M0 168L22.8 161.7C45.7 155.3 91.3 142.7 137 138.8C182.7 135 228.3 140 274 147.5C319.7 155 365.3 165 411.2 169.2C457 173.3 503 171.7 548.8 165.8C594.7 160 640.3 150 686 146.2C731.7 142.3 777.3 144.7 823 141.8C868.7 139 914.3 131 960 131.7C1005.7 132.3 1051.3 141.7 1097 150C1142.7 158.3 1188.3 165.7 1234 160.5C1279.7 155.3 1325.3 137.7 1371.2 134.3C1417 131 1463 142 1508.8 143.2C1554.7 144.3 1600.3 135.7 1646 131.5C1691.7 127.3 1737.3 127.7 1783 134.3C1828.7 141 1874.3 154 1897.2 160.5L1920 167L1920 0L1897.2 0C1874.3 0 1828.7 0 1783 0C1737.3 0 1691.7 0 1646 0C1600.3 0 1554.7 0 1508.8 0C1463 0 1417 0 1371.2 0C1325.3 0 1279.7 0 1234 0C1188.3 0 1142.7 0 1097 0C1051.3 0 1005.7 0 960 0C914.3 0 868.7 0 823 0C777.3 0 731.7 0 686 0C640.3 0 594.7 0 548.8 0C503 0 457 0 411.2 0C365.3 0 319.7 0 274 0C228.3 0 182.7 0 137 0C91.3 0 45.7 0 22.8 0L0 0Z"
    fill="#004db1"
  ></path>
  <path
    d="M0 86L22.8 88.2C45.7 90.3 91.3 94.7 137 100.7C182.7 106.7 228.3 114.3 274 117C319.7 119.7 365.3 117.3 411.2 111.5C457 105.7 503 96.3 548.8 98.5C594.7 100.7 640.3 114.3 686 117C731.7 119.7 777.3 111.3 823 104.5C868.7 97.7 914.3 92.3 960 89.2C1005.7 86 1051.3 85 1097 82.7C1142.7 80.3 1188.3 76.7 1234 82.5C1279.7 88.3 1325.3 103.7 1371.2 107.2C1417 110.7 1463 102.3 1508.8 94.3C1554.7 86.3 1600.3 78.7 1646 81.3C1691.7 84 1737.3 97 1783 106.2C1828.7 115.3 1874.3 120.7 1897.2 123.3L1920 126L1920 0L1897.2 0C1874.3 0 1828.7 0 1783 0C1737.3 0 1691.7 0 1646 0C1600.3 0 1554.7 0 1508.8 0C1463 0 1417 0 1371.2 0C1325.3 0 1279.7 0 1234 0C1188.3 0 1142.7 0 1097 0C1051.3 0 1005.7 0 960 0C914.3 0 868.7 0 823 0C777.3 0 731.7 0 686 0C640.3 0 594.7 0 548.8 0C503 0 457 0 411.2 0C365.3 0 319.7 0 274 0C228.3 0 182.7 0 137 0C91.3 0 45.7 0 22.8 0L0 0Z"
    fill="#005ad8"
  ></path>
  <path
    d="M0 19L22.8 26.5C45.7 34 91.3 49 137 52.8C182.7 56.7 228.3 49.3 274 47C319.7 44.7 365.3 47.3 411.2 53C457 58.7 503 67.3 548.8 69C594.7 70.7 640.3 65.3 686 57.5C731.7 49.7 777.3 39.3 823 40.3C868.7 41.3 914.3 53.7 960 52.3C1005.7 51 1051.3 36 1097 29C1142.7 22 1188.3 23 1234 30.5C1279.7 38 1325.3 52 1371.2 57.5C1417 63 1463 60 1508.8 54.7C1554.7 49.3 1600.3 41.7 1646 41.5C1691.7 41.3 1737.3 48.7 1783 51C1828.7 53.3 1874.3 50.7 1897.2 49.3L1920 48L1920 0L1897.2 0C1874.3 0 1828.7 0 1783 0C1737.3 0 1691.7 0 1646 0C1600.3 0 1554.7 0 1508.8 0C1463 0 1417 0 1371.2 0C1325.3 0 1279.7 0 1234 0C1188.3 0 1142.7 0 1097 0C1051.3 0 1005.7 0 960 0C914.3 0 868.7 0 823 0C777.3 0 731.7 0 686 0C640.3 0 594.7 0 548.8 0C503 0 457 0 411.2 0C365.3 0 319.7 0 274 0C228.3 0 182.7 0 137 0C91.3 0 45.7 0 22.8 0L0 0Z"
    fill="#0066ff"
  ></path>
</svg>
