<svg id="visual" viewBox="0 0 1920 300" width="1920" height="300" xmlns="http://www.w3.org/2000/svg" xmlns:xlink="http://www.w3.org/1999/xlink" version="1.1"><rect x="0" y="0" width="1920" height="300" fill="#f4602c"></rect><path d="M0 290L22.8 288.2C45.7 286.3 91.3 282.7 137 279.8C182.7 277 228.3 275 274 276.5C319.7 278 365.3 283 411.2 282.2C457 281.3 503 274.7 548.8 272.2C594.7 269.7 640.3 271.3 686 269.3C731.7 267.3 777.3 261.7 823 259.7C868.7 257.7 914.3 259.3 960 257C1005.7 254.7 1051.3 248.3 1097 251C1142.7 253.7 1188.3 265.3 1234 269.2C1279.7 273 1325.3 269 1371.2 270.3C1417 271.7 1463 278.3 1508.8 274.2C1554.7 270 1600.3 255 1646 247.8C1691.7 240.7 1737.3 241.3 1783 249.5C1828.7 257.7 1874.3 273.3 1897.2 281.2L1920 289L1920 0L1897.2 0C1874.3 0 1828.7 0 1783 0C1737.3 0 1691.7 0 1646 0C1600.3 0 1554.7 0 1508.8 0C1463 0 1417 0 1371.2 0C1325.3 0 1279.7 0 1234 0C1188.3 0 1142.7 0 1097 0C1051.3 0 1005.7 0 960 0C914.3 0 868.7 0 823 0C777.3 0 731.7 0 686 0C640.3 0 594.7 0 548.8 0C503 0 457 0 411.2 0C365.3 0 319.7 0 274 0C228.3 0 182.7 0 137 0C91.3 0 45.7 0 22.8 0L0 0Z" fill="#f4602c"></path><path d="M0 212L22.8 212.7C45.7 213.3 91.3 214.7 137 218C182.7 221.3 228.3 226.7 274 225.7C319.7 224.7 365.3 217.3 411.2 217.5C457 217.7 503 225.3 548.8 226.3C594.7 227.3 640.3 221.7 686 219.8C731.7 218 777.3 220 823 221.7C868.7 223.3 914.3 224.7 960 222.5C1005.7 220.3 1051.3 214.7 1097 215.8C1142.7 217 1188.3 225 1234 225.5C1279.7 226 1325.3 219 1371.2 222.3C1417 225.7 1463 239.3 1508.8 241.8C1554.7 244.3 1600.3 235.7 1646 233.7C1691.7 231.7 1737.3 236.3 1783 238.2C1828.7 240 1874.3 239 1897.2 238.5L1920 238L1920 0L1897.2 0C1874.3 0 1828.7 0 1783 0C1737.3 0 1691.7 0 1646 0C1600.3 0 1554.7 0 1508.8 0C1463 0 1417 0 1371.2 0C1325.3 0 1279.7 0 1234 0C1188.3 0 1142.7 0 1097 0C1051.3 0 1005.7 0 960 0C914.3 0 868.7 0 823 0C777.3 0 731.7 0 686 0C640.3 0 594.7 0 548.8 0C503 0 457 0 411.2 0C365.3 0 319.7 0 274 0C228.3 0 182.7 0 137 0C91.3 0 45.7 0 22.8 0L0 0Z" fill="#e0404d"></path><path d="M0 198L22.8 201.5C45.7 205 91.3 212 137 212.8C182.7 213.7 228.3 208.3 274 209C319.7 209.7 365.3 216.3 411.2 218.7C457 221 503 219 548.8 215.8C594.7 212.7 640.3 208.3 686 208.3C731.7 208.3 777.3 212.7 823 210.3C868.7 208 914.3 199 960 196.2C1005.7 193.3 1051.3 196.7 1097 195.5C1142.7 194.3 1188.3 188.7 1234 187.2C1279.7 185.7 1325.3 188.3 1371.2 191.3C1417 194.3 1463 197.7 1508.8 196.3C1554.7 195 1600.3 189 1646 191.3C1691.7 193.7 1737.3 204.3 1783 203.8C1828.7 203.3 1874.3 191.7 1897.2 185.8L1920 180L1920 0L1897.2 0C1874.3 0 1828.7 0 1783 0C1737.3 0 1691.7 0 1646 0C1600.3 0 1554.7 0 1508.8 0C1463 0 1417 0 1371.2 0C1325.3 0 1279.7 0 1234 0C1188.3 0 1142.7 0 1097 0C1051.3 0 1005.7 0 960 0C914.3 0 868.7 0 823 0C777.3 0 731.7 0 686 0C640.3 0 594.7 0 548.8 0C503 0 457 0 411.2 0C365.3 0 319.7 0 274 0C228.3 0 182.7 0 137 0C91.3 0 45.7 0 22.8 0L0 0Z" fill="#be3062"></path><path d="M0 163L22.8 164C45.7 165 91.3 167 137 165.2C182.7 163.3 228.3 157.7 274 159C319.7 160.3 365.3 168.7 411.2 166.5C457 164.3 503 151.7 548.8 152.3C594.7 153 640.3 167 686 171C731.7 175 777.3 169 823 163.2C868.7 157.3 914.3 151.7 960 155.2C1005.7 158.7 1051.3 171.3 1097 175.7C1142.7 180 1188.3 176 1234 173.5C1279.7 171 1325.3 170 1371.2 171.3C1417 172.7 1463 176.3 1508.8 175.3C1554.7 174.3 1600.3 168.7 1646 170.7C1691.7 172.7 1737.3 182.3 1783 186.8C1828.7 191.3 1874.3 190.7 1897.2 190.3L1920 190L1920 0L1897.2 0C1874.3 0 1828.7 0 1783 0C1737.3 0 1691.7 0 1646 0C1600.3 0 1554.7 0 1508.8 0C1463 0 1417 0 1371.2 0C1325.3 0 1279.7 0 1234 0C1188.3 0 1142.7 0 1097 0C1051.3 0 1005.7 0 960 0C914.3 0 868.7 0 823 0C777.3 0 731.7 0 686 0C640.3 0 594.7 0 548.8 0C503 0 457 0 411.2 0C365.3 0 319.7 0 274 0C228.3 0 182.7 0 137 0C91.3 0 45.7 0 22.8 0L0 0Z" fill="#922e6b"></path><path d="M0 122L22.8 125.7C45.7 129.3 91.3 136.7 137 140C182.7 143.3 228.3 142.7 274 139.8C319.7 137 365.3 132 411.2 127.5C457 123 503 119 548.8 118.2C594.7 117.3 640.3 119.7 686 124C731.7 128.3 777.3 134.7 823 137.2C868.7 139.7 914.3 138.3 960 133.7C1005.7 129 1051.3 121 1097 117.2C1142.7 113.3 1188.3 113.7 1234 115.3C1279.7 117 1325.3 120 1371.2 123.2C1417 126.3 1463 129.7 1508.8 128.2C1554.7 126.7 1600.3 120.3 1646 116C1691.7 111.7 1737.3 109.3 1783 109.2C1828.7 109 1874.3 111 1897.2 112L1920 113L1920 0L1897.2 0C1874.3 0 1828.7 0 1783 0C1737.3 0 1691.7 0 1646 0C1600.3 0 1554.7 0 1508.8 0C1463 0 1417 0 1371.2 0C1325.3 0 1279.7 0 1234 0C1188.3 0 1142.7 0 1097 0C1051.3 0 1005.7 0 960 0C914.3 0 868.7 0 823 0C777.3 0 731.7 0 686 0C640.3 0 594.7 0 548.8 0C503 0 457 0 411.2 0C365.3 0 319.7 0 274 0C228.3 0 182.7 0 137 0C91.3 0 45.7 0 22.8 0L0 0Z" fill="#622f67"></path><path d="M0 106L22.8 106.7C45.7 107.3 91.3 108.7 137 107.5C182.7 106.3 228.3 102.7 274 103.2C319.7 103.7 365.3 108.3 411.2 105.7C457 103 503 93 548.8 93.7C594.7 94.3 640.3 105.7 686 107.7C731.7 109.7 777.3 102.3 823 101C868.7 99.7 914.3 104.3 960 100.8C1005.7 97.3 1051.3 85.7 1097 83.2C1142.7 80.7 1188.3 87.3 1234 94.2C1279.7 101 1325.3 108 1371.2 107.3C1417 106.7 1463 98.3 1508.8 92C1554.7 85.7 1600.3 81.3 1646 82.3C1691.7 83.3 1737.3 89.7 1783 95.2C1828.7 100.7 1874.3 105.3 1897.2 107.7L1920 110L1920 0L1897.2 0C1874.3 0 1828.7 0 1783 0C1737.3 0 1691.7 0 1646 0C1600.3 0 1554.7 0 1508.8 0C1463 0 1417 0 1371.2 0C1325.3 0 1279.7 0 1234 0C1188.3 0 1142.7 0 1097 0C1051.3 0 1005.7 0 960 0C914.3 0 868.7 0 823 0C777.3 0 731.7 0 686 0C640.3 0 594.7 0 548.8 0C503 0 457 0 411.2 0C365.3 0 319.7 0 274 0C228.3 0 182.7 0 137 0C91.3 0 45.7 0 22.8 0L0 0Z" fill="#362a57"></path><path d="M0 84L22.8 79.7C45.7 75.3 91.3 66.7 137 61C182.7 55.3 228.3 52.7 274 56.5C319.7 60.3 365.3 70.7 411.2 74.5C457 78.3 503 75.7 548.8 70.3C594.7 65 640.3 57 686 56.3C731.7 55.7 777.3 62.3 823 68.7C868.7 75 914.3 81 960 83C1005.7 85 1051.3 83 1097 81.2C1142.7 79.3 1188.3 77.7 1234 74.5C1279.7 71.3 1325.3 66.7 1371.2 63.3C1417 60 1463 58 1508.8 54.8C1554.7 51.7 1600.3 47.3 1646 47C1691.7 46.7 1737.3 50.3 1783 51.3C1828.7 52.3 1874.3 50.7 1897.2 49.8L1920 49L1920 0L1897.2 0C1874.3 0 1828.7 0 1783 0C1737.3 0 1691.7 0 1646 0C1600.3 0 1554.7 0 1508.8 0C1463 0 1417 0 1371.2 0C1325.3 0 1279.7 0 1234 0C1188.3 0 1142.7 0 1097 0C1051.3 0 1005.7 0 960 0C914.3 0 868.7 0 823 0C777.3 0 731.7 0 686 0C640.3 0 594.7 0 548.8 0C503 0 457 0 411.2 0C365.3 0 319.7 0 274 0C228.3 0 182.7 0 137 0C91.3 0 45.7 0 22.8 0L0 0Z" fill="#12203d"></path><path d="M0 45L22.8 45.2C45.7 45.3 91.3 45.7 137 39.3C182.7 33 228.3 20 274 16.2C319.7 12.3 365.3 17.7 411.2 17.7C457 17.7 503 12.3 548.8 17.5C594.7 22.7 640.3 38.3 686 41.2C731.7 44 777.3 34 823 32.7C868.7 31.3 914.3 38.7 960 39.5C1005.7 40.3 1051.3 34.7 1097 30.3C1142.7 26 1188.3 23 1234 24C1279.7 25 1325.3 30 1371.2 30.2C1417 30.3 1463 25.7 1508.8 22.7C1554.7 19.7 1600.3 18.3 1646 21.3C1691.7 24.3 1737.3 31.7 1783 34.3C1828.7 37 1874.3 35 1897.2 34L1920 33L1920 0L1897.2 0C1874.3 0 1828.7 0 1783 0C1737.3 0 1691.7 0 1646 0C1600.3 0 1554.7 0 1508.8 0C1463 0 1417 0 1371.2 0C1325.3 0 1279.7 0 1234 0C1188.3 0 1142.7 0 1097 0C1051.3 0 1005.7 0 960 0C914.3 0 868.7 0 823 0C777.3 0 731.7 0 686 0C640.3 0 594.7 0 548.8 0C503 0 457 0 411.2 0C365.3 0 319.7 0 274 0C228.3 0 182.7 0 137 0C91.3 0 45.7 0 22.8 0L0 0Z" fill="#001220"></path></svg>