<svg id="visual" viewBox="0 0 1920 300" width="1920" height="300" xmlns="http://www.w3.org/2000/svg" xmlns:xlink="http://www.w3.org/1999/xlink" version="1.1"><rect x="0" y="0" width="1920" height="300" fill="#ffffff"></rect><path d="M0 263L22.8 264.5C45.7 266 91.3 269 137 273.8C182.7 278.7 228.3 285.3 274 286.7C319.7 288 365.3 284 411.2 282.3C457 280.7 503 281.3 548.8 279.3C594.7 277.3 640.3 272.7 686 271.7C731.7 270.7 777.3 273.3 823 275.3C868.7 277.3 914.3 278.7 960 281.3C1005.7 284 1051.3 288 1097 288.7C1142.7 289.3 1188.3 286.7 1234 284.8C1279.7 283 1325.3 282 1371.2 278.5C1417 275 1463 269 1508.8 263.5C1554.7 258 1600.3 253 1646 250.5C1691.7 248 1737.3 248 1783 254.5C1828.7 261 1874.3 274 1897.2 280.5L1920 287L1920 0L1897.2 0C1874.3 0 1828.7 0 1783 0C1737.3 0 1691.7 0 1646 0C1600.3 0 1554.7 0 1508.8 0C1463 0 1417 0 1371.2 0C1325.3 0 1279.7 0 1234 0C1188.3 0 1142.7 0 1097 0C1051.3 0 1005.7 0 960 0C914.3 0 868.7 0 823 0C777.3 0 731.7 0 686 0C640.3 0 594.7 0 548.8 0C503 0 457 0 411.2 0C365.3 0 319.7 0 274 0C228.3 0 182.7 0 137 0C91.3 0 45.7 0 22.8 0L0 0Z" fill="#ffffff"></path><path d="M0 210L22.8 212.8C45.7 215.7 91.3 221.3 137 222C182.7 222.7 228.3 218.3 274 222.7C319.7 227 365.3 240 411.2 244.7C457 249.3 503 245.7 548.8 241.8C594.7 238 640.3 234 686 231.3C731.7 228.7 777.3 227.3 823 228.3C868.7 229.3 914.3 232.7 960 232.8C1005.7 233 1051.3 230 1097 228.3C1142.7 226.7 1188.3 226.3 1234 228.5C1279.7 230.7 1325.3 235.3 1371.2 234.3C1417 233.3 1463 226.7 1508.8 228.2C1554.7 229.7 1600.3 239.3 1646 242.7C1691.7 246 1737.3 243 1783 244.7C1828.7 246.3 1874.3 252.7 1897.2 255.8L1920 259L1920 0L1897.2 0C1874.3 0 1828.7 0 1783 0C1737.3 0 1691.7 0 1646 0C1600.3 0 1554.7 0 1508.8 0C1463 0 1417 0 1371.2 0C1325.3 0 1279.7 0 1234 0C1188.3 0 1142.7 0 1097 0C1051.3 0 1005.7 0 960 0C914.3 0 868.7 0 823 0C777.3 0 731.7 0 686 0C640.3 0 594.7 0 548.8 0C503 0 457 0 411.2 0C365.3 0 319.7 0 274 0C228.3 0 182.7 0 137 0C91.3 0 45.7 0 22.8 0L0 0Z" fill="#d6d8db"></path><path d="M0 219L22.8 213.2C45.7 207.3 91.3 195.7 137 195.2C182.7 194.7 228.3 205.3 274 211.8C319.7 218.3 365.3 220.7 411.2 213.8C457 207 503 191 548.8 186.3C594.7 181.7 640.3 188.3 686 190.8C731.7 193.3 777.3 191.7 823 193.2C868.7 194.7 914.3 199.3 960 203.2C1005.7 207 1051.3 210 1097 213.2C1142.7 216.3 1188.3 219.7 1234 213.2C1279.7 206.7 1325.3 190.3 1371.2 185.8C1417 181.3 1463 188.7 1508.8 195.3C1554.7 202 1600.3 208 1646 204.3C1691.7 200.7 1737.3 187.3 1783 188.2C1828.7 189 1874.3 204 1897.2 211.5L1920 219L1920 0L1897.2 0C1874.3 0 1828.7 0 1783 0C1737.3 0 1691.7 0 1646 0C1600.3 0 1554.7 0 1508.8 0C1463 0 1417 0 1371.2 0C1325.3 0 1279.7 0 1234 0C1188.3 0 1142.7 0 1097 0C1051.3 0 1005.7 0 960 0C914.3 0 868.7 0 823 0C777.3 0 731.7 0 686 0C640.3 0 594.7 0 548.8 0C503 0 457 0 411.2 0C365.3 0 319.7 0 274 0C228.3 0 182.7 0 137 0C91.3 0 45.7 0 22.8 0L0 0Z" fill="#afb3b9"></path><path d="M0 152L22.8 155.3C45.7 158.7 91.3 165.3 137 168C182.7 170.7 228.3 169.3 274 168.5C319.7 167.7 365.3 167.3 411.2 168.5C457 169.7 503 172.3 548.8 170.2C594.7 168 640.3 161 686 160C731.7 159 777.3 164 823 170.2C868.7 176.3 914.3 183.7 960 182.2C1005.7 180.7 1051.3 170.3 1097 166.2C1142.7 162 1188.3 164 1234 164.5C1279.7 165 1325.3 164 1371.2 164.7C1417 165.3 1463 167.7 1508.8 171.5C1554.7 175.3 1600.3 180.7 1646 182C1691.7 183.3 1737.3 180.7 1783 177.2C1828.7 173.7 1874.3 169.3 1897.2 167.2L1920 165L1920 0L1897.2 0C1874.3 0 1828.7 0 1783 0C1737.3 0 1691.7 0 1646 0C1600.3 0 1554.7 0 1508.8 0C1463 0 1417 0 1371.2 0C1325.3 0 1279.7 0 1234 0C1188.3 0 1142.7 0 1097 0C1051.3 0 1005.7 0 960 0C914.3 0 868.7 0 823 0C777.3 0 731.7 0 686 0C640.3 0 594.7 0 548.8 0C503 0 457 0 411.2 0C365.3 0 319.7 0 274 0C228.3 0 182.7 0 137 0C91.3 0 45.7 0 22.8 0L0 0Z" fill="#898f97"></path><path d="M0 114L22.8 117.3C45.7 120.7 91.3 127.3 137 131.7C182.7 136 228.3 138 274 136.7C319.7 135.3 365.3 130.7 411.2 129.3C457 128 503 130 548.8 132.3C594.7 134.7 640.3 137.3 686 135.2C731.7 133 777.3 126 823 123.8C868.7 121.7 914.3 124.3 960 123.5C1005.7 122.7 1051.3 118.3 1097 123.3C1142.7 128.3 1188.3 142.7 1234 144C1279.7 145.3 1325.3 133.7 1371.2 130C1417 126.3 1463 130.7 1508.8 132.2C1554.7 133.7 1600.3 132.3 1646 131.8C1691.7 131.3 1737.3 131.7 1783 136.2C1828.7 140.7 1874.3 149.3 1897.2 153.7L1920 158L1920 0L1897.2 0C1874.3 0 1828.7 0 1783 0C1737.3 0 1691.7 0 1646 0C1600.3 0 1554.7 0 1508.8 0C1463 0 1417 0 1371.2 0C1325.3 0 1279.7 0 1234 0C1188.3 0 1142.7 0 1097 0C1051.3 0 1005.7 0 960 0C914.3 0 868.7 0 823 0C777.3 0 731.7 0 686 0C640.3 0 594.7 0 548.8 0C503 0 457 0 411.2 0C365.3 0 319.7 0 274 0C228.3 0 182.7 0 137 0C91.3 0 45.7 0 22.8 0L0 0Z" fill="#656d77"></path><path d="M0 82L22.8 80.5C45.7 79 91.3 76 137 81C182.7 86 228.3 99 274 102.3C319.7 105.7 365.3 99.3 411.2 96.2C457 93 503 93 548.8 97C594.7 101 640.3 109 686 108.5C731.7 108 777.3 99 823 92.2C868.7 85.3 914.3 80.7 960 80.5C1005.7 80.3 1051.3 84.7 1097 85.7C1142.7 86.7 1188.3 84.3 1234 89.7C1279.7 95 1325.3 108 1371.2 108.8C1417 109.7 1463 98.3 1508.8 96C1554.7 93.7 1600.3 100.3 1646 101.2C1691.7 102 1737.3 97 1783 97.2C1828.7 97.3 1874.3 102.7 1897.2 105.3L1920 108L1920 0L1897.2 0C1874.3 0 1828.7 0 1783 0C1737.3 0 1691.7 0 1646 0C1600.3 0 1554.7 0 1508.8 0C1463 0 1417 0 1371.2 0C1325.3 0 1279.7 0 1234 0C1188.3 0 1142.7 0 1097 0C1051.3 0 1005.7 0 960 0C914.3 0 868.7 0 823 0C777.3 0 731.7 0 686 0C640.3 0 594.7 0 548.8 0C503 0 457 0 411.2 0C365.3 0 319.7 0 274 0C228.3 0 182.7 0 137 0C91.3 0 45.7 0 22.8 0L0 0Z" fill="#434c58"></path><path d="M0 80L22.8 74.7C45.7 69.3 91.3 58.7 137 53.2C182.7 47.7 228.3 47.3 274 54C319.7 60.7 365.3 74.3 411.2 75.5C457 76.7 503 65.3 548.8 63.5C594.7 61.7 640.3 69.3 686 73C731.7 76.7 777.3 76.3 823 77.2C868.7 78 914.3 80 960 75.8C1005.7 71.7 1051.3 61.3 1097 54.3C1142.7 47.3 1188.3 43.7 1234 49.8C1279.7 56 1325.3 72 1371.2 73.3C1417 74.7 1463 61.3 1508.8 56C1554.7 50.7 1600.3 53.3 1646 55.7C1691.7 58 1737.3 60 1783 59.2C1828.7 58.3 1874.3 54.7 1897.2 52.8L1920 51L1920 0L1897.2 0C1874.3 0 1828.7 0 1783 0C1737.3 0 1691.7 0 1646 0C1600.3 0 1554.7 0 1508.8 0C1463 0 1417 0 1371.2 0C1325.3 0 1279.7 0 1234 0C1188.3 0 1142.7 0 1097 0C1051.3 0 1005.7 0 960 0C914.3 0 868.7 0 823 0C777.3 0 731.7 0 686 0C640.3 0 594.7 0 548.8 0C503 0 457 0 411.2 0C365.3 0 319.7 0 274 0C228.3 0 182.7 0 137 0C91.3 0 45.7 0 22.8 0L0 0Z" fill="#222e3b"></path><path d="M0 54L22.8 50C45.7 46 91.3 38 137 32.7C182.7 27.3 228.3 24.7 274 23.7C319.7 22.7 365.3 23.3 411.2 23.2C457 23 503 22 548.8 23C594.7 24 640.3 27 686 27C731.7 27 777.3 24 823 21C868.7 18 914.3 15 960 21C1005.7 27 1051.3 42 1097 47C1142.7 52 1188.3 47 1234 41.7C1279.7 36.3 1325.3 30.7 1371.2 28.7C1417 26.7 1463 28.3 1508.8 33.3C1554.7 38.3 1600.3 46.7 1646 51C1691.7 55.3 1737.3 55.7 1783 50.7C1828.7 45.7 1874.3 35.3 1897.2 30.2L1920 25L1920 0L1897.2 0C1874.3 0 1828.7 0 1783 0C1737.3 0 1691.7 0 1646 0C1600.3 0 1554.7 0 1508.8 0C1463 0 1417 0 1371.2 0C1325.3 0 1279.7 0 1234 0C1188.3 0 1142.7 0 1097 0C1051.3 0 1005.7 0 960 0C914.3 0 868.7 0 823 0C777.3 0 731.7 0 686 0C640.3 0 594.7 0 548.8 0C503 0 457 0 411.2 0C365.3 0 319.7 0 274 0C228.3 0 182.7 0 137 0C91.3 0 45.7 0 22.8 0L0 0Z" fill="#001220"></path></svg>