<svg
  id="visual"
  viewBox="0 0 1920 400"
  width="1920"
  height="400"
  xmlns="http://www.w3.org/2000/svg"
  xmlns:xlink="http://www.w3.org/1999/xlink"
  version="1.1"
>
  <rect x="0" y="0" width="1920" height="400" fill="#001220"></rect>
  <path
    d="M0 49L13.8 51.7C27.7 54.3 55.3 59.7 83.2 58.5C111 57.3 139 49.7 166.8 51.2C194.7 52.7 222.3 63.3 250.2 62.8C278 62.3 306 50.7 333.8 51.5C361.7 52.3 389.3 65.7 417.2 70.5C445 75.3 473 71.7 500.8 64.2C528.7 56.7 556.3 45.3 584.2 43.2C612 41 640 48 667.8 50.2C695.7 52.3 723.3 49.7 751.2 48.7C779 47.7 807 48.3 834.8 50.3C862.7 52.3 890.3 55.7 918.2 53.7C946 51.7 974 44.3 1001.8 38.2C1029.7 32 1057.3 27 1085.2 31.7C1113 36.3 1141 50.7 1168.8 52.8C1196.7 55 1224.3 45 1252.2 37.7C1280 30.3 1308 25.7 1335.8 24.7C1363.7 23.7 1391.3 26.3 1419.2 27.2C1447 28 1475 27 1502.8 29C1530.7 31 1558.3 36 1586.2 41C1614 46 1642 51 1669.8 49.7C1697.7 48.3 1725.3 40.7 1753.2 35.5C1781 30.3 1809 27.7 1836.8 26.8C1864.7 26 1892.3 27 1906.2 27.5L1920 28L1920 401L1906.2 401C1892.3 401 1864.7 401 1836.8 401C1809 401 1781 401 1753.2 401C1725.3 401 1697.7 401 1669.8 401C1642 401 1614 401 1586.2 401C1558.3 401 1530.7 401 1502.8 401C1475 401 1447 401 1419.2 401C1391.3 401 1363.7 401 1335.8 401C1308 401 1280 401 1252.2 401C1224.3 401 1196.7 401 1168.8 401C1141 401 1113 401 1085.2 401C1057.3 401 1029.7 401 1001.8 401C974 401 946 401 918.2 401C890.3 401 862.7 401 834.8 401C807 401 779 401 751.2 401C723.3 401 695.7 401 667.8 401C640 401 612 401 584.2 401C556.3 401 528.7 401 500.8 401C473 401 445 401 417.2 401C389.3 401 361.7 401 333.8 401C306 401 278 401 250.2 401C222.3 401 194.7 401 166.8 401C139 401 111 401 83.2 401C55.3 401 27.7 401 13.8 401L0 401Z"
    fill="#001220"
  ></path>
  <path
    d="M0 112L13.8 111.7C27.7 111.3 55.3 110.7 83.2 104.7C111 98.7 139 87.3 166.8 89.7C194.7 92 222.3 108 250.2 108.2C278 108.3 306 92.7 333.8 93.3C361.7 94 389.3 111 417.2 115C445 119 473 110 500.8 101.5C528.7 93 556.3 85 584.2 82.2C612 79.3 640 81.7 667.8 89.5C695.7 97.3 723.3 110.7 751.2 109C779 107.3 807 90.7 834.8 88.2C862.7 85.7 890.3 97.3 918.2 101.2C946 105 974 101 1001.8 99.7C1029.7 98.3 1057.3 99.7 1085.2 100.2C1113 100.7 1141 100.3 1168.8 101.3C1196.7 102.3 1224.3 104.7 1252.2 108.5C1280 112.3 1308 117.7 1335.8 116.3C1363.7 115 1391.3 107 1419.2 98.8C1447 90.7 1475 82.3 1502.8 85.7C1530.7 89 1558.3 104 1586.2 105.5C1614 107 1642 95 1669.8 89.3C1697.7 83.7 1725.3 84.3 1753.2 88.8C1781 93.3 1809 101.7 1836.8 99.5C1864.7 97.3 1892.3 84.7 1906.2 78.3L1920 72L1920 401L1906.2 401C1892.3 401 1864.7 401 1836.8 401C1809 401 1781 401 1753.2 401C1725.3 401 1697.7 401 1669.8 401C1642 401 1614 401 1586.2 401C1558.3 401 1530.7 401 1502.8 401C1475 401 1447 401 1419.2 401C1391.3 401 1363.7 401 1335.8 401C1308 401 1280 401 1252.2 401C1224.3 401 1196.7 401 1168.8 401C1141 401 1113 401 1085.2 401C1057.3 401 1029.7 401 1001.8 401C974 401 946 401 918.2 401C890.3 401 862.7 401 834.8 401C807 401 779 401 751.2 401C723.3 401 695.7 401 667.8 401C640 401 612 401 584.2 401C556.3 401 528.7 401 500.8 401C473 401 445 401 417.2 401C389.3 401 361.7 401 333.8 401C306 401 278 401 250.2 401C222.3 401 194.7 401 166.8 401C139 401 111 401 83.2 401C55.3 401 27.7 401 13.8 401L0 401Z"
    fill="#273340"
  ></path>
  <path
    d="M0 135L13.8 133.2C27.7 131.3 55.3 127.7 83.2 127.8C111 128 139 132 166.8 137.2C194.7 142.3 222.3 148.7 250.2 152.8C278 157 306 159 333.8 162.3C361.7 165.7 389.3 170.3 417.2 171C445 171.7 473 168.3 500.8 159.8C528.7 151.3 556.3 137.7 584.2 136.3C612 135 640 146 667.8 145.5C695.7 145 723.3 133 751.2 134.8C779 136.7 807 152.3 834.8 160.2C862.7 168 890.3 168 918.2 169.2C946 170.3 974 172.7 1001.8 171.7C1029.7 170.7 1057.3 166.3 1085.2 164.5C1113 162.7 1141 163.3 1168.8 157.7C1196.7 152 1224.3 140 1252.2 139.7C1280 139.3 1308 150.7 1335.8 150.7C1363.7 150.7 1391.3 139.3 1419.2 133.2C1447 127 1475 126 1502.8 131.8C1530.7 137.7 1558.3 150.3 1586.2 153C1614 155.7 1642 148.3 1669.8 146.3C1697.7 144.3 1725.3 147.7 1753.2 153.5C1781 159.3 1809 167.7 1836.8 166C1864.7 164.3 1892.3 152.7 1906.2 146.8L1920 141L1920 401L1906.2 401C1892.3 401 1864.7 401 1836.8 401C1809 401 1781 401 1753.2 401C1725.3 401 1697.7 401 1669.8 401C1642 401 1614 401 1586.2 401C1558.3 401 1530.7 401 1502.8 401C1475 401 1447 401 1419.2 401C1391.3 401 1363.7 401 1335.8 401C1308 401 1280 401 1252.2 401C1224.3 401 1196.7 401 1168.8 401C1141 401 1113 401 1085.2 401C1057.3 401 1029.7 401 1001.8 401C974 401 946 401 918.2 401C890.3 401 862.7 401 834.8 401C807 401 779 401 751.2 401C723.3 401 695.7 401 667.8 401C640 401 612 401 584.2 401C556.3 401 528.7 401 500.8 401C473 401 445 401 417.2 401C389.3 401 361.7 401 333.8 401C306 401 278 401 250.2 401C222.3 401 194.7 401 166.8 401C139 401 111 401 83.2 401C55.3 401 27.7 401 13.8 401L0 401Z"
    fill="#4e5762"
  ></path>
  <path
    d="M0 176L13.8 175.8C27.7 175.7 55.3 175.3 83.2 179.3C111 183.3 139 191.7 166.8 193.8C194.7 196 222.3 192 250.2 190.3C278 188.7 306 189.3 333.8 191.8C361.7 194.3 389.3 198.7 417.2 204.2C445 209.7 473 216.3 500.8 214.2C528.7 212 556.3 201 584.2 201.3C612 201.7 640 213.3 667.8 218.2C695.7 223 723.3 221 751.2 213.7C779 206.3 807 193.7 834.8 190.7C862.7 187.7 890.3 194.3 918.2 194.7C946 195 974 189 1001.8 190C1029.7 191 1057.3 199 1085.2 206.3C1113 213.7 1141 220.3 1168.8 216.2C1196.7 212 1224.3 197 1252.2 190.3C1280 183.7 1308 185.3 1335.8 191.2C1363.7 197 1391.3 207 1419.2 205.8C1447 204.7 1475 192.3 1502.8 186.2C1530.7 180 1558.3 180 1586.2 182.3C1614 184.7 1642 189.3 1669.8 192.2C1697.7 195 1725.3 196 1753.2 200.5C1781 205 1809 213 1836.8 215.8C1864.7 218.7 1892.3 216.3 1906.2 215.2L1920 214L1920 401L1906.2 401C1892.3 401 1864.7 401 1836.8 401C1809 401 1781 401 1753.2 401C1725.3 401 1697.7 401 1669.8 401C1642 401 1614 401 1586.2 401C1558.3 401 1530.7 401 1502.8 401C1475 401 1447 401 1419.2 401C1391.3 401 1363.7 401 1335.8 401C1308 401 1280 401 1252.2 401C1224.3 401 1196.7 401 1168.8 401C1141 401 1113 401 1085.2 401C1057.3 401 1029.7 401 1001.8 401C974 401 946 401 918.2 401C890.3 401 862.7 401 834.8 401C807 401 779 401 751.2 401C723.3 401 695.7 401 667.8 401C640 401 612 401 584.2 401C556.3 401 528.7 401 500.8 401C473 401 445 401 417.2 401C389.3 401 361.7 401 333.8 401C306 401 278 401 250.2 401C222.3 401 194.7 401 166.8 401C139 401 111 401 83.2 401C55.3 401 27.7 401 13.8 401L0 401Z"
    fill="#777e87"
  ></path>
  <path
    d="M0 276L13.8 270.2C27.7 264.3 55.3 252.7 83.2 245.2C111 237.7 139 234.3 166.8 233C194.7 231.7 222.3 232.3 250.2 238.5C278 244.7 306 256.3 333.8 262.2C361.7 268 389.3 268 417.2 265C445 262 473 256 500.8 252.7C528.7 249.3 556.3 248.7 584.2 250.8C612 253 640 258 667.8 260.2C695.7 262.3 723.3 261.7 751.2 264C779 266.3 807 271.7 834.8 266.8C862.7 262 890.3 247 918.2 242.5C946 238 974 244 1001.8 249.3C1029.7 254.7 1057.3 259.3 1085.2 261.8C1113 264.3 1141 264.7 1168.8 261.3C1196.7 258 1224.3 251 1252.2 246.5C1280 242 1308 240 1335.8 243.2C1363.7 246.3 1391.3 254.7 1419.2 254.3C1447 254 1475 245 1502.8 238.3C1530.7 231.7 1558.3 227.3 1586.2 228.7C1614 230 1642 237 1669.8 239.7C1697.7 242.3 1725.3 240.7 1753.2 241.8C1781 243 1809 247 1836.8 252.7C1864.7 258.3 1892.3 265.7 1906.2 269.3L1920 273L1920 401L1906.2 401C1892.3 401 1864.7 401 1836.8 401C1809 401 1781 401 1753.2 401C1725.3 401 1697.7 401 1669.8 401C1642 401 1614 401 1586.2 401C1558.3 401 1530.7 401 1502.8 401C1475 401 1447 401 1419.2 401C1391.3 401 1363.7 401 1335.8 401C1308 401 1280 401 1252.2 401C1224.3 401 1196.7 401 1168.8 401C1141 401 1113 401 1085.2 401C1057.3 401 1029.7 401 1001.8 401C974 401 946 401 918.2 401C890.3 401 862.7 401 834.8 401C807 401 779 401 751.2 401C723.3 401 695.7 401 667.8 401C640 401 612 401 584.2 401C556.3 401 528.7 401 500.8 401C473 401 445 401 417.2 401C389.3 401 361.7 401 333.8 401C306 401 278 401 250.2 401C222.3 401 194.7 401 166.8 401C139 401 111 401 83.2 401C55.3 401 27.7 401 13.8 401L0 401Z"
    fill="#a2a7ad"
  ></path>
  <path
    d="M0 316L13.8 314.8C27.7 313.7 55.3 311.3 83.2 306.7C111 302 139 295 166.8 297C194.7 299 222.3 310 250.2 314.7C278 319.3 306 317.7 333.8 311.5C361.7 305.3 389.3 294.7 417.2 291.5C445 288.3 473 292.7 500.8 292.5C528.7 292.3 556.3 287.7 584.2 290.2C612 292.7 640 302.3 667.8 305.5C695.7 308.7 723.3 305.3 751.2 301.5C779 297.7 807 293.3 834.8 293.2C862.7 293 890.3 297 918.2 293.7C946 290.3 974 279.7 1001.8 277.7C1029.7 275.7 1057.3 282.3 1085.2 285.2C1113 288 1141 287 1168.8 293.3C1196.7 299.7 1224.3 313.3 1252.2 316C1280 318.7 1308 310.3 1335.8 308.3C1363.7 306.3 1391.3 310.7 1419.2 308.8C1447 307 1475 299 1502.8 297.5C1530.7 296 1558.3 301 1586.2 304.5C1614 308 1642 310 1669.8 306C1697.7 302 1725.3 292 1753.2 286C1781 280 1809 278 1836.8 285.2C1864.7 292.3 1892.3 308.7 1906.2 316.8L1920 325L1920 401L1906.2 401C1892.3 401 1864.7 401 1836.8 401C1809 401 1781 401 1753.2 401C1725.3 401 1697.7 401 1669.8 401C1642 401 1614 401 1586.2 401C1558.3 401 1530.7 401 1502.8 401C1475 401 1447 401 1419.2 401C1391.3 401 1363.7 401 1335.8 401C1308 401 1280 401 1252.2 401C1224.3 401 1196.7 401 1168.8 401C1141 401 1113 401 1085.2 401C1057.3 401 1029.7 401 1001.8 401C974 401 946 401 918.2 401C890.3 401 862.7 401 834.8 401C807 401 779 401 751.2 401C723.3 401 695.7 401 667.8 401C640 401 612 401 584.2 401C556.3 401 528.7 401 500.8 401C473 401 445 401 417.2 401C389.3 401 361.7 401 333.8 401C306 401 278 401 250.2 401C222.3 401 194.7 401 166.8 401C139 401 111 401 83.2 401C55.3 401 27.7 401 13.8 401L0 401Z"
    fill="#d0d2d5"
  ></path>
  <path
    d="M0 348L13.8 347.3C27.7 346.7 55.3 345.3 83.2 344.7C111 344 139 344 166.8 345.7C194.7 347.3 222.3 350.7 250.2 349.8C278 349 306 344 333.8 341.2C361.7 338.3 389.3 337.7 417.2 341C445 344.3 473 351.7 500.8 350.2C528.7 348.7 556.3 338.3 584.2 340.2C612 342 640 356 667.8 363.8C695.7 371.7 723.3 373.3 751.2 368.3C779 363.3 807 351.7 834.8 349.7C862.7 347.7 890.3 355.3 918.2 354.2C946 353 974 343 1001.8 345C1029.7 347 1057.3 361 1085.2 358.8C1113 356.7 1141 338.3 1168.8 334.8C1196.7 331.3 1224.3 342.7 1252.2 346.8C1280 351 1308 348 1335.8 343.8C1363.7 339.7 1391.3 334.3 1419.2 339.3C1447 344.3 1475 359.7 1502.8 359.8C1530.7 360 1558.3 345 1586.2 338.5C1614 332 1642 334 1669.8 333C1697.7 332 1725.3 328 1753.2 327.2C1781 326.3 1809 328.7 1836.8 328.2C1864.7 327.7 1892.3 324.3 1906.2 322.7L1920 321L1920 401L1906.2 401C1892.3 401 1864.7 401 1836.8 401C1809 401 1781 401 1753.2 401C1725.3 401 1697.7 401 1669.8 401C1642 401 1614 401 1586.2 401C1558.3 401 1530.7 401 1502.8 401C1475 401 1447 401 1419.2 401C1391.3 401 1363.7 401 1335.8 401C1308 401 1280 401 1252.2 401C1224.3 401 1196.7 401 1168.8 401C1141 401 1113 401 1085.2 401C1057.3 401 1029.7 401 1001.8 401C974 401 946 401 918.2 401C890.3 401 862.7 401 834.8 401C807 401 779 401 751.2 401C723.3 401 695.7 401 667.8 401C640 401 612 401 584.2 401C556.3 401 528.7 401 500.8 401C473 401 445 401 417.2 401C389.3 401 361.7 401 333.8 401C306 401 278 401 250.2 401C222.3 401 194.7 401 166.8 401C139 401 111 401 83.2 401C55.3 401 27.7 401 13.8 401L0 401Z"
    fill="#ffffff"
  ></path>
</svg>
