<svg
  id="visual"
  viewBox="0 0 1920 400"
  width="1920"
  height="400"
  xmlns="http://www.w3.org/2000/svg"
  xmlns:xlink="http://www.w3.org/1999/xlink"
  version="1.1"
>
  <rect x="0" y="0" width="1920" height="400" fill="#001220"></rect>
  <path
    d="M0 196L22.8 196.3C45.7 196.7 91.3 197.3 137 200.8C182.7 204.3 228.3 210.7 274 209.7C319.7 208.7 365.3 200.3 411.2 199.8C457 199.3 503 206.7 548.8 208.2C594.7 209.7 640.3 205.3 686 202.2C731.7 199 777.3 197 823 196.8C868.7 196.7 914.3 198.3 960 201.8C1005.7 205.3 1051.3 210.7 1097 211C1142.7 211.3 1188.3 206.7 1234 202.5C1279.7 198.3 1325.3 194.7 1371.2 195.8C1417 197 1463 203 1508.8 204.5C1554.7 206 1600.3 203 1646 202.8C1691.7 202.7 1737.3 205.3 1783 206.5C1828.7 207.7 1874.3 207.3 1897.2 207.2L1920 207L1920 0L1897.2 0C1874.3 0 1828.7 0 1783 0C1737.3 0 1691.7 0 1646 0C1600.3 0 1554.7 0 1508.8 0C1463 0 1417 0 1371.2 0C1325.3 0 1279.7 0 1234 0C1188.3 0 1142.7 0 1097 0C1051.3 0 1005.7 0 960 0C914.3 0 868.7 0 823 0C777.3 0 731.7 0 686 0C640.3 0 594.7 0 548.8 0C503 0 457 0 411.2 0C365.3 0 319.7 0 274 0C228.3 0 182.7 0 137 0C91.3 0 45.7 0 22.8 0L0 0Z"
    fill="#001220"
  ></path>
  <path
    d="M0 184L22.8 182.2C45.7 180.3 91.3 176.7 137 174.3C182.7 172 228.3 171 274 172.8C319.7 174.7 365.3 179.3 411.2 183.3C457 187.3 503 190.7 548.8 188.7C594.7 186.7 640.3 179.3 686 177.2C731.7 175 777.3 178 823 177.8C868.7 177.7 914.3 174.3 960 175.3C1005.7 176.3 1051.3 181.7 1097 185.7C1142.7 189.7 1188.3 192.3 1234 191.8C1279.7 191.3 1325.3 187.7 1371.2 184.8C1417 182 1463 180 1508.8 179.5C1554.7 179 1600.3 180 1646 181.7C1691.7 183.3 1737.3 185.7 1783 187.2C1828.7 188.7 1874.3 189.3 1897.2 189.7L1920 190L1920 0L1897.2 0C1874.3 0 1828.7 0 1783 0C1737.3 0 1691.7 0 1646 0C1600.3 0 1554.7 0 1508.8 0C1463 0 1417 0 1371.2 0C1325.3 0 1279.7 0 1234 0C1188.3 0 1142.7 0 1097 0C1051.3 0 1005.7 0 960 0C914.3 0 868.7 0 823 0C777.3 0 731.7 0 686 0C640.3 0 594.7 0 548.8 0C503 0 457 0 411.2 0C365.3 0 319.7 0 274 0C228.3 0 182.7 0 137 0C91.3 0 45.7 0 22.8 0L0 0Z"
    fill="#172242"
  ></path>
  <path
    d="M0 151L22.8 151.8C45.7 152.7 91.3 154.3 137 153.3C182.7 152.3 228.3 148.7 274 147C319.7 145.3 365.3 145.7 411.2 146.2C457 146.7 503 147.3 548.8 147.8C594.7 148.3 640.3 148.7 686 150.2C731.7 151.7 777.3 154.3 823 155C868.7 155.7 914.3 154.3 960 150.3C1005.7 146.3 1051.3 139.7 1097 138.2C1142.7 136.7 1188.3 140.3 1234 142.5C1279.7 144.7 1325.3 145.3 1371.2 148C1417 150.7 1463 155.3 1508.8 153.7C1554.7 152 1600.3 144 1646 144.2C1691.7 144.3 1737.3 152.7 1783 153.5C1828.7 154.3 1874.3 147.7 1897.2 144.3L1920 141L1920 0L1897.2 0C1874.3 0 1828.7 0 1783 0C1737.3 0 1691.7 0 1646 0C1600.3 0 1554.7 0 1508.8 0C1463 0 1417 0 1371.2 0C1325.3 0 1279.7 0 1234 0C1188.3 0 1142.7 0 1097 0C1051.3 0 1005.7 0 960 0C914.3 0 868.7 0 823 0C777.3 0 731.7 0 686 0C640.3 0 594.7 0 548.8 0C503 0 457 0 411.2 0C365.3 0 319.7 0 274 0C228.3 0 182.7 0 137 0C91.3 0 45.7 0 22.8 0L0 0Z"
    fill="#442c5e"
  ></path>
  <path
    d="M0 128L22.8 125C45.7 122 91.3 116 137 114.7C182.7 113.3 228.3 116.7 274 120.5C319.7 124.3 365.3 128.7 411.2 129.8C457 131 503 129 548.8 126.5C594.7 124 640.3 121 686 117C731.7 113 777.3 108 823 107.7C868.7 107.3 914.3 111.7 960 113.5C1005.7 115.3 1051.3 114.7 1097 114.3C1142.7 114 1188.3 114 1234 114.7C1279.7 115.3 1325.3 116.7 1371.2 117.2C1417 117.7 1463 117.3 1508.8 120.5C1554.7 123.7 1600.3 130.3 1646 128.5C1691.7 126.7 1737.3 116.3 1783 115.8C1828.7 115.3 1874.3 124.7 1897.2 129.3L1920 134L1920 0L1897.2 0C1874.3 0 1828.7 0 1783 0C1737.3 0 1691.7 0 1646 0C1600.3 0 1554.7 0 1508.8 0C1463 0 1417 0 1371.2 0C1325.3 0 1279.7 0 1234 0C1188.3 0 1142.7 0 1097 0C1051.3 0 1005.7 0 960 0C914.3 0 868.7 0 823 0C777.3 0 731.7 0 686 0C640.3 0 594.7 0 548.8 0C503 0 457 0 411.2 0C365.3 0 319.7 0 274 0C228.3 0 182.7 0 137 0C91.3 0 45.7 0 22.8 0L0 0Z"
    fill="#7a2f6b"
  ></path>
  <path
    d="M0 87L22.8 88C45.7 89 91.3 91 137 90C182.7 89 228.3 85 274 82C319.7 79 365.3 77 411.2 80.2C457 83.3 503 91.7 548.8 92.3C594.7 93 640.3 86 686 87C731.7 88 777.3 97 823 97.7C868.7 98.3 914.3 90.7 960 86.3C1005.7 82 1051.3 81 1097 79.7C1142.7 78.3 1188.3 76.7 1234 80.8C1279.7 85 1325.3 95 1371.2 97.2C1417 99.3 1463 93.7 1508.8 93.3C1554.7 93 1600.3 98 1646 101C1691.7 104 1737.3 105 1783 101.8C1828.7 98.7 1874.3 91.3 1897.2 87.7L1920 84L1920 0L1897.2 0C1874.3 0 1828.7 0 1783 0C1737.3 0 1691.7 0 1646 0C1600.3 0 1554.7 0 1508.8 0C1463 0 1417 0 1371.2 0C1325.3 0 1279.7 0 1234 0C1188.3 0 1142.7 0 1097 0C1051.3 0 1005.7 0 960 0C914.3 0 868.7 0 823 0C777.3 0 731.7 0 686 0C640.3 0 594.7 0 548.8 0C503 0 457 0 411.2 0C365.3 0 319.7 0 274 0C228.3 0 182.7 0 137 0C91.3 0 45.7 0 22.8 0L0 0Z"
    fill="#b02e66"
  ></path>
  <path
    d="M0 61L22.8 60.3C45.7 59.7 91.3 58.3 137 55.2C182.7 52 228.3 47 274 49.3C319.7 51.7 365.3 61.3 411.2 61.7C457 62 503 53 548.8 53.5C594.7 54 640.3 64 686 68C731.7 72 777.3 70 823 70.2C868.7 70.3 914.3 72.7 960 68.7C1005.7 64.7 1051.3 54.3 1097 51.7C1142.7 49 1188.3 54 1234 55.7C1279.7 57.3 1325.3 55.7 1371.2 58C1417 60.3 1463 66.7 1508.8 65.8C1554.7 65 1600.3 57 1646 57.5C1691.7 58 1737.3 67 1783 71.3C1828.7 75.7 1874.3 75.3 1897.2 75.2L1920 75L1920 0L1897.2 0C1874.3 0 1828.7 0 1783 0C1737.3 0 1691.7 0 1646 0C1600.3 0 1554.7 0 1508.8 0C1463 0 1417 0 1371.2 0C1325.3 0 1279.7 0 1234 0C1188.3 0 1142.7 0 1097 0C1051.3 0 1005.7 0 960 0C914.3 0 868.7 0 823 0C777.3 0 731.7 0 686 0C640.3 0 594.7 0 548.8 0C503 0 457 0 411.2 0C365.3 0 319.7 0 274 0C228.3 0 182.7 0 137 0C91.3 0 45.7 0 22.8 0L0 0Z"
    fill="#db3c51"
  ></path>
  <path
    d="M0 32L22.8 31.7C45.7 31.3 91.3 30.7 137 33C182.7 35.3 228.3 40.7 274 38.7C319.7 36.7 365.3 27.3 411.2 22.2C457 17 503 16 548.8 15C594.7 14 640.3 13 686 14.8C731.7 16.7 777.3 21.3 823 24C868.7 26.7 914.3 27.3 960 28.7C1005.7 30 1051.3 32 1097 30.5C1142.7 29 1188.3 24 1234 21.5C1279.7 19 1325.3 19 1371.2 23.2C1417 27.3 1463 35.7 1508.8 35.5C1554.7 35.3 1600.3 26.7 1646 26.7C1691.7 26.7 1737.3 35.3 1783 34.5C1828.7 33.7 1874.3 23.3 1897.2 18.2L1920 13L1920 0L1897.2 0C1874.3 0 1828.7 0 1783 0C1737.3 0 1691.7 0 1646 0C1600.3 0 1554.7 0 1508.8 0C1463 0 1417 0 1371.2 0C1325.3 0 1279.7 0 1234 0C1188.3 0 1142.7 0 1097 0C1051.3 0 1005.7 0 960 0C914.3 0 868.7 0 823 0C777.3 0 731.7 0 686 0C640.3 0 594.7 0 548.8 0C503 0 457 0 411.2 0C365.3 0 319.7 0 274 0C228.3 0 182.7 0 137 0C91.3 0 45.7 0 22.8 0L0 0Z"
    fill="#f4602c"
  ></path>
</svg>
