<svg id="visual" viewBox="0 0 1920 400" width="1920" height="400" xmlns="http://www.w3.org/2000/svg" xmlns:xlink="http://www.w3.org/1999/xlink" version="1.1"><rect x="0" y="0" width="1920" height="400" fill="#001220"></rect><path d="M0 346L22.8 351.3C45.7 356.7 91.3 367.3 137 365.3C182.7 363.3 228.3 348.7 274 343.3C319.7 338 365.3 342 411.2 347.3C457 352.7 503 359.3 548.8 359.8C594.7 360.3 640.3 354.7 686 353.3C731.7 352 777.3 355 823 356.2C868.7 357.3 914.3 356.7 960 353.7C1005.7 350.7 1051.3 345.3 1097 348.8C1142.7 352.3 1188.3 364.7 1234 362.7C1279.7 360.7 1325.3 344.3 1371.2 340.7C1417 337 1463 346 1508.8 346.2C1554.7 346.3 1600.3 337.7 1646 333C1691.7 328.3 1737.3 327.7 1783 330.5C1828.7 333.3 1874.3 339.7 1897.2 342.8L1920 346L1920 0L1897.2 0C1874.3 0 1828.7 0 1783 0C1737.3 0 1691.7 0 1646 0C1600.3 0 1554.7 0 1508.8 0C1463 0 1417 0 1371.2 0C1325.3 0 1279.7 0 1234 0C1188.3 0 1142.7 0 1097 0C1051.3 0 1005.7 0 960 0C914.3 0 868.7 0 823 0C777.3 0 731.7 0 686 0C640.3 0 594.7 0 548.8 0C503 0 457 0 411.2 0C365.3 0 319.7 0 274 0C228.3 0 182.7 0 137 0C91.3 0 45.7 0 22.8 0L0 0Z" fill="#001220"></path><path d="M0 327L22.8 325.5C45.7 324 91.3 321 137 312.2C182.7 303.3 228.3 288.7 274 290.2C319.7 291.7 365.3 309.3 411.2 310.8C457 312.3 503 297.7 548.8 297.5C594.7 297.3 640.3 311.7 686 315C731.7 318.3 777.3 310.7 823 305.3C868.7 300 914.3 297 960 298.7C1005.7 300.3 1051.3 306.7 1097 309.5C1142.7 312.3 1188.3 311.7 1234 306.7C1279.7 301.7 1325.3 292.3 1371.2 286.8C1417 281.3 1463 279.7 1508.8 282.8C1554.7 286 1600.3 294 1646 300C1691.7 306 1737.3 310 1783 307.3C1828.7 304.7 1874.3 295.3 1897.2 290.7L1920 286L1920 0L1897.2 0C1874.3 0 1828.7 0 1783 0C1737.3 0 1691.7 0 1646 0C1600.3 0 1554.7 0 1508.8 0C1463 0 1417 0 1371.2 0C1325.3 0 1279.7 0 1234 0C1188.3 0 1142.7 0 1097 0C1051.3 0 1005.7 0 960 0C914.3 0 868.7 0 823 0C777.3 0 731.7 0 686 0C640.3 0 594.7 0 548.8 0C503 0 457 0 411.2 0C365.3 0 319.7 0 274 0C228.3 0 182.7 0 137 0C91.3 0 45.7 0 22.8 0L0 0Z" fill="#172242"></path><path d="M0 250L22.8 254.7C45.7 259.3 91.3 268.7 137 266.8C182.7 265 228.3 252 274 251.7C319.7 251.3 365.3 263.7 411.2 261.5C457 259.3 503 242.7 548.8 240.2C594.7 237.7 640.3 249.3 686 252.8C731.7 256.3 777.3 251.7 823 248.2C868.7 244.7 914.3 242.3 960 238.8C1005.7 235.3 1051.3 230.7 1097 228.5C1142.7 226.3 1188.3 226.7 1234 232.2C1279.7 237.7 1325.3 248.3 1371.2 248C1417 247.7 1463 236.3 1508.8 235.5C1554.7 234.7 1600.3 244.3 1646 248.7C1691.7 253 1737.3 252 1783 252.3C1828.7 252.7 1874.3 254.3 1897.2 255.2L1920 256L1920 0L1897.2 0C1874.3 0 1828.7 0 1783 0C1737.3 0 1691.7 0 1646 0C1600.3 0 1554.7 0 1508.8 0C1463 0 1417 0 1371.2 0C1325.3 0 1279.7 0 1234 0C1188.3 0 1142.7 0 1097 0C1051.3 0 1005.7 0 960 0C914.3 0 868.7 0 823 0C777.3 0 731.7 0 686 0C640.3 0 594.7 0 548.8 0C503 0 457 0 411.2 0C365.3 0 319.7 0 274 0C228.3 0 182.7 0 137 0C91.3 0 45.7 0 22.8 0L0 0Z" fill="#442c5e"></path><path d="M0 207L22.8 202C45.7 197 91.3 187 137 184.3C182.7 181.7 228.3 186.3 274 186.8C319.7 187.3 365.3 183.7 411.2 181.7C457 179.7 503 179.3 548.8 182.5C594.7 185.7 640.3 192.3 686 191.2C731.7 190 777.3 181 823 180.2C868.7 179.3 914.3 186.7 960 186.3C1005.7 186 1051.3 178 1097 182.8C1142.7 187.7 1188.3 205.3 1234 213.3C1279.7 221.3 1325.3 219.7 1371.2 217.2C1417 214.7 1463 211.3 1508.8 207.3C1554.7 203.3 1600.3 198.7 1646 200.3C1691.7 202 1737.3 210 1783 209.2C1828.7 208.3 1874.3 198.7 1897.2 193.8L1920 189L1920 0L1897.2 0C1874.3 0 1828.7 0 1783 0C1737.3 0 1691.7 0 1646 0C1600.3 0 1554.7 0 1508.8 0C1463 0 1417 0 1371.2 0C1325.3 0 1279.7 0 1234 0C1188.3 0 1142.7 0 1097 0C1051.3 0 1005.7 0 960 0C914.3 0 868.7 0 823 0C777.3 0 731.7 0 686 0C640.3 0 594.7 0 548.8 0C503 0 457 0 411.2 0C365.3 0 319.7 0 274 0C228.3 0 182.7 0 137 0C91.3 0 45.7 0 22.8 0L0 0Z" fill="#7a2f6b"></path><path d="M0 150L22.8 145.7C45.7 141.3 91.3 132.7 137 137C182.7 141.3 228.3 158.7 274 158.3C319.7 158 365.3 140 411.2 138C457 136 503 150 548.8 156.5C594.7 163 640.3 162 686 157.7C731.7 153.3 777.3 145.7 823 144.3C868.7 143 914.3 148 960 145C1005.7 142 1051.3 131 1097 126.2C1142.7 121.3 1188.3 122.7 1234 131.5C1279.7 140.3 1325.3 156.7 1371.2 160.3C1417 164 1463 155 1508.8 151.2C1554.7 147.3 1600.3 148.7 1646 146.7C1691.7 144.7 1737.3 139.3 1783 140.2C1828.7 141 1874.3 148 1897.2 151.5L1920 155L1920 0L1897.2 0C1874.3 0 1828.7 0 1783 0C1737.3 0 1691.7 0 1646 0C1600.3 0 1554.7 0 1508.8 0C1463 0 1417 0 1371.2 0C1325.3 0 1279.7 0 1234 0C1188.3 0 1142.7 0 1097 0C1051.3 0 1005.7 0 960 0C914.3 0 868.7 0 823 0C777.3 0 731.7 0 686 0C640.3 0 594.7 0 548.8 0C503 0 457 0 411.2 0C365.3 0 319.7 0 274 0C228.3 0 182.7 0 137 0C91.3 0 45.7 0 22.8 0L0 0Z" fill="#b02e66"></path><path d="M0 81L22.8 81C45.7 81 91.3 81 137 87C182.7 93 228.3 105 274 108C319.7 111 365.3 105 411.2 97.5C457 90 503 81 548.8 83.5C594.7 86 640.3 100 686 105.5C731.7 111 777.3 108 823 101.2C868.7 94.3 914.3 83.7 960 80.8C1005.7 78 1051.3 83 1097 88.5C1142.7 94 1188.3 100 1234 98.7C1279.7 97.3 1325.3 88.7 1371.2 87.7C1417 86.7 1463 93.3 1508.8 97.3C1554.7 101.3 1600.3 102.7 1646 107C1691.7 111.3 1737.3 118.7 1783 116.8C1828.7 115 1874.3 104 1897.2 98.5L1920 93L1920 0L1897.2 0C1874.3 0 1828.7 0 1783 0C1737.3 0 1691.7 0 1646 0C1600.3 0 1554.7 0 1508.8 0C1463 0 1417 0 1371.2 0C1325.3 0 1279.7 0 1234 0C1188.3 0 1142.7 0 1097 0C1051.3 0 1005.7 0 960 0C914.3 0 868.7 0 823 0C777.3 0 731.7 0 686 0C640.3 0 594.7 0 548.8 0C503 0 457 0 411.2 0C365.3 0 319.7 0 274 0C228.3 0 182.7 0 137 0C91.3 0 45.7 0 22.8 0L0 0Z" fill="#db3c51"></path><path d="M0 38L22.8 38.8C45.7 39.7 91.3 41.3 137 45.3C182.7 49.3 228.3 55.7 274 54.7C319.7 53.7 365.3 45.3 411.2 47.3C457 49.3 503 61.7 548.8 60.5C594.7 59.3 640.3 44.7 686 44.8C731.7 45 777.3 60 823 62.2C868.7 64.3 914.3 53.7 960 48.3C1005.7 43 1051.3 43 1097 44C1142.7 45 1188.3 47 1234 50.8C1279.7 54.7 1325.3 60.3 1371.2 61.8C1417 63.3 1463 60.7 1508.8 62.2C1554.7 63.7 1600.3 69.3 1646 64.8C1691.7 60.3 1737.3 45.7 1783 41.5C1828.7 37.3 1874.3 43.7 1897.2 46.8L1920 50L1920 0L1897.2 0C1874.3 0 1828.7 0 1783 0C1737.3 0 1691.7 0 1646 0C1600.3 0 1554.7 0 1508.8 0C1463 0 1417 0 1371.2 0C1325.3 0 1279.7 0 1234 0C1188.3 0 1142.7 0 1097 0C1051.3 0 1005.7 0 960 0C914.3 0 868.7 0 823 0C777.3 0 731.7 0 686 0C640.3 0 594.7 0 548.8 0C503 0 457 0 411.2 0C365.3 0 319.7 0 274 0C228.3 0 182.7 0 137 0C91.3 0 45.7 0 22.8 0L0 0Z" fill="#f4602c"></path></svg>