<svg
  id="visual"
  viewBox="0 0 1920 300"
  width="1920"
  height="300"
  xmlns="http://www.w3.org/2000/svg"
  xmlns:xlink="http://www.w3.org/1999/xlink"
  version="1.1"
>
  <rect x="0" y="0" width="1920" height="300" fill="#001220"></rect>
  <path
    d="M0 246L22.8 245C45.7 244 91.3 242 137 241C182.7 240 228.3 240 274 245.2C319.7 250.3 365.3 260.7 411.2 268.3C457 276 503 281 548.8 276.3C594.7 271.7 640.3 257.3 686 253.2C731.7 249 777.3 255 823 259.7C868.7 264.3 914.3 267.7 960 269.2C1005.7 270.7 1051.3 270.3 1097 265.2C1142.7 260 1188.3 250 1234 249.3C1279.7 248.7 1325.3 257.3 1371.2 261.3C1417 265.3 1463 264.7 1508.8 262C1554.7 259.3 1600.3 254.7 1646 253.2C1691.7 251.7 1737.3 253.3 1783 252.7C1828.7 252 1874.3 249 1897.2 247.5L1920 246L1920 0L1897.2 0C1874.3 0 1828.7 0 1783 0C1737.3 0 1691.7 0 1646 0C1600.3 0 1554.7 0 1508.8 0C1463 0 1417 0 1371.2 0C1325.3 0 1279.7 0 1234 0C1188.3 0 1142.7 0 1097 0C1051.3 0 1005.7 0 960 0C914.3 0 868.7 0 823 0C777.3 0 731.7 0 686 0C640.3 0 594.7 0 548.8 0C503 0 457 0 411.2 0C365.3 0 319.7 0 274 0C228.3 0 182.7 0 137 0C91.3 0 45.7 0 22.8 0L0 0Z"
    fill="#001220"
  ></path>
  <path
    d="M0 215L22.8 217.8C45.7 220.7 91.3 226.3 137 226.7C182.7 227 228.3 222 274 221C319.7 220 365.3 223 411.2 221.7C457 220.3 503 214.7 548.8 214.8C594.7 215 640.3 221 686 226.3C731.7 231.7 777.3 236.3 823 232.8C868.7 229.3 914.3 217.7 960 216.2C1005.7 214.7 1051.3 223.3 1097 224.5C1142.7 225.7 1188.3 219.3 1234 219.2C1279.7 219 1325.3 225 1371.2 225.7C1417 226.3 1463 221.7 1508.8 222.8C1554.7 224 1600.3 231 1646 231.2C1691.7 231.3 1737.3 224.7 1783 224C1828.7 223.3 1874.3 228.7 1897.2 231.3L1920 234L1920 0L1897.2 0C1874.3 0 1828.7 0 1783 0C1737.3 0 1691.7 0 1646 0C1600.3 0 1554.7 0 1508.8 0C1463 0 1417 0 1371.2 0C1325.3 0 1279.7 0 1234 0C1188.3 0 1142.7 0 1097 0C1051.3 0 1005.7 0 960 0C914.3 0 868.7 0 823 0C777.3 0 731.7 0 686 0C640.3 0 594.7 0 548.8 0C503 0 457 0 411.2 0C365.3 0 319.7 0 274 0C228.3 0 182.7 0 137 0C91.3 0 45.7 0 22.8 0L0 0Z"
    fill="#12203d"
  ></path>
  <path
    d="M0 175L22.8 177.8C45.7 180.7 91.3 186.3 137 191.8C182.7 197.3 228.3 202.7 274 205.5C319.7 208.3 365.3 208.7 411.2 204C457 199.3 503 189.7 548.8 183.7C594.7 177.7 640.3 175.3 686 178.7C731.7 182 777.3 191 823 191.3C868.7 191.7 914.3 183.3 960 184.3C1005.7 185.3 1051.3 195.7 1097 196.8C1142.7 198 1188.3 190 1234 193.2C1279.7 196.3 1325.3 210.7 1371.2 209.3C1417 208 1463 191 1508.8 185.2C1554.7 179.3 1600.3 184.7 1646 188.5C1691.7 192.3 1737.3 194.7 1783 193.2C1828.7 191.7 1874.3 186.3 1897.2 183.7L1920 181L1920 0L1897.2 0C1874.3 0 1828.7 0 1783 0C1737.3 0 1691.7 0 1646 0C1600.3 0 1554.7 0 1508.8 0C1463 0 1417 0 1371.2 0C1325.3 0 1279.7 0 1234 0C1188.3 0 1142.7 0 1097 0C1051.3 0 1005.7 0 960 0C914.3 0 868.7 0 823 0C777.3 0 731.7 0 686 0C640.3 0 594.7 0 548.8 0C503 0 457 0 411.2 0C365.3 0 319.7 0 274 0C228.3 0 182.7 0 137 0C91.3 0 45.7 0 22.8 0L0 0Z"
    fill="#362a57"
  ></path>
  <path
    d="M0 148L22.8 151.8C45.7 155.7 91.3 163.3 137 169.5C182.7 175.7 228.3 180.3 274 182.8C319.7 185.3 365.3 185.7 411.2 179.2C457 172.7 503 159.3 548.8 153.3C594.7 147.3 640.3 148.7 686 155C731.7 161.3 777.3 172.7 823 178.7C868.7 184.7 914.3 185.3 960 179C1005.7 172.7 1051.3 159.3 1097 156C1142.7 152.7 1188.3 159.3 1234 164.7C1279.7 170 1325.3 174 1371.2 173.2C1417 172.3 1463 166.7 1508.8 167.2C1554.7 167.7 1600.3 174.3 1646 178.8C1691.7 183.3 1737.3 185.7 1783 186.8C1828.7 188 1874.3 188 1897.2 188L1920 188L1920 0L1897.2 0C1874.3 0 1828.7 0 1783 0C1737.3 0 1691.7 0 1646 0C1600.3 0 1554.7 0 1508.8 0C1463 0 1417 0 1371.2 0C1325.3 0 1279.7 0 1234 0C1188.3 0 1142.7 0 1097 0C1051.3 0 1005.7 0 960 0C914.3 0 868.7 0 823 0C777.3 0 731.7 0 686 0C640.3 0 594.7 0 548.8 0C503 0 457 0 411.2 0C365.3 0 319.7 0 274 0C228.3 0 182.7 0 137 0C91.3 0 45.7 0 22.8 0L0 0Z"
    fill="#622f67"
  ></path>
  <path
    d="M0 128L22.8 128.5C45.7 129 91.3 130 137 129.5C182.7 129 228.3 127 274 131C319.7 135 365.3 145 411.2 146.7C457 148.3 503 141.7 548.8 139C594.7 136.3 640.3 137.7 686 133.2C731.7 128.7 777.3 118.3 823 119.8C868.7 121.3 914.3 134.7 960 139.5C1005.7 144.3 1051.3 140.7 1097 135.2C1142.7 129.7 1188.3 122.3 1234 120C1279.7 117.7 1325.3 120.3 1371.2 123C1417 125.7 1463 128.3 1508.8 128C1554.7 127.7 1600.3 124.3 1646 122.2C1691.7 120 1737.3 119 1783 117.5C1828.7 116 1874.3 114 1897.2 113L1920 112L1920 0L1897.2 0C1874.3 0 1828.7 0 1783 0C1737.3 0 1691.7 0 1646 0C1600.3 0 1554.7 0 1508.8 0C1463 0 1417 0 1371.2 0C1325.3 0 1279.7 0 1234 0C1188.3 0 1142.7 0 1097 0C1051.3 0 1005.7 0 960 0C914.3 0 868.7 0 823 0C777.3 0 731.7 0 686 0C640.3 0 594.7 0 548.8 0C503 0 457 0 411.2 0C365.3 0 319.7 0 274 0C228.3 0 182.7 0 137 0C91.3 0 45.7 0 22.8 0L0 0Z"
    fill="#922e6b"
  ></path>
  <path
    d="M0 122L22.8 122C45.7 122 91.3 122 137 117.3C182.7 112.7 228.3 103.3 274 98.2C319.7 93 365.3 92 411.2 94.8C457 97.7 503 104.3 548.8 103.3C594.7 102.3 640.3 93.7 686 91.5C731.7 89.3 777.3 93.7 823 96.3C868.7 99 914.3 100 960 101.2C1005.7 102.3 1051.3 103.7 1097 99.3C1142.7 95 1188.3 85 1234 85.5C1279.7 86 1325.3 97 1371.2 100.8C1417 104.7 1463 101.3 1508.8 102.3C1554.7 103.3 1600.3 108.7 1646 107C1691.7 105.3 1737.3 96.7 1783 94.7C1828.7 92.7 1874.3 97.3 1897.2 99.7L1920 102L1920 0L1897.2 0C1874.3 0 1828.7 0 1783 0C1737.3 0 1691.7 0 1646 0C1600.3 0 1554.7 0 1508.8 0C1463 0 1417 0 1371.2 0C1325.3 0 1279.7 0 1234 0C1188.3 0 1142.7 0 1097 0C1051.3 0 1005.7 0 960 0C914.3 0 868.7 0 823 0C777.3 0 731.7 0 686 0C640.3 0 594.7 0 548.8 0C503 0 457 0 411.2 0C365.3 0 319.7 0 274 0C228.3 0 182.7 0 137 0C91.3 0 45.7 0 22.8 0L0 0Z"
    fill="#be3062"
  ></path>
  <path
    d="M0 51L22.8 56.7C45.7 62.3 91.3 73.7 137 73.2C182.7 72.7 228.3 60.3 274 54.5C319.7 48.7 365.3 49.3 411.2 52.3C457 55.3 503 60.7 548.8 66.3C594.7 72 640.3 78 686 82C731.7 86 777.3 88 823 86.3C868.7 84.7 914.3 79.3 960 79.2C1005.7 79 1051.3 84 1097 85.5C1142.7 87 1188.3 85 1234 77.5C1279.7 70 1325.3 57 1371.2 52C1417 47 1463 50 1508.8 55C1554.7 60 1600.3 67 1646 70.8C1691.7 74.7 1737.3 75.3 1783 76.7C1828.7 78 1874.3 80 1897.2 81L1920 82L1920 0L1897.2 0C1874.3 0 1828.7 0 1783 0C1737.3 0 1691.7 0 1646 0C1600.3 0 1554.7 0 1508.8 0C1463 0 1417 0 1371.2 0C1325.3 0 1279.7 0 1234 0C1188.3 0 1142.7 0 1097 0C1051.3 0 1005.7 0 960 0C914.3 0 868.7 0 823 0C777.3 0 731.7 0 686 0C640.3 0 594.7 0 548.8 0C503 0 457 0 411.2 0C365.3 0 319.7 0 274 0C228.3 0 182.7 0 137 0C91.3 0 45.7 0 22.8 0L0 0Z"
    fill="#e0404d"
  ></path>
  <path
    d="M0 52L22.8 51.7C45.7 51.3 91.3 50.7 137 50.7C182.7 50.7 228.3 51.3 274 47C319.7 42.7 365.3 33.3 411.2 31C457 28.7 503 33.3 548.8 30.7C594.7 28 640.3 18 686 16.8C731.7 15.7 777.3 23.3 823 31.7C868.7 40 914.3 49 960 51.7C1005.7 54.3 1051.3 50.7 1097 44C1142.7 37.3 1188.3 27.7 1234 23.3C1279.7 19 1325.3 20 1371.2 25.3C1417 30.7 1463 40.3 1508.8 39.3C1554.7 38.3 1600.3 26.7 1646 25.2C1691.7 23.7 1737.3 32.3 1783 35.7C1828.7 39 1874.3 37 1897.2 36L1920 35L1920 0L1897.2 0C1874.3 0 1828.7 0 1783 0C1737.3 0 1691.7 0 1646 0C1600.3 0 1554.7 0 1508.8 0C1463 0 1417 0 1371.2 0C1325.3 0 1279.7 0 1234 0C1188.3 0 1142.7 0 1097 0C1051.3 0 1005.7 0 960 0C914.3 0 868.7 0 823 0C777.3 0 731.7 0 686 0C640.3 0 594.7 0 548.8 0C503 0 457 0 411.2 0C365.3 0 319.7 0 274 0C228.3 0 182.7 0 137 0C91.3 0 45.7 0 22.8 0L0 0Z"
    fill="#f4602c"
  ></path>
</svg>
