<svg
  id="visual"
  viewBox="0 0 1920 400"
  width="1920"
  height="400"
  xmlns="http://www.w3.org/2000/svg"
  xmlns:xlink="http://www.w3.org/1999/xlink"
  version="1.1"
>
  <rect x="0" y="0" width="1920" height="400" fill="#001220"></rect>
  <path
    d="M0 159L17.8 153.5C35.7 148 71.3 137 106.8 138.7C142.3 140.3 177.7 154.7 213.2 157.5C248.7 160.3 284.3 151.7 320 152.7C355.7 153.7 391.3 164.3 426.8 173.7C462.3 183 497.7 191 533.2 193C568.7 195 604.3 191 640 173.3C675.7 155.7 711.3 124.3 746.8 123C782.3 121.7 817.7 150.3 853.2 161.7C888.7 173 924.3 167 960 167.2C995.7 167.3 1031.3 173.7 1066.8 166.7C1102.3 159.7 1137.7 139.3 1173.2 130C1208.7 120.7 1244.3 122.3 1280 135.7C1315.7 149 1351.3 174 1386.8 176C1422.3 178 1457.7 157 1493.2 145.5C1528.7 134 1564.3 132 1600 137.8C1635.7 143.7 1671.3 157.3 1706.8 157C1742.3 156.7 1777.7 142.3 1813.2 130.2C1848.7 118 1884.3 108 1902.2 103L1920 98L1920 401L1902.2 401C1884.3 401 1848.7 401 1813.2 401C1777.7 401 1742.3 401 1706.8 401C1671.3 401 1635.7 401 1600 401C1564.3 401 1528.7 401 1493.2 401C1457.7 401 1422.3 401 1386.8 401C1351.3 401 1315.7 401 1280 401C1244.3 401 1208.7 401 1173.2 401C1137.7 401 1102.3 401 1066.8 401C1031.3 401 995.7 401 960 401C924.3 401 888.7 401 853.2 401C817.7 401 782.3 401 746.8 401C711.3 401 675.7 401 640 401C604.3 401 568.7 401 533.2 401C497.7 401 462.3 401 426.8 401C391.3 401 355.7 401 320 401C284.3 401 248.7 401 213.2 401C177.7 401 142.3 401 106.8 401C71.3 401 35.7 401 17.8 401L0 401Z"
    fill="#001220"
  ></path>
  <path
    d="M0 165L17.8 172.2C35.7 179.3 71.3 193.7 106.8 205.8C142.3 218 177.7 228 213.2 221.5C248.7 215 284.3 192 320 187.2C355.7 182.3 391.3 195.7 426.8 196.8C462.3 198 497.7 187 533.2 190.7C568.7 194.3 604.3 212.7 640 212.8C675.7 213 711.3 195 746.8 183.8C782.3 172.7 817.7 168.3 853.2 164.5C888.7 160.7 924.3 157.3 960 159.7C995.7 162 1031.3 170 1066.8 182.3C1102.3 194.7 1137.7 211.3 1173.2 206.3C1208.7 201.3 1244.3 174.7 1280 174.8C1315.7 175 1351.3 202 1386.8 215.2C1422.3 228.3 1457.7 227.7 1493.2 222.8C1528.7 218 1564.3 209 1600 196C1635.7 183 1671.3 166 1706.8 164.7C1742.3 163.3 1777.7 177.7 1813.2 183.5C1848.7 189.3 1884.3 186.7 1902.2 185.3L1920 184L1920 401L1902.2 401C1884.3 401 1848.7 401 1813.2 401C1777.7 401 1742.3 401 1706.8 401C1671.3 401 1635.7 401 1600 401C1564.3 401 1528.7 401 1493.2 401C1457.7 401 1422.3 401 1386.8 401C1351.3 401 1315.7 401 1280 401C1244.3 401 1208.7 401 1173.2 401C1137.7 401 1102.3 401 1066.8 401C1031.3 401 995.7 401 960 401C924.3 401 888.7 401 853.2 401C817.7 401 782.3 401 746.8 401C711.3 401 675.7 401 640 401C604.3 401 568.7 401 533.2 401C497.7 401 462.3 401 426.8 401C391.3 401 355.7 401 320 401C284.3 401 248.7 401 213.2 401C177.7 401 142.3 401 106.8 401C71.3 401 35.7 401 17.8 401L0 401Z"
    fill="#202745"
  ></path>
  <path
    d="M0 192L17.8 206.2C35.7 220.3 71.3 248.7 106.8 250C142.3 251.3 177.7 225.7 213.2 218.3C248.7 211 284.3 222 320 230.2C355.7 238.3 391.3 243.7 426.8 240.2C462.3 236.7 497.7 224.3 533.2 225.7C568.7 227 604.3 242 640 251.3C675.7 260.7 711.3 264.3 746.8 254.7C782.3 245 817.7 222 853.2 218.3C888.7 214.7 924.3 230.3 960 228.7C995.7 227 1031.3 208 1066.8 202.3C1102.3 196.7 1137.7 204.3 1173.2 218.5C1208.7 232.7 1244.3 253.3 1280 250.7C1315.7 248 1351.3 222 1386.8 209.3C1422.3 196.7 1457.7 197.3 1493.2 196.7C1528.7 196 1564.3 194 1600 205.3C1635.7 216.7 1671.3 241.3 1706.8 253.7C1742.3 266 1777.7 266 1813.2 260.3C1848.7 254.7 1884.3 243.3 1902.2 237.7L1920 232L1920 401L1902.2 401C1884.3 401 1848.7 401 1813.2 401C1777.7 401 1742.3 401 1706.8 401C1671.3 401 1635.7 401 1600 401C1564.3 401 1528.7 401 1493.2 401C1457.7 401 1422.3 401 1386.8 401C1351.3 401 1315.7 401 1280 401C1244.3 401 1208.7 401 1173.2 401C1137.7 401 1102.3 401 1066.8 401C1031.3 401 995.7 401 960 401C924.3 401 888.7 401 853.2 401C817.7 401 782.3 401 746.8 401C711.3 401 675.7 401 640 401C604.3 401 568.7 401 533.2 401C497.7 401 462.3 401 426.8 401C391.3 401 355.7 401 320 401C284.3 401 248.7 401 213.2 401C177.7 401 142.3 401 106.8 401C71.3 401 35.7 401 17.8 401L0 401Z"
    fill="#513965"
  ></path>
  <path
    d="M0 238L17.8 241.8C35.7 245.7 71.3 253.3 106.8 252.7C142.3 252 177.7 243 213.2 246.7C248.7 250.3 284.3 266.7 320 275.8C355.7 285 391.3 287 426.8 281.7C462.3 276.3 497.7 263.7 533.2 254.5C568.7 245.3 604.3 239.7 640 238.8C675.7 238 711.3 242 746.8 243.3C782.3 244.7 817.7 243.3 853.2 250.2C888.7 257 924.3 272 960 282.5C995.7 293 1031.3 299 1066.8 293.2C1102.3 287.3 1137.7 269.7 1173.2 266.8C1208.7 264 1244.3 276 1280 281.8C1315.7 287.7 1351.3 287.3 1386.8 289.2C1422.3 291 1457.7 295 1493.2 290C1528.7 285 1564.3 271 1600 271.7C1635.7 272.3 1671.3 287.7 1706.8 291.3C1742.3 295 1777.7 287 1813.2 276.7C1848.7 266.3 1884.3 253.7 1902.2 247.3L1920 241L1920 401L1902.2 401C1884.3 401 1848.7 401 1813.2 401C1777.7 401 1742.3 401 1706.8 401C1671.3 401 1635.7 401 1600 401C1564.3 401 1528.7 401 1493.2 401C1457.7 401 1422.3 401 1386.8 401C1351.3 401 1315.7 401 1280 401C1244.3 401 1208.7 401 1173.2 401C1137.7 401 1102.3 401 1066.8 401C1031.3 401 995.7 401 960 401C924.3 401 888.7 401 853.2 401C817.7 401 782.3 401 746.8 401C711.3 401 675.7 401 640 401C604.3 401 568.7 401 533.2 401C497.7 401 462.3 401 426.8 401C391.3 401 355.7 401 320 401C284.3 401 248.7 401 213.2 401C177.7 401 142.3 401 106.8 401C71.3 401 35.7 401 17.8 401L0 401Z"
    fill="#8b4778"
  ></path>
  <path
    d="M0 348L17.8 345C35.7 342 71.3 336 106.8 334.8C142.3 333.7 177.7 337.3 213.2 339.5C248.7 341.7 284.3 342.3 320 334.3C355.7 326.3 391.3 309.7 426.8 307.5C462.3 305.3 497.7 317.7 533.2 317.7C568.7 317.7 604.3 305.3 640 297.3C675.7 289.3 711.3 285.7 746.8 286.8C782.3 288 817.7 294 853.2 304.3C888.7 314.7 924.3 329.3 960 327.2C995.7 325 1031.3 306 1066.8 305C1102.3 304 1137.7 321 1173.2 318.8C1208.7 316.7 1244.3 295.3 1280 287.5C1315.7 279.7 1351.3 285.3 1386.8 295.5C1422.3 305.7 1457.7 320.3 1493.2 324.3C1528.7 328.3 1564.3 321.7 1600 323.8C1635.7 326 1671.3 337 1706.8 337.8C1742.3 338.7 1777.7 329.3 1813.2 324.5C1848.7 319.7 1884.3 319.3 1902.2 319.2L1920 319L1920 401L1902.2 401C1884.3 401 1848.7 401 1813.2 401C1777.7 401 1742.3 401 1706.8 401C1671.3 401 1635.7 401 1600 401C1564.3 401 1528.7 401 1493.2 401C1457.7 401 1422.3 401 1386.8 401C1351.3 401 1315.7 401 1280 401C1244.3 401 1208.7 401 1173.2 401C1137.7 401 1102.3 401 1066.8 401C1031.3 401 995.7 401 960 401C924.3 401 888.7 401 853.2 401C817.7 401 782.3 401 746.8 401C711.3 401 675.7 401 640 401C604.3 401 568.7 401 533.2 401C497.7 401 462.3 401 426.8 401C391.3 401 355.7 401 320 401C284.3 401 248.7 401 213.2 401C177.7 401 142.3 401 106.8 401C71.3 401 35.7 401 17.8 401L0 401Z"
    fill="#c5577b"
  ></path>
  <path
    d="M0 381L17.8 376C35.7 371 71.3 361 106.8 355.3C142.3 349.7 177.7 348.3 213.2 354.3C248.7 360.3 284.3 373.7 320 371.2C355.7 368.7 391.3 350.3 426.8 340.7C462.3 331 497.7 330 533.2 329.2C568.7 328.3 604.3 327.7 640 335.8C675.7 344 711.3 361 746.8 366C782.3 371 817.7 364 853.2 358.3C888.7 352.7 924.3 348.3 960 353.3C995.7 358.3 1031.3 372.7 1066.8 374.5C1102.3 376.3 1137.7 365.7 1173.2 356.7C1208.7 347.7 1244.3 340.3 1280 338C1315.7 335.7 1351.3 338.3 1386.8 338.7C1422.3 339 1457.7 337 1493.2 342.7C1528.7 348.3 1564.3 361.7 1600 359.7C1635.7 357.7 1671.3 340.3 1706.8 336.7C1742.3 333 1777.7 343 1813.2 350.7C1848.7 358.3 1884.3 363.7 1902.2 366.3L1920 369L1920 401L1902.2 401C1884.3 401 1848.7 401 1813.2 401C1777.7 401 1742.3 401 1706.8 401C1671.3 401 1635.7 401 1600 401C1564.3 401 1528.7 401 1493.2 401C1457.7 401 1422.3 401 1386.8 401C1351.3 401 1315.7 401 1280 401C1244.3 401 1208.7 401 1173.2 401C1137.7 401 1102.3 401 1066.8 401C1031.3 401 995.7 401 960 401C924.3 401 888.7 401 853.2 401C817.7 401 782.3 401 746.8 401C711.3 401 675.7 401 640 401C604.3 401 568.7 401 533.2 401C497.7 401 462.3 401 426.8 401C391.3 401 355.7 401 320 401C284.3 401 248.7 401 213.2 401C177.7 401 142.3 401 106.8 401C71.3 401 35.7 401 17.8 401L0 401Z"
    fill="#f67171"
  ></path>
</svg>
