<svg
  id="visual"
  viewBox="0 0 1920 400"
  width="1920"
  height="400"
  xmlns="http://www.w3.org/2000/svg"
  xmlns:xlink="http://www.w3.org/1999/xlink"
  version="1.1"
>
  <rect x="0" y="0" width="1920" height="400" fill="#001220"></rect>
  <path
    d="M0 45L13.8 41.2C27.7 37.3 55.3 29.7 83.2 26C111 22.3 139 22.7 166.8 22.7C194.7 22.7 222.3 22.3 250.2 23.5C278 24.7 306 27.3 333.8 34.5C361.7 41.7 389.3 53.3 417.2 60.2C445 67 473 69 500.8 67.8C528.7 66.7 556.3 62.3 584.2 62.5C612 62.7 640 67.3 667.8 66.7C695.7 66 723.3 60 751.2 51.8C779 43.7 807 33.3 834.8 31.3C862.7 29.3 890.3 35.7 918.2 35.7C946 35.7 974 29.3 1001.8 34C1029.7 38.7 1057.3 54.3 1085.2 59.5C1113 64.7 1141 59.3 1168.8 54C1196.7 48.7 1224.3 43.3 1252.2 46.5C1280 49.7 1308 61.3 1335.8 61.5C1363.7 61.7 1391.3 50.3 1419.2 42.5C1447 34.7 1475 30.3 1502.8 34.7C1530.7 39 1558.3 52 1586.2 59.7C1614 67.3 1642 69.7 1669.8 64.8C1697.7 60 1725.3 48 1753.2 46.2C1781 44.3 1809 52.7 1836.8 53.5C1864.7 54.3 1892.3 47.7 1906.2 44.3L1920 41L1920 401L1906.2 401C1892.3 401 1864.7 401 1836.8 401C1809 401 1781 401 1753.2 401C1725.3 401 1697.7 401 1669.8 401C1642 401 1614 401 1586.2 401C1558.3 401 1530.7 401 1502.8 401C1475 401 1447 401 1419.2 401C1391.3 401 1363.7 401 1335.8 401C1308 401 1280 401 1252.2 401C1224.3 401 1196.7 401 1168.8 401C1141 401 1113 401 1085.2 401C1057.3 401 1029.7 401 1001.8 401C974 401 946 401 918.2 401C890.3 401 862.7 401 834.8 401C807 401 779 401 751.2 401C723.3 401 695.7 401 667.8 401C640 401 612 401 584.2 401C556.3 401 528.7 401 500.8 401C473 401 445 401 417.2 401C389.3 401 361.7 401 333.8 401C306 401 278 401 250.2 401C222.3 401 194.7 401 166.8 401C139 401 111 401 83.2 401C55.3 401 27.7 401 13.8 401L0 401Z"
    fill="#001220"
  ></path>
  <path
    d="M0 89L13.8 89C27.7 89 55.3 89 83.2 93.8C111 98.7 139 108.3 166.8 112.8C194.7 117.3 222.3 116.7 250.2 108.8C278 101 306 86 333.8 83.3C361.7 80.7 389.3 90.3 417.2 93.8C445 97.3 473 94.7 500.8 90.8C528.7 87 556.3 82 584.2 78.5C612 75 640 73 667.8 81.5C695.7 90 723.3 109 751.2 114.8C779 120.7 807 113.3 834.8 110C862.7 106.7 890.3 107.3 918.2 102.7C946 98 974 88 1001.8 81.8C1029.7 75.7 1057.3 73.3 1085.2 81.2C1113 89 1141 107 1168.8 107.5C1196.7 108 1224.3 91 1252.2 86C1280 81 1308 88 1335.8 91.3C1363.7 94.7 1391.3 94.3 1419.2 92.7C1447 91 1475 88 1502.8 89.8C1530.7 91.7 1558.3 98.3 1586.2 102.3C1614 106.3 1642 107.7 1669.8 104.5C1697.7 101.3 1725.3 93.7 1753.2 92.7C1781 91.7 1809 97.3 1836.8 98.8C1864.7 100.3 1892.3 97.7 1906.2 96.3L1920 95L1920 401L1906.2 401C1892.3 401 1864.7 401 1836.8 401C1809 401 1781 401 1753.2 401C1725.3 401 1697.7 401 1669.8 401C1642 401 1614 401 1586.2 401C1558.3 401 1530.7 401 1502.8 401C1475 401 1447 401 1419.2 401C1391.3 401 1363.7 401 1335.8 401C1308 401 1280 401 1252.2 401C1224.3 401 1196.7 401 1168.8 401C1141 401 1113 401 1085.2 401C1057.3 401 1029.7 401 1001.8 401C974 401 946 401 918.2 401C890.3 401 862.7 401 834.8 401C807 401 779 401 751.2 401C723.3 401 695.7 401 667.8 401C640 401 612 401 584.2 401C556.3 401 528.7 401 500.8 401C473 401 445 401 417.2 401C389.3 401 361.7 401 333.8 401C306 401 278 401 250.2 401C222.3 401 194.7 401 166.8 401C139 401 111 401 83.2 401C55.3 401 27.7 401 13.8 401L0 401Z"
    fill="#002342"
  ></path>
  <path
    d="M0 135L13.8 141.3C27.7 147.7 55.3 160.3 83.2 159.3C111 158.3 139 143.7 166.8 137C194.7 130.3 222.3 131.7 250.2 139.7C278 147.7 306 162.3 333.8 161.5C361.7 160.7 389.3 144.3 417.2 144.2C445 144 473 160 500.8 159.2C528.7 158.3 556.3 140.7 584.2 136.7C612 132.7 640 142.3 667.8 149.7C695.7 157 723.3 162 751.2 166C779 170 807 173 834.8 166.8C862.7 160.7 890.3 145.3 918.2 137.5C946 129.7 974 129.3 1001.8 136.5C1029.7 143.7 1057.3 158.3 1085.2 161C1113 163.7 1141 154.3 1168.8 150.7C1196.7 147 1224.3 149 1252.2 154C1280 159 1308 167 1335.8 164.2C1363.7 161.3 1391.3 147.7 1419.2 140.5C1447 133.3 1475 132.7 1502.8 138C1530.7 143.3 1558.3 154.7 1586.2 154.5C1614 154.3 1642 142.7 1669.8 136.5C1697.7 130.3 1725.3 129.7 1753.2 129.5C1781 129.3 1809 129.7 1836.8 131.5C1864.7 133.3 1892.3 136.7 1906.2 138.3L1920 140L1920 401L1906.2 401C1892.3 401 1864.7 401 1836.8 401C1809 401 1781 401 1753.2 401C1725.3 401 1697.7 401 1669.8 401C1642 401 1614 401 1586.2 401C1558.3 401 1530.7 401 1502.8 401C1475 401 1447 401 1419.2 401C1391.3 401 1363.7 401 1335.8 401C1308 401 1280 401 1252.2 401C1224.3 401 1196.7 401 1168.8 401C1141 401 1113 401 1085.2 401C1057.3 401 1029.7 401 1001.8 401C974 401 946 401 918.2 401C890.3 401 862.7 401 834.8 401C807 401 779 401 751.2 401C723.3 401 695.7 401 667.8 401C640 401 612 401 584.2 401C556.3 401 528.7 401 500.8 401C473 401 445 401 417.2 401C389.3 401 361.7 401 333.8 401C306 401 278 401 250.2 401C222.3 401 194.7 401 166.8 401C139 401 111 401 83.2 401C55.3 401 27.7 401 13.8 401L0 401Z"
    fill="#003266"
  ></path>
  <path
    d="M0 187L13.8 190.5C27.7 194 55.3 201 83.2 203.8C111 206.7 139 205.3 166.8 203.3C194.7 201.3 222.3 198.7 250.2 200.8C278 203 306 210 333.8 212.3C361.7 214.7 389.3 212.3 417.2 213C445 213.7 473 217.3 500.8 218C528.7 218.7 556.3 216.3 584.2 207.8C612 199.3 640 184.7 667.8 180.2C695.7 175.7 723.3 181.3 751.2 186.7C779 192 807 197 834.8 196.8C862.7 196.7 890.3 191.3 918.2 192.8C946 194.3 974 202.7 1001.8 200.3C1029.7 198 1057.3 185 1085.2 180.3C1113 175.7 1141 179.3 1168.8 179.5C1196.7 179.7 1224.3 176.3 1252.2 176C1280 175.7 1308 178.3 1335.8 183.5C1363.7 188.7 1391.3 196.3 1419.2 197C1447 197.7 1475 191.3 1502.8 190.3C1530.7 189.3 1558.3 193.7 1586.2 199C1614 204.3 1642 210.7 1669.8 210.5C1697.7 210.3 1725.3 203.7 1753.2 204.3C1781 205 1809 213 1836.8 217.8C1864.7 222.7 1892.3 224.3 1906.2 225.2L1920 226L1920 401L1906.2 401C1892.3 401 1864.7 401 1836.8 401C1809 401 1781 401 1753.2 401C1725.3 401 1697.7 401 1669.8 401C1642 401 1614 401 1586.2 401C1558.3 401 1530.7 401 1502.8 401C1475 401 1447 401 1419.2 401C1391.3 401 1363.7 401 1335.8 401C1308 401 1280 401 1252.2 401C1224.3 401 1196.7 401 1168.8 401C1141 401 1113 401 1085.2 401C1057.3 401 1029.7 401 1001.8 401C974 401 946 401 918.2 401C890.3 401 862.7 401 834.8 401C807 401 779 401 751.2 401C723.3 401 695.7 401 667.8 401C640 401 612 401 584.2 401C556.3 401 528.7 401 500.8 401C473 401 445 401 417.2 401C389.3 401 361.7 401 333.8 401C306 401 278 401 250.2 401C222.3 401 194.7 401 166.8 401C139 401 111 401 83.2 401C55.3 401 27.7 401 13.8 401L0 401Z"
    fill="#00408b"
  ></path>
  <path
    d="M0 222L13.8 221.5C27.7 221 55.3 220 83.2 228.3C111 236.7 139 254.3 166.8 258.5C194.7 262.7 222.3 253.3 250.2 249.8C278 246.3 306 248.7 333.8 245.5C361.7 242.3 389.3 233.7 417.2 234.5C445 235.3 473 245.7 500.8 247.5C528.7 249.3 556.3 242.7 584.2 246C612 249.3 640 262.7 667.8 265.7C695.7 268.7 723.3 261.3 751.2 252.8C779 244.3 807 234.7 834.8 237.5C862.7 240.3 890.3 255.7 918.2 261.2C946 266.7 974 262.3 1001.8 261.5C1029.7 260.7 1057.3 263.3 1085.2 257.7C1113 252 1141 238 1168.8 232.8C1196.7 227.7 1224.3 231.3 1252.2 234.2C1280 237 1308 239 1335.8 239.3C1363.7 239.7 1391.3 238.3 1419.2 244.3C1447 250.3 1475 263.7 1502.8 268C1530.7 272.3 1558.3 267.7 1586.2 263.7C1614 259.7 1642 256.3 1669.8 252.5C1697.7 248.7 1725.3 244.3 1753.2 247.3C1781 250.3 1809 260.7 1836.8 259.2C1864.7 257.7 1892.3 244.3 1906.2 237.7L1920 231L1920 401L1906.2 401C1892.3 401 1864.7 401 1836.8 401C1809 401 1781 401 1753.2 401C1725.3 401 1697.7 401 1669.8 401C1642 401 1614 401 1586.2 401C1558.3 401 1530.7 401 1502.8 401C1475 401 1447 401 1419.2 401C1391.3 401 1363.7 401 1335.8 401C1308 401 1280 401 1252.2 401C1224.3 401 1196.7 401 1168.8 401C1141 401 1113 401 1085.2 401C1057.3 401 1029.7 401 1001.8 401C974 401 946 401 918.2 401C890.3 401 862.7 401 834.8 401C807 401 779 401 751.2 401C723.3 401 695.7 401 667.8 401C640 401 612 401 584.2 401C556.3 401 528.7 401 500.8 401C473 401 445 401 417.2 401C389.3 401 361.7 401 333.8 401C306 401 278 401 250.2 401C222.3 401 194.7 401 166.8 401C139 401 111 401 83.2 401C55.3 401 27.7 401 13.8 401L0 401Z"
    fill="#004db1"
  ></path>
  <path
    d="M0 325L13.8 317.2C27.7 309.3 55.3 293.7 83.2 292.5C111 291.3 139 304.7 166.8 311C194.7 317.3 222.3 316.7 250.2 313C278 309.3 306 302.7 333.8 300C361.7 297.3 389.3 298.7 417.2 296.3C445 294 473 288 500.8 288.3C528.7 288.7 556.3 295.3 584.2 301.7C612 308 640 314 667.8 314.7C695.7 315.3 723.3 310.7 751.2 304.7C779 298.7 807 291.3 834.8 285.7C862.7 280 890.3 276 918.2 276.7C946 277.3 974 282.7 1001.8 286.7C1029.7 290.7 1057.3 293.3 1085.2 293.5C1113 293.7 1141 291.3 1168.8 296.2C1196.7 301 1224.3 313 1252.2 312C1280 311 1308 297 1335.8 296.7C1363.7 296.3 1391.3 309.7 1419.2 307.8C1447 306 1475 289 1502.8 282.5C1530.7 276 1558.3 280 1586.2 283.3C1614 286.7 1642 289.3 1669.8 295.7C1697.7 302 1725.3 312 1753.2 311.5C1781 311 1809 300 1836.8 295.8C1864.7 291.7 1892.3 294.3 1906.2 295.7L1920 297L1920 401L1906.2 401C1892.3 401 1864.7 401 1836.8 401C1809 401 1781 401 1753.2 401C1725.3 401 1697.7 401 1669.8 401C1642 401 1614 401 1586.2 401C1558.3 401 1530.7 401 1502.8 401C1475 401 1447 401 1419.2 401C1391.3 401 1363.7 401 1335.8 401C1308 401 1280 401 1252.2 401C1224.3 401 1196.7 401 1168.8 401C1141 401 1113 401 1085.2 401C1057.3 401 1029.7 401 1001.8 401C974 401 946 401 918.2 401C890.3 401 862.7 401 834.8 401C807 401 779 401 751.2 401C723.3 401 695.7 401 667.8 401C640 401 612 401 584.2 401C556.3 401 528.7 401 500.8 401C473 401 445 401 417.2 401C389.3 401 361.7 401 333.8 401C306 401 278 401 250.2 401C222.3 401 194.7 401 166.8 401C139 401 111 401 83.2 401C55.3 401 27.7 401 13.8 401L0 401Z"
    fill="#005ad8"
  ></path>
  <path
    d="M0 334L13.8 338.8C27.7 343.7 55.3 353.3 83.2 357.2C111 361 139 359 166.8 358.7C194.7 358.3 222.3 359.7 250.2 361.2C278 362.7 306 364.3 333.8 362C361.7 359.7 389.3 353.3 417.2 345.7C445 338 473 329 500.8 328.5C528.7 328 556.3 336 584.2 337.2C612 338.3 640 332.7 667.8 329.7C695.7 326.7 723.3 326.3 751.2 334.2C779 342 807 358 834.8 360.8C862.7 363.7 890.3 353.3 918.2 346.8C946 340.3 974 337.7 1001.8 334.2C1029.7 330.7 1057.3 326.3 1085.2 326C1113 325.7 1141 329.3 1168.8 330.3C1196.7 331.3 1224.3 329.7 1252.2 334.7C1280 339.7 1308 351.3 1335.8 352.5C1363.7 353.7 1391.3 344.3 1419.2 338.3C1447 332.3 1475 329.7 1502.8 330.2C1530.7 330.7 1558.3 334.3 1586.2 339.5C1614 344.7 1642 351.3 1669.8 354C1697.7 356.7 1725.3 355.3 1753.2 355.7C1781 356 1809 358 1836.8 361.7C1864.7 365.3 1892.3 370.7 1906.2 373.3L1920 376L1920 401L1906.2 401C1892.3 401 1864.7 401 1836.8 401C1809 401 1781 401 1753.2 401C1725.3 401 1697.7 401 1669.8 401C1642 401 1614 401 1586.2 401C1558.3 401 1530.7 401 1502.8 401C1475 401 1447 401 1419.2 401C1391.3 401 1363.7 401 1335.8 401C1308 401 1280 401 1252.2 401C1224.3 401 1196.7 401 1168.8 401C1141 401 1113 401 1085.2 401C1057.3 401 1029.7 401 1001.8 401C974 401 946 401 918.2 401C890.3 401 862.7 401 834.8 401C807 401 779 401 751.2 401C723.3 401 695.7 401 667.8 401C640 401 612 401 584.2 401C556.3 401 528.7 401 500.8 401C473 401 445 401 417.2 401C389.3 401 361.7 401 333.8 401C306 401 278 401 250.2 401C222.3 401 194.7 401 166.8 401C139 401 111 401 83.2 401C55.3 401 27.7 401 13.8 401L0 401Z"
    fill="#0066ff"
  ></path>
</svg>
