<svg id="visual" viewBox="0 0 1920 400" width="1920" height="400" xmlns="http://www.w3.org/2000/svg" xmlns:xlink="http://www.w3.org/1999/xlink" version="1.1"><rect x="0" y="0" width="1920" height="400" fill="#001220"></rect><path d="M0 51L13.8 52.7C27.7 54.3 55.3 57.7 83.2 63.5C111 69.3 139 77.7 166.8 74.8C194.7 72 222.3 58 250.2 53.2C278 48.3 306 52.7 333.8 53.8C361.7 55 389.3 53 417.2 59.2C445 65.3 473 79.7 500.8 81.8C528.7 84 556.3 74 584.2 69.5C612 65 640 66 667.8 70.2C695.7 74.3 723.3 81.7 751.2 86C779 90.3 807 91.7 834.8 82.5C862.7 73.3 890.3 53.7 918.2 48.5C946 43.3 974 52.7 1001.8 57C1029.7 61.3 1057.3 60.7 1085.2 65.3C1113 70 1141 80 1168.8 75.3C1196.7 70.7 1224.3 51.3 1252.2 50.8C1280 50.3 1308 68.7 1335.8 78C1363.7 87.3 1391.3 87.7 1419.2 88.7C1447 89.7 1475 91.3 1502.8 84.5C1530.7 77.7 1558.3 62.3 1586.2 52.5C1614 42.7 1642 38.3 1669.8 46.2C1697.7 54 1725.3 74 1753.2 75.3C1781 76.7 1809 59.3 1836.8 52.8C1864.7 46.3 1892.3 50.7 1906.2 52.8L1920 55L1920 401L1906.2 401C1892.3 401 1864.7 401 1836.8 401C1809 401 1781 401 1753.2 401C1725.3 401 1697.7 401 1669.8 401C1642 401 1614 401 1586.2 401C1558.3 401 1530.7 401 1502.8 401C1475 401 1447 401 1419.2 401C1391.3 401 1363.7 401 1335.8 401C1308 401 1280 401 1252.2 401C1224.3 401 1196.7 401 1168.8 401C1141 401 1113 401 1085.2 401C1057.3 401 1029.7 401 1001.8 401C974 401 946 401 918.2 401C890.3 401 862.7 401 834.8 401C807 401 779 401 751.2 401C723.3 401 695.7 401 667.8 401C640 401 612 401 584.2 401C556.3 401 528.7 401 500.8 401C473 401 445 401 417.2 401C389.3 401 361.7 401 333.8 401C306 401 278 401 250.2 401C222.3 401 194.7 401 166.8 401C139 401 111 401 83.2 401C55.3 401 27.7 401 13.8 401L0 401Z" fill="#001220"></path><path d="M0 130L13.8 130.8C27.7 131.7 55.3 133.3 83.2 130.7C111 128 139 121 166.8 116.2C194.7 111.3 222.3 108.7 250.2 106.3C278 104 306 102 333.8 103.2C361.7 104.3 389.3 108.7 417.2 114.5C445 120.3 473 127.7 500.8 128.8C528.7 130 556.3 125 584.2 118.5C612 112 640 104 667.8 104.3C695.7 104.7 723.3 113.3 751.2 115.3C779 117.3 807 112.7 834.8 107C862.7 101.3 890.3 94.7 918.2 93.3C946 92 974 96 1001.8 101.3C1029.7 106.7 1057.3 113.3 1085.2 118.5C1113 123.7 1141 127.3 1168.8 127.2C1196.7 127 1224.3 123 1252.2 118.2C1280 113.3 1308 107.7 1335.8 104.8C1363.7 102 1391.3 102 1419.2 98.7C1447 95.3 1475 88.7 1502.8 94.7C1530.7 100.7 1558.3 119.3 1586.2 126C1614 132.7 1642 127.3 1669.8 123.7C1697.7 120 1725.3 118 1753.2 112.5C1781 107 1809 98 1836.8 97.5C1864.7 97 1892.3 105 1906.2 109L1920 113L1920 401L1906.2 401C1892.3 401 1864.7 401 1836.8 401C1809 401 1781 401 1753.2 401C1725.3 401 1697.7 401 1669.8 401C1642 401 1614 401 1586.2 401C1558.3 401 1530.7 401 1502.8 401C1475 401 1447 401 1419.2 401C1391.3 401 1363.7 401 1335.8 401C1308 401 1280 401 1252.2 401C1224.3 401 1196.7 401 1168.8 401C1141 401 1113 401 1085.2 401C1057.3 401 1029.7 401 1001.8 401C974 401 946 401 918.2 401C890.3 401 862.7 401 834.8 401C807 401 779 401 751.2 401C723.3 401 695.7 401 667.8 401C640 401 612 401 584.2 401C556.3 401 528.7 401 500.8 401C473 401 445 401 417.2 401C389.3 401 361.7 401 333.8 401C306 401 278 401 250.2 401C222.3 401 194.7 401 166.8 401C139 401 111 401 83.2 401C55.3 401 27.7 401 13.8 401L0 401Z" fill="#172242"></path><path d="M0 172L13.8 170.2C27.7 168.3 55.3 164.7 83.2 161.5C111 158.3 139 155.7 166.8 154.8C194.7 154 222.3 155 250.2 156.7C278 158.3 306 160.7 333.8 156.2C361.7 151.7 389.3 140.3 417.2 137.7C445 135 473 141 500.8 145.3C528.7 149.7 556.3 152.3 584.2 156.5C612 160.7 640 166.3 667.8 165.3C695.7 164.3 723.3 156.7 751.2 152C779 147.3 807 145.7 834.8 148C862.7 150.3 890.3 156.7 918.2 162.3C946 168 974 173 1001.8 174.8C1029.7 176.7 1057.3 175.3 1085.2 175.5C1113 175.7 1141 177.3 1168.8 172C1196.7 166.7 1224.3 154.3 1252.2 155.2C1280 156 1308 170 1335.8 169.7C1363.7 169.3 1391.3 154.7 1419.2 155.2C1447 155.7 1475 171.3 1502.8 171C1530.7 170.7 1558.3 154.3 1586.2 147.5C1614 140.7 1642 143.3 1669.8 143.5C1697.7 143.7 1725.3 141.3 1753.2 145.3C1781 149.3 1809 159.7 1836.8 168C1864.7 176.3 1892.3 182.7 1906.2 185.8L1920 189L1920 401L1906.2 401C1892.3 401 1864.7 401 1836.8 401C1809 401 1781 401 1753.2 401C1725.3 401 1697.7 401 1669.8 401C1642 401 1614 401 1586.2 401C1558.3 401 1530.7 401 1502.8 401C1475 401 1447 401 1419.2 401C1391.3 401 1363.7 401 1335.8 401C1308 401 1280 401 1252.2 401C1224.3 401 1196.7 401 1168.8 401C1141 401 1113 401 1085.2 401C1057.3 401 1029.7 401 1001.8 401C974 401 946 401 918.2 401C890.3 401 862.7 401 834.8 401C807 401 779 401 751.2 401C723.3 401 695.7 401 667.8 401C640 401 612 401 584.2 401C556.3 401 528.7 401 500.8 401C473 401 445 401 417.2 401C389.3 401 361.7 401 333.8 401C306 401 278 401 250.2 401C222.3 401 194.7 401 166.8 401C139 401 111 401 83.2 401C55.3 401 27.7 401 13.8 401L0 401Z" fill="#442c5e"></path><path d="M0 208L13.8 204.8C27.7 201.7 55.3 195.3 83.2 190.8C111 186.3 139 183.7 166.8 182C194.7 180.3 222.3 179.7 250.2 183.7C278 187.7 306 196.3 333.8 205.2C361.7 214 389.3 223 417.2 222C445 221 473 210 500.8 207.7C528.7 205.3 556.3 211.7 584.2 208.3C612 205 640 192 667.8 187.8C695.7 183.7 723.3 188.3 751.2 196.2C779 204 807 215 834.8 212.8C862.7 210.7 890.3 195.3 918.2 195.2C946 195 974 210 1001.8 217.2C1029.7 224.3 1057.3 223.7 1085.2 223.7C1113 223.7 1141 224.3 1168.8 219C1196.7 213.7 1224.3 202.3 1252.2 201.3C1280 200.3 1308 209.7 1335.8 213.8C1363.7 218 1391.3 217 1419.2 219.7C1447 222.3 1475 228.7 1502.8 230.7C1530.7 232.7 1558.3 230.3 1586.2 225.2C1614 220 1642 212 1669.8 208.3C1697.7 204.7 1725.3 205.3 1753.2 202.7C1781 200 1809 194 1836.8 191.8C1864.7 189.7 1892.3 191.3 1906.2 192.2L1920 193L1920 401L1906.2 401C1892.3 401 1864.7 401 1836.8 401C1809 401 1781 401 1753.2 401C1725.3 401 1697.7 401 1669.8 401C1642 401 1614 401 1586.2 401C1558.3 401 1530.7 401 1502.8 401C1475 401 1447 401 1419.2 401C1391.3 401 1363.7 401 1335.8 401C1308 401 1280 401 1252.2 401C1224.3 401 1196.7 401 1168.8 401C1141 401 1113 401 1085.2 401C1057.3 401 1029.7 401 1001.8 401C974 401 946 401 918.2 401C890.3 401 862.7 401 834.8 401C807 401 779 401 751.2 401C723.3 401 695.7 401 667.8 401C640 401 612 401 584.2 401C556.3 401 528.7 401 500.8 401C473 401 445 401 417.2 401C389.3 401 361.7 401 333.8 401C306 401 278 401 250.2 401C222.3 401 194.7 401 166.8 401C139 401 111 401 83.2 401C55.3 401 27.7 401 13.8 401L0 401Z" fill="#7a2f6b"></path><path d="M0 264L13.8 260C27.7 256 55.3 248 83.2 243.5C111 239 139 238 166.8 243.7C194.7 249.3 222.3 261.7 250.2 261.8C278 262 306 250 333.8 245.8C361.7 241.7 389.3 245.3 417.2 249.2C445 253 473 257 500.8 261C528.7 265 556.3 269 584.2 270.8C612 272.7 640 272.3 667.8 267.5C695.7 262.7 723.3 253.3 751.2 253.3C779 253.3 807 262.7 834.8 266.3C862.7 270 890.3 268 918.2 263C946 258 974 250 1001.8 245.3C1029.7 240.7 1057.3 239.3 1085.2 243.3C1113 247.3 1141 256.7 1168.8 256.5C1196.7 256.3 1224.3 246.7 1252.2 243.5C1280 240.3 1308 243.7 1335.8 242.5C1363.7 241.3 1391.3 235.7 1419.2 237C1447 238.3 1475 246.7 1502.8 253.3C1530.7 260 1558.3 265 1586.2 260.3C1614 255.7 1642 241.3 1669.8 234.8C1697.7 228.3 1725.3 229.7 1753.2 235.8C1781 242 1809 253 1836.8 252.7C1864.7 252.3 1892.3 240.7 1906.2 234.8L1920 229L1920 401L1906.2 401C1892.3 401 1864.7 401 1836.8 401C1809 401 1781 401 1753.2 401C1725.3 401 1697.7 401 1669.8 401C1642 401 1614 401 1586.2 401C1558.3 401 1530.7 401 1502.8 401C1475 401 1447 401 1419.2 401C1391.3 401 1363.7 401 1335.8 401C1308 401 1280 401 1252.2 401C1224.3 401 1196.7 401 1168.8 401C1141 401 1113 401 1085.2 401C1057.3 401 1029.7 401 1001.8 401C974 401 946 401 918.2 401C890.3 401 862.7 401 834.8 401C807 401 779 401 751.2 401C723.3 401 695.7 401 667.8 401C640 401 612 401 584.2 401C556.3 401 528.7 401 500.8 401C473 401 445 401 417.2 401C389.3 401 361.7 401 333.8 401C306 401 278 401 250.2 401C222.3 401 194.7 401 166.8 401C139 401 111 401 83.2 401C55.3 401 27.7 401 13.8 401L0 401Z" fill="#b02e66"></path><path d="M0 326L13.8 318.8C27.7 311.7 55.3 297.3 83.2 293C111 288.7 139 294.3 166.8 301.2C194.7 308 222.3 316 250.2 319.8C278 323.7 306 323.3 333.8 321.7C361.7 320 389.3 317 417.2 315.7C445 314.3 473 314.7 500.8 315.3C528.7 316 556.3 317 584.2 314.3C612 311.7 640 305.3 667.8 304C695.7 302.7 723.3 306.3 751.2 306C779 305.7 807 301.3 834.8 303.2C862.7 305 890.3 313 918.2 312.5C946 312 974 303 1001.8 296.5C1029.7 290 1057.3 286 1085.2 289.8C1113 293.7 1141 305.3 1168.8 306C1196.7 306.7 1224.3 296.3 1252.2 289.5C1280 282.7 1308 279.3 1335.8 279.8C1363.7 280.3 1391.3 284.7 1419.2 290.8C1447 297 1475 305 1502.8 306.5C1530.7 308 1558.3 303 1586.2 301.5C1614 300 1642 302 1669.8 298.8C1697.7 295.7 1725.3 287.3 1753.2 289C1781 290.7 1809 302.3 1836.8 308.3C1864.7 314.3 1892.3 314.7 1906.2 314.8L1920 315L1920 401L1906.2 401C1892.3 401 1864.7 401 1836.8 401C1809 401 1781 401 1753.2 401C1725.3 401 1697.7 401 1669.8 401C1642 401 1614 401 1586.2 401C1558.3 401 1530.7 401 1502.8 401C1475 401 1447 401 1419.2 401C1391.3 401 1363.7 401 1335.8 401C1308 401 1280 401 1252.2 401C1224.3 401 1196.7 401 1168.8 401C1141 401 1113 401 1085.2 401C1057.3 401 1029.7 401 1001.8 401C974 401 946 401 918.2 401C890.3 401 862.7 401 834.8 401C807 401 779 401 751.2 401C723.3 401 695.7 401 667.8 401C640 401 612 401 584.2 401C556.3 401 528.7 401 500.8 401C473 401 445 401 417.2 401C389.3 401 361.7 401 333.8 401C306 401 278 401 250.2 401C222.3 401 194.7 401 166.8 401C139 401 111 401 83.2 401C55.3 401 27.7 401 13.8 401L0 401Z" fill="#db3c51"></path><path d="M0 333L13.8 338.3C27.7 343.7 55.3 354.3 83.2 353.7C111 353 139 341 166.8 338.7C194.7 336.3 222.3 343.7 250.2 348.5C278 353.3 306 355.7 333.8 357.3C361.7 359 389.3 360 417.2 361.5C445 363 473 365 500.8 363.5C528.7 362 556.3 357 584.2 351.8C612 346.7 640 341.3 667.8 344.2C695.7 347 723.3 358 751.2 360.7C779 363.3 807 357.7 834.8 352.5C862.7 347.3 890.3 342.7 918.2 341.3C946 340 974 342 1001.8 345C1029.7 348 1057.3 352 1085.2 349.8C1113 347.7 1141 339.3 1168.8 342C1196.7 344.7 1224.3 358.3 1252.2 361.5C1280 364.7 1308 357.3 1335.8 355C1363.7 352.7 1391.3 355.3 1419.2 351C1447 346.7 1475 335.3 1502.8 336.2C1530.7 337 1558.3 350 1586.2 356.2C1614 362.3 1642 361.7 1669.8 361.7C1697.7 361.7 1725.3 362.3 1753.2 358.8C1781 355.3 1809 347.7 1836.8 342C1864.7 336.3 1892.3 332.7 1906.2 330.8L1920 329L1920 401L1906.2 401C1892.3 401 1864.7 401 1836.8 401C1809 401 1781 401 1753.2 401C1725.3 401 1697.7 401 1669.8 401C1642 401 1614 401 1586.2 401C1558.3 401 1530.7 401 1502.8 401C1475 401 1447 401 1419.2 401C1391.3 401 1363.7 401 1335.8 401C1308 401 1280 401 1252.2 401C1224.3 401 1196.7 401 1168.8 401C1141 401 1113 401 1085.2 401C1057.3 401 1029.7 401 1001.8 401C974 401 946 401 918.2 401C890.3 401 862.7 401 834.8 401C807 401 779 401 751.2 401C723.3 401 695.7 401 667.8 401C640 401 612 401 584.2 401C556.3 401 528.7 401 500.8 401C473 401 445 401 417.2 401C389.3 401 361.7 401 333.8 401C306 401 278 401 250.2 401C222.3 401 194.7 401 166.8 401C139 401 111 401 83.2 401C55.3 401 27.7 401 13.8 401L0 401Z" fill="#f4602c"></path></svg>