<svg
  id="visual"
  viewBox="0 0 1920 400"
  width="1920"
  height="400"
  xmlns="http://www.w3.org/2000/svg"
  xmlns:xlink="http://www.w3.org/1999/xlink"
  version="1.1"
>
  <rect x="0" y="0" width="1920" height="400" fill="#001220"></rect>
  <path
    d="M0 367L13.8 365.8C27.7 364.7 55.3 362.3 83.2 360.5C111 358.7 139 357.3 166.8 353.8C194.7 350.3 222.3 344.7 250.2 347C278 349.3 306 359.7 333.8 364.2C361.7 368.7 389.3 367.3 417.2 362.3C445 357.3 473 348.7 500.8 343.5C528.7 338.3 556.3 336.7 584.2 342.5C612 348.3 640 361.7 667.8 364.7C695.7 367.7 723.3 360.3 751.2 360.5C779 360.7 807 368.3 834.8 364.3C862.7 360.3 890.3 344.7 918.2 344C946 343.3 974 357.7 1001.8 360C1029.7 362.3 1057.3 352.7 1085.2 348.2C1113 343.7 1141 344.3 1168.8 348.7C1196.7 353 1224.3 361 1252.2 366C1280 371 1308 373 1335.8 369.5C1363.7 366 1391.3 357 1419.2 352.7C1447 348.3 1475 348.7 1502.8 351C1530.7 353.3 1558.3 357.7 1586.2 352.8C1614 348 1642 334 1669.8 327.3C1697.7 320.7 1725.3 321.3 1753.2 329.3C1781 337.3 1809 352.7 1836.8 353.8C1864.7 355 1892.3 342 1906.2 335.5L1920 329L1920 0L1906.2 0C1892.3 0 1864.7 0 1836.8 0C1809 0 1781 0 1753.2 0C1725.3 0 1697.7 0 1669.8 0C1642 0 1614 0 1586.2 0C1558.3 0 1530.7 0 1502.8 0C1475 0 1447 0 1419.2 0C1391.3 0 1363.7 0 1335.8 0C1308 0 1280 0 1252.2 0C1224.3 0 1196.7 0 1168.8 0C1141 0 1113 0 1085.2 0C1057.3 0 1029.7 0 1001.8 0C974 0 946 0 918.2 0C890.3 0 862.7 0 834.8 0C807 0 779 0 751.2 0C723.3 0 695.7 0 667.8 0C640 0 612 0 584.2 0C556.3 0 528.7 0 500.8 0C473 0 445 0 417.2 0C389.3 0 361.7 0 333.8 0C306 0 278 0 250.2 0C222.3 0 194.7 0 166.8 0C139 0 111 0 83.2 0C55.3 0 27.7 0 13.8 0L0 0Z"
    fill="#001220"
  ></path>
  <path
    d="M0 292L13.8 293C27.7 294 55.3 296 83.2 293.2C111 290.3 139 282.7 166.8 280.5C194.7 278.3 222.3 281.7 250.2 282.8C278 284 306 283 333.8 286.2C361.7 289.3 389.3 296.7 417.2 299.7C445 302.7 473 301.3 500.8 298.2C528.7 295 556.3 290 584.2 285.3C612 280.7 640 276.3 667.8 277.5C695.7 278.7 723.3 285.3 751.2 293C779 300.7 807 309.3 834.8 308C862.7 306.7 890.3 295.3 918.2 290.8C946 286.3 974 288.7 1001.8 289.3C1029.7 290 1057.3 289 1085.2 291.7C1113 294.3 1141 300.7 1168.8 304C1196.7 307.3 1224.3 307.7 1252.2 305.8C1280 304 1308 300 1335.8 299.8C1363.7 299.7 1391.3 303.3 1419.2 302.7C1447 302 1475 297 1502.8 295C1530.7 293 1558.3 294 1586.2 299.3C1614 304.7 1642 314.3 1669.8 316C1697.7 317.7 1725.3 311.3 1753.2 305.2C1781 299 1809 293 1836.8 287.3C1864.7 281.7 1892.3 276.3 1906.2 273.7L1920 271L1920 0L1906.2 0C1892.3 0 1864.7 0 1836.8 0C1809 0 1781 0 1753.2 0C1725.3 0 1697.7 0 1669.8 0C1642 0 1614 0 1586.2 0C1558.3 0 1530.7 0 1502.8 0C1475 0 1447 0 1419.2 0C1391.3 0 1363.7 0 1335.8 0C1308 0 1280 0 1252.2 0C1224.3 0 1196.7 0 1168.8 0C1141 0 1113 0 1085.2 0C1057.3 0 1029.7 0 1001.8 0C974 0 946 0 918.2 0C890.3 0 862.7 0 834.8 0C807 0 779 0 751.2 0C723.3 0 695.7 0 667.8 0C640 0 612 0 584.2 0C556.3 0 528.7 0 500.8 0C473 0 445 0 417.2 0C389.3 0 361.7 0 333.8 0C306 0 278 0 250.2 0C222.3 0 194.7 0 166.8 0C139 0 111 0 83.2 0C55.3 0 27.7 0 13.8 0L0 0Z"
    fill="#273340"
  ></path>
  <path
    d="M0 238L13.8 237.5C27.7 237 55.3 236 83.2 233.3C111 230.7 139 226.3 166.8 232C194.7 237.7 222.3 253.3 250.2 258C278 262.7 306 256.3 333.8 256.2C361.7 256 389.3 262 417.2 263.3C445 264.7 473 261.3 500.8 254.7C528.7 248 556.3 238 584.2 237.2C612 236.3 640 244.7 667.8 253C695.7 261.3 723.3 269.7 751.2 268.5C779 267.3 807 256.7 834.8 256.8C862.7 257 890.3 268 918.2 271.3C946 274.7 974 270.3 1001.8 270C1029.7 269.7 1057.3 273.3 1085.2 265.5C1113 257.7 1141 238.3 1168.8 238.3C1196.7 238.3 1224.3 257.7 1252.2 259.3C1280 261 1308 245 1335.8 237.5C1363.7 230 1391.3 231 1419.2 239C1447 247 1475 262 1502.8 262C1530.7 262 1558.3 247 1586.2 240.3C1614 233.7 1642 235.3 1669.8 242.2C1697.7 249 1725.3 261 1753.2 260C1781 259 1809 245 1836.8 244.8C1864.7 244.7 1892.3 258.3 1906.2 265.2L1920 272L1920 0L1906.2 0C1892.3 0 1864.7 0 1836.8 0C1809 0 1781 0 1753.2 0C1725.3 0 1697.7 0 1669.8 0C1642 0 1614 0 1586.2 0C1558.3 0 1530.7 0 1502.8 0C1475 0 1447 0 1419.2 0C1391.3 0 1363.7 0 1335.8 0C1308 0 1280 0 1252.2 0C1224.3 0 1196.7 0 1168.8 0C1141 0 1113 0 1085.2 0C1057.3 0 1029.7 0 1001.8 0C974 0 946 0 918.2 0C890.3 0 862.7 0 834.8 0C807 0 779 0 751.2 0C723.3 0 695.7 0 667.8 0C640 0 612 0 584.2 0C556.3 0 528.7 0 500.8 0C473 0 445 0 417.2 0C389.3 0 361.7 0 333.8 0C306 0 278 0 250.2 0C222.3 0 194.7 0 166.8 0C139 0 111 0 83.2 0C55.3 0 27.7 0 13.8 0L0 0Z"
    fill="#4e5762"
  ></path>
  <path
    d="M0 186L13.8 186.3C27.7 186.7 55.3 187.3 83.2 193.3C111 199.3 139 210.7 166.8 208.8C194.7 207 222.3 192 250.2 192.7C278 193.3 306 209.7 333.8 211.5C361.7 213.3 389.3 200.7 417.2 192.5C445 184.3 473 180.7 500.8 184.8C528.7 189 556.3 201 584.2 199.8C612 198.7 640 184.3 667.8 180.7C695.7 177 723.3 184 751.2 193C779 202 807 213 834.8 212C862.7 211 890.3 198 918.2 194.2C946 190.3 974 195.7 1001.8 197C1029.7 198.3 1057.3 195.7 1085.2 190.8C1113 186 1141 179 1168.8 185C1196.7 191 1224.3 210 1252.2 216.5C1280 223 1308 217 1335.8 211.2C1363.7 205.3 1391.3 199.7 1419.2 198.7C1447 197.7 1475 201.3 1502.8 200.7C1530.7 200 1558.3 195 1586.2 196.2C1614 197.3 1642 204.7 1669.8 203.3C1697.7 202 1725.3 192 1753.2 193.2C1781 194.3 1809 206.7 1836.8 210.5C1864.7 214.3 1892.3 209.7 1906.2 207.3L1920 205L1920 0L1906.2 0C1892.3 0 1864.7 0 1836.8 0C1809 0 1781 0 1753.2 0C1725.3 0 1697.7 0 1669.8 0C1642 0 1614 0 1586.2 0C1558.3 0 1530.7 0 1502.8 0C1475 0 1447 0 1419.2 0C1391.3 0 1363.7 0 1335.8 0C1308 0 1280 0 1252.2 0C1224.3 0 1196.7 0 1168.8 0C1141 0 1113 0 1085.2 0C1057.3 0 1029.7 0 1001.8 0C974 0 946 0 918.2 0C890.3 0 862.7 0 834.8 0C807 0 779 0 751.2 0C723.3 0 695.7 0 667.8 0C640 0 612 0 584.2 0C556.3 0 528.7 0 500.8 0C473 0 445 0 417.2 0C389.3 0 361.7 0 333.8 0C306 0 278 0 250.2 0C222.3 0 194.7 0 166.8 0C139 0 111 0 83.2 0C55.3 0 27.7 0 13.8 0L0 0Z"
    fill="#777e87"
  ></path>
  <path
    d="M0 140L13.8 142.7C27.7 145.3 55.3 150.7 83.2 147.5C111 144.3 139 132.7 166.8 132.7C194.7 132.7 222.3 144.3 250.2 151.3C278 158.3 306 160.7 333.8 160.3C361.7 160 389.3 157 417.2 150.7C445 144.3 473 134.7 500.8 133.3C528.7 132 556.3 139 584.2 144.5C612 150 640 154 667.8 153.7C695.7 153.3 723.3 148.7 751.2 146.2C779 143.7 807 143.3 834.8 142.2C862.7 141 890.3 139 918.2 145C946 151 974 165 1001.8 168.3C1029.7 171.7 1057.3 164.3 1085.2 155.3C1113 146.3 1141 135.7 1168.8 138.2C1196.7 140.7 1224.3 156.3 1252.2 160.5C1280 164.7 1308 157.3 1335.8 153.2C1363.7 149 1391.3 148 1419.2 147.5C1447 147 1475 147 1502.8 146C1530.7 145 1558.3 143 1586.2 147.5C1614 152 1642 163 1669.8 167C1697.7 171 1725.3 168 1753.2 168.8C1781 169.7 1809 174.3 1836.8 169.2C1864.7 164 1892.3 149 1906.2 141.5L1920 134L1920 0L1906.2 0C1892.3 0 1864.7 0 1836.8 0C1809 0 1781 0 1753.2 0C1725.3 0 1697.7 0 1669.8 0C1642 0 1614 0 1586.2 0C1558.3 0 1530.7 0 1502.8 0C1475 0 1447 0 1419.2 0C1391.3 0 1363.7 0 1335.8 0C1308 0 1280 0 1252.2 0C1224.3 0 1196.7 0 1168.8 0C1141 0 1113 0 1085.2 0C1057.3 0 1029.7 0 1001.8 0C974 0 946 0 918.2 0C890.3 0 862.7 0 834.8 0C807 0 779 0 751.2 0C723.3 0 695.7 0 667.8 0C640 0 612 0 584.2 0C556.3 0 528.7 0 500.8 0C473 0 445 0 417.2 0C389.3 0 361.7 0 333.8 0C306 0 278 0 250.2 0C222.3 0 194.7 0 166.8 0C139 0 111 0 83.2 0C55.3 0 27.7 0 13.8 0L0 0Z"
    fill="#a2a7ad"
  ></path>
  <path
    d="M0 105L13.8 107.3C27.7 109.7 55.3 114.3 83.2 115.2C111 116 139 113 166.8 109.2C194.7 105.3 222.3 100.7 250.2 98C278 95.3 306 94.7 333.8 97.7C361.7 100.7 389.3 107.3 417.2 109C445 110.7 473 107.3 500.8 106.5C528.7 105.7 556.3 107.3 584.2 106.2C612 105 640 101 667.8 101.8C695.7 102.7 723.3 108.3 751.2 112.3C779 116.3 807 118.7 834.8 114.5C862.7 110.3 890.3 99.7 918.2 100.2C946 100.7 974 112.3 1001.8 111.7C1029.7 111 1057.3 98 1085.2 95.5C1113 93 1141 101 1168.8 100.2C1196.7 99.3 1224.3 89.7 1252.2 92.7C1280 95.7 1308 111.3 1335.8 112.2C1363.7 113 1391.3 99 1419.2 92.5C1447 86 1475 87 1502.8 93.3C1530.7 99.7 1558.3 111.3 1586.2 111C1614 110.7 1642 98.3 1669.8 94.2C1697.7 90 1725.3 94 1753.2 99C1781 104 1809 110 1836.8 110.2C1864.7 110.3 1892.3 104.7 1906.2 101.8L1920 99L1920 0L1906.2 0C1892.3 0 1864.7 0 1836.8 0C1809 0 1781 0 1753.2 0C1725.3 0 1697.7 0 1669.8 0C1642 0 1614 0 1586.2 0C1558.3 0 1530.7 0 1502.8 0C1475 0 1447 0 1419.2 0C1391.3 0 1363.7 0 1335.8 0C1308 0 1280 0 1252.2 0C1224.3 0 1196.7 0 1168.8 0C1141 0 1113 0 1085.2 0C1057.3 0 1029.7 0 1001.8 0C974 0 946 0 918.2 0C890.3 0 862.7 0 834.8 0C807 0 779 0 751.2 0C723.3 0 695.7 0 667.8 0C640 0 612 0 584.2 0C556.3 0 528.7 0 500.8 0C473 0 445 0 417.2 0C389.3 0 361.7 0 333.8 0C306 0 278 0 250.2 0C222.3 0 194.7 0 166.8 0C139 0 111 0 83.2 0C55.3 0 27.7 0 13.8 0L0 0Z"
    fill="#d0d2d5"
  ></path>
  <path
    d="M0 32L13.8 39.2C27.7 46.3 55.3 60.7 83.2 66C111 71.3 139 67.7 166.8 60.5C194.7 53.3 222.3 42.7 250.2 44C278 45.3 306 58.7 333.8 64.3C361.7 70 389.3 68 417.2 68.2C445 68.3 473 70.7 500.8 72C528.7 73.3 556.3 73.7 584.2 65.7C612 57.7 640 41.3 667.8 33.5C695.7 25.7 723.3 26.3 751.2 32.3C779 38.3 807 49.7 834.8 54.8C862.7 60 890.3 59 918.2 60.7C946 62.3 974 66.7 1001.8 63.5C1029.7 60.3 1057.3 49.7 1085.2 50C1113 50.3 1141 61.7 1168.8 61.2C1196.7 60.7 1224.3 48.3 1252.2 48.2C1280 48 1308 60 1335.8 61.8C1363.7 63.7 1391.3 55.3 1419.2 53.8C1447 52.3 1475 57.7 1502.8 58.5C1530.7 59.3 1558.3 55.7 1586.2 54C1614 52.3 1642 52.7 1669.8 47.3C1697.7 42 1725.3 31 1753.2 32.2C1781 33.3 1809 46.7 1836.8 56.2C1864.7 65.7 1892.3 71.3 1906.2 74.2L1920 77L1920 0L1906.2 0C1892.3 0 1864.7 0 1836.8 0C1809 0 1781 0 1753.2 0C1725.3 0 1697.7 0 1669.8 0C1642 0 1614 0 1586.2 0C1558.3 0 1530.7 0 1502.8 0C1475 0 1447 0 1419.2 0C1391.3 0 1363.7 0 1335.8 0C1308 0 1280 0 1252.2 0C1224.3 0 1196.7 0 1168.8 0C1141 0 1113 0 1085.2 0C1057.3 0 1029.7 0 1001.8 0C974 0 946 0 918.2 0C890.3 0 862.7 0 834.8 0C807 0 779 0 751.2 0C723.3 0 695.7 0 667.8 0C640 0 612 0 584.2 0C556.3 0 528.7 0 500.8 0C473 0 445 0 417.2 0C389.3 0 361.7 0 333.8 0C306 0 278 0 250.2 0C222.3 0 194.7 0 166.8 0C139 0 111 0 83.2 0C55.3 0 27.7 0 13.8 0L0 0Z"
    fill="#ffffff"
  ></path>
</svg>
