<svg
  id="visual"
  viewBox="0 0 900 600"
  width="900"
  height="600"
  xmlns="http://www.w3.org/2000/svg"
  xmlns:xlink="http://www.w3.org/1999/xlink"
  version="1.1"
>
  <path
    d="M0 386L21.5 387.3C43 388.7 86 391.3 128.8 389.5C171.7 387.7 214.3 381.3 257.2 385.8C300 390.3 343 405.7 385.8 402.5C428.7 399.3 471.3 377.7 514.2 369C557 360.3 600 364.7 642.8 371C685.7 377.3 728.3 385.7 771.2 389.2C814 392.7 857 391.3 878.5 390.7L900 390L900 601L878.5 601C857 601 814 601 771.2 601C728.3 601 685.7 601 642.8 601C600 601 557 601 514.2 601C471.3 601 428.7 601 385.8 601C343 601 300 601 257.2 601C214.3 601 171.7 601 128.8 601C86 601 43 601 21.5 601L0 601Z"
    fill="#f57c00"
  ></path>
  <path
    d="M0 411L21.5 412.2C43 413.3 86 415.7 128.8 420.5C171.7 425.3 214.3 432.7 257.2 432.8C300 433 343 426 385.8 422.8C428.7 419.7 471.3 420.3 514.2 416C557 411.7 600 402.3 642.8 404.5C685.7 406.7 728.3 420.3 771.2 428.7C814 437 857 440 878.5 441.5L900 443L900 601L878.5 601C857 601 814 601 771.2 601C728.3 601 685.7 601 642.8 601C600 601 557 601 514.2 601C471.3 601 428.7 601 385.8 601C343 601 300 601 257.2 601C214.3 601 171.7 601 128.8 601C86 601 43 601 21.5 601L0 601Z"
    fill="#f4602c"
  ></path>
  <path
    d="M0 443L21.5 450C43 457 86 471 128.8 480.2C171.7 489.3 214.3 493.7 257.2 494.3C300 495 343 492 385.8 487.3C428.7 482.7 471.3 476.3 514.2 475C557 473.7 600 477.3 642.8 483.3C685.7 489.3 728.3 497.7 771.2 492.3C814 487 857 468 878.5 458.5L900 449L900 601L878.5 601C857 601 814 601 771.2 601C728.3 601 685.7 601 642.8 601C600 601 557 601 514.2 601C471.3 601 428.7 601 385.8 601C343 601 300 601 257.2 601C214.3 601 171.7 601 128.8 601C86 601 43 601 21.5 601L0 601Z"
    fill="#ec4644"
  ></path>
  <path
    d="M0 543L21.5 539C43 535 86 527 128.8 517.5C171.7 508 214.3 497 257.2 497.7C300 498.3 343 510.7 385.8 519.3C428.7 528 471.3 533 514.2 532C557 531 600 524 642.8 523.7C685.7 523.3 728.3 529.7 771.2 524.8C814 520 857 504 878.5 496L900 488L900 601L878.5 601C857 601 814 601 771.2 601C728.3 601 685.7 601 642.8 601C600 601 557 601 514.2 601C471.3 601 428.7 601 385.8 601C343 601 300 601 257.2 601C214.3 601 171.7 601 128.8 601C86 601 43 601 21.5 601L0 601Z"
    fill="#dc3058"
  ></path>
  <path
    d="M0 524L21.5 532.2C43 540.3 86 556.7 128.8 557.3C171.7 558 214.3 543 257.2 537.5C300 532 343 536 385.8 538.3C428.7 540.7 471.3 541.3 514.2 544.7C557 548 600 554 642.8 553.3C685.7 552.7 728.3 545.3 771.2 545.8C814 546.3 857 554.7 878.5 558.8L900 563L900 601L878.5 601C857 601 814 601 771.2 601C728.3 601 685.7 601 642.8 601C600 601 557 601 514.2 601C471.3 601 428.7 601 385.8 601C343 601 300 601 257.2 601C214.3 601 171.7 601 128.8 601C86 601 43 601 21.5 601L0 601Z"
    fill="#c62368"
  ></path>
</svg>
