<svg
  id="visual"
  viewBox="0 0 1920 100"
  width="1920"
  height="100"
  xmlns="http://www.w3.org/2000/svg"
  xmlns:xlink="http://www.w3.org/1999/xlink"
  version="1.1"
>
  <path
    d="M0 25L12.8 25.5C25.7 26 51.3 27 77 32.8C102.7 38.7 128.3 49.3 153.8 51C179.3 52.7 204.7 45.3 230.2 43.7C255.7 42 281.3 46 307 48C332.7 50 358.3 50 384 43.5C409.7 37 435.3 24 461 24.7C486.7 25.3 512.3 39.7 537.8 48C563.3 56.3 588.7 58.7 614.2 50.2C639.7 41.7 665.3 22.3 691 17.2C716.7 12 742.3 21 768 29C793.7 37 819.3 44 845 39C870.7 34 896.3 17 921.8 10.3C947.3 3.7 972.7 7.3 998.2 15.3C1023.7 23.3 1049.3 35.7 1075 40.7C1100.7 45.7 1126.3 43.3 1152 41C1177.7 38.7 1203.3 36.3 1229 38.8C1254.7 41.3 1280.3 48.7 1305.8 52.8C1331.3 57 1356.7 58 1382.2 49.8C1407.7 41.7 1433.3 24.3 1459 20.2C1484.7 16 1510.3 25 1536 34.2C1561.7 43.3 1587.3 52.7 1613 55.8C1638.7 59 1664.3 56 1689.8 46.8C1715.3 37.7 1740.7 22.3 1766.2 13.7C1791.7 5 1817.3 3 1843 4.7C1868.7 6.3 1894.3 11.7 1907.2 14.3L1920 17L1920 0L1907.2 0C1894.3 0 1868.7 0 1843 0C1817.3 0 1791.7 0 1766.2 0C1740.7 0 1715.3 0 1689.8 0C1664.3 0 1638.7 0 1613 0C1587.3 0 1561.7 0 1536 0C1510.3 0 1484.7 0 1459 0C1433.3 0 1407.7 0 1382.2 0C1356.7 0 1331.3 0 1305.8 0C1280.3 0 1254.7 0 1229 0C1203.3 0 1177.7 0 1152 0C1126.3 0 1100.7 0 1075 0C1049.3 0 1023.7 0 998.2 0C972.7 0 947.3 0 921.8 0C896.3 0 870.7 0 845 0C819.3 0 793.7 0 768 0C742.3 0 716.7 0 691 0C665.3 0 639.7 0 614.2 0C588.7 0 563.3 0 537.8 0C512.3 0 486.7 0 461 0C435.3 0 409.7 0 384 0C358.3 0 332.7 0 307 0C281.3 0 255.7 0 230.2 0C204.7 0 179.3 0 153.8 0C128.3 0 102.7 0 77 0C51.3 0 25.7 0 12.8 0L0 0Z"
    fill="#0066ff"
    stroke-linecap="round"
    stroke-linejoin="miter"
  ></path>
</svg>
