<svg
  id="visual"
  viewBox="0 0 1920 300"
  width="1920"
  height="300"
  xmlns="http://www.w3.org/2000/svg"
  xmlns:xlink="http://www.w3.org/1999/xlink"
  version="1.1"
>
  <rect x="0" y="0" width="1920" height="300" fill="#001220"></rect>
  <path
    d="M0 206L20 210.2C40 214.3 80 222.7 120 236.2C160 249.7 200 268.3 240 276.3C280 284.3 320 281.7 360 266.5C400 251.3 440 223.7 480 223.8C520 224 560 252 600 263.7C640 275.3 680 270.7 720 273C760 275.3 800 284.7 840 281.2C880 277.7 920 261.3 960 258.5C1000 255.7 1040 266.3 1080 256.8C1120 247.3 1160 217.7 1200 214.3C1240 211 1280 234 1320 232.7C1360 231.3 1400 205.7 1440 212C1480 218.3 1520 256.7 1560 264.5C1600 272.3 1640 249.7 1680 241.5C1720 233.3 1760 239.7 1800 235.3C1840 231 1880 216 1900 208.5L1920 201L1920 0L1900 0C1880 0 1840 0 1800 0C1760 0 1720 0 1680 0C1640 0 1600 0 1560 0C1520 0 1480 0 1440 0C1400 0 1360 0 1320 0C1280 0 1240 0 1200 0C1160 0 1120 0 1080 0C1040 0 1000 0 960 0C920 0 880 0 840 0C800 0 760 0 720 0C680 0 640 0 600 0C560 0 520 0 480 0C440 0 400 0 360 0C320 0 280 0 240 0C200 0 160 0 120 0C80 0 40 0 20 0L0 0Z"
    fill="#001220"
  ></path>
  <path
    d="M0 197L20 187.2C40 177.3 80 157.7 120 150C160 142.3 200 146.7 240 160.5C280 174.3 320 197.7 360 213.3C400 229 440 237 480 230.3C520 223.7 560 202.3 600 187.7C640 173 680 165 720 157.8C760 150.7 800 144.3 840 158.3C880 172.3 920 206.7 960 214.8C1000 223 1040 205 1080 200.7C1120 196.3 1160 205.7 1200 205.8C1240 206 1280 197 1320 186C1360 175 1400 162 1440 156.3C1480 150.7 1520 152.3 1560 164.5C1600 176.7 1640 199.3 1680 207.2C1720 215 1760 208 1800 210C1840 212 1880 223 1900 228.5L1920 234L1920 0L1900 0C1880 0 1840 0 1800 0C1760 0 1720 0 1680 0C1640 0 1600 0 1560 0C1520 0 1480 0 1440 0C1400 0 1360 0 1320 0C1280 0 1240 0 1200 0C1160 0 1120 0 1080 0C1040 0 1000 0 960 0C920 0 880 0 840 0C800 0 760 0 720 0C680 0 640 0 600 0C560 0 520 0 480 0C440 0 400 0 360 0C320 0 280 0 240 0C200 0 160 0 120 0C80 0 40 0 20 0L0 0Z"
    fill="#002a54"
  ></path>
  <path
    d="M0 145L20 147.7C40 150.3 80 155.7 120 149.5C160 143.3 200 125.7 240 126.8C280 128 320 148 360 147.8C400 147.7 440 127.3 480 123.7C520 120 560 133 600 132.3C640 131.7 680 117.3 720 117.2C760 117 800 131 840 136.2C880 141.3 920 137.7 960 145.7C1000 153.7 1040 173.3 1080 177C1120 180.7 1160 168.3 1200 158.3C1240 148.3 1280 140.7 1320 129.7C1360 118.7 1400 104.3 1440 109.8C1480 115.3 1520 140.7 1560 158.3C1600 176 1640 186 1680 175.8C1720 165.7 1760 135.3 1800 126.3C1840 117.3 1880 129.7 1900 135.8L1920 142L1920 0L1900 0C1880 0 1840 0 1800 0C1760 0 1720 0 1680 0C1640 0 1600 0 1560 0C1520 0 1480 0 1440 0C1400 0 1360 0 1320 0C1280 0 1240 0 1200 0C1160 0 1120 0 1080 0C1040 0 1000 0 960 0C920 0 880 0 840 0C800 0 760 0 720 0C680 0 640 0 600 0C560 0 520 0 480 0C440 0 400 0 360 0C320 0 280 0 240 0C200 0 160 0 120 0C80 0 40 0 20 0L0 0Z"
    fill="#00408b"
  ></path>
  <path
    d="M0 102L20 95C40 88 80 74 120 72.8C160 71.7 200 83.3 240 91C280 98.7 320 102.3 360 107.3C400 112.3 440 118.7 480 110.3C520 102 560 79 600 75.3C640 71.7 680 87.3 720 89C760 90.7 800 78.3 840 81.3C880 84.3 920 102.7 960 102.7C1000 102.7 1040 84.3 1080 85.3C1120 86.3 1160 106.7 1200 109.3C1240 112 1280 97 1320 90.7C1360 84.3 1400 86.7 1440 87.2C1480 87.7 1520 86.3 1560 93.8C1600 101.3 1640 117.7 1680 123.8C1720 130 1760 126 1800 120.3C1840 114.7 1880 107.3 1900 103.7L1920 100L1920 0L1900 0C1880 0 1840 0 1800 0C1760 0 1720 0 1680 0C1640 0 1600 0 1560 0C1520 0 1480 0 1440 0C1400 0 1360 0 1320 0C1280 0 1240 0 1200 0C1160 0 1120 0 1080 0C1040 0 1000 0 960 0C920 0 880 0 840 0C800 0 760 0 720 0C680 0 640 0 600 0C560 0 520 0 480 0C440 0 400 0 360 0C320 0 280 0 240 0C200 0 160 0 120 0C80 0 40 0 20 0L0 0Z"
    fill="#0054c4"
  ></path>
  <path
    d="M0 20L20 19.7C40 19.3 80 18.7 120 29.7C160 40.7 200 63.3 240 71.8C280 80.3 320 74.7 360 61.8C400 49 440 29 480 26.8C520 24.7 560 40.3 600 54.2C640 68 680 80 720 79.8C760 79.7 800 67.3 840 53.5C880 39.7 920 24.3 960 24.3C1000 24.3 1040 39.7 1080 41C1120 42.3 1160 29.7 1200 36.5C1240 43.3 1280 69.7 1320 77C1360 84.3 1400 72.7 1440 60.8C1480 49 1520 37 1560 42.8C1600 48.7 1640 72.3 1680 70.3C1720 68.3 1760 40.7 1800 36.7C1840 32.7 1880 52.3 1900 62.2L1920 72L1920 0L1900 0C1880 0 1840 0 1800 0C1760 0 1720 0 1680 0C1640 0 1600 0 1560 0C1520 0 1480 0 1440 0C1400 0 1360 0 1320 0C1280 0 1240 0 1200 0C1160 0 1120 0 1080 0C1040 0 1000 0 960 0C920 0 880 0 840 0C800 0 760 0 720 0C680 0 640 0 600 0C560 0 520 0 480 0C440 0 400 0 360 0C320 0 280 0 240 0C200 0 160 0 120 0C80 0 40 0 20 0L0 0Z"
    fill="#0066ff"
  ></path>
</svg>
