<svg
  id="visual"
  viewBox="0 0 1920 300"
  width="1920"
  height="300"
  xmlns="http://www.w3.org/2000/svg"
  xmlns:xlink="http://www.w3.org/1999/xlink"
  version="1.1"
>
  <rect x="0" y="0" width="1920" height="300" fill="#001220"></rect>
  <path
    d="M0 57L17.8 51.8C35.7 46.7 71.3 36.3 106.8 42.2C142.3 48 177.7 70 213.2 77.3C248.7 84.7 284.3 77.3 320 66.5C355.7 55.7 391.3 41.3 426.8 32.2C462.3 23 497.7 19 533.2 36C568.7 53 604.3 91 640 98C675.7 105 711.3 81 746.8 78.5C782.3 76 817.7 95 853.2 105.5C888.7 116 924.3 118 960 109.7C995.7 101.3 1031.3 82.7 1066.8 84C1102.3 85.3 1137.7 106.7 1173.2 99.3C1208.7 92 1244.3 56 1280 47C1315.7 38 1351.3 56 1386.8 66.3C1422.3 76.7 1457.7 79.3 1493.2 74.8C1528.7 70.3 1564.3 58.7 1600 64.8C1635.7 71 1671.3 95 1706.8 88.2C1742.3 81.3 1777.7 43.7 1813.2 44.3C1848.7 45 1884.3 84 1902.2 103.5L1920 123L1920 301L1902.2 301C1884.3 301 1848.7 301 1813.2 301C1777.7 301 1742.3 301 1706.8 301C1671.3 301 1635.7 301 1600 301C1564.3 301 1528.7 301 1493.2 301C1457.7 301 1422.3 301 1386.8 301C1351.3 301 1315.7 301 1280 301C1244.3 301 1208.7 301 1173.2 301C1137.7 301 1102.3 301 1066.8 301C1031.3 301 995.7 301 960 301C924.3 301 888.7 301 853.2 301C817.7 301 782.3 301 746.8 301C711.3 301 675.7 301 640 301C604.3 301 568.7 301 533.2 301C497.7 301 462.3 301 426.8 301C391.3 301 355.7 301 320 301C284.3 301 248.7 301 213.2 301C177.7 301 142.3 301 106.8 301C71.3 301 35.7 301 17.8 301L0 301Z"
    fill="#001220"
  ></path>
  <path
    d="M0 62L17.8 62.2C35.7 62.3 71.3 62.7 106.8 78.3C142.3 94 177.7 125 213.2 134.3C248.7 143.7 284.3 131.3 320 125.5C355.7 119.7 391.3 120.3 426.8 115.3C462.3 110.3 497.7 99.7 533.2 90.7C568.7 81.7 604.3 74.3 640 83.3C675.7 92.3 711.3 117.7 746.8 132.8C782.3 148 817.7 153 853.2 148.2C888.7 143.3 924.3 128.7 960 125.5C995.7 122.3 1031.3 130.7 1066.8 121.8C1102.3 113 1137.7 87 1173.2 90C1208.7 93 1244.3 125 1280 132.3C1315.7 139.7 1351.3 122.3 1386.8 107.5C1422.3 92.7 1457.7 80.3 1493.2 80.2C1528.7 80 1564.3 92 1600 100C1635.7 108 1671.3 112 1706.8 113.8C1742.3 115.7 1777.7 115.3 1813.2 115.8C1848.7 116.3 1884.3 117.7 1902.2 118.3L1920 119L1920 301L1902.2 301C1884.3 301 1848.7 301 1813.2 301C1777.7 301 1742.3 301 1706.8 301C1671.3 301 1635.7 301 1600 301C1564.3 301 1528.7 301 1493.2 301C1457.7 301 1422.3 301 1386.8 301C1351.3 301 1315.7 301 1280 301C1244.3 301 1208.7 301 1173.2 301C1137.7 301 1102.3 301 1066.8 301C1031.3 301 995.7 301 960 301C924.3 301 888.7 301 853.2 301C817.7 301 782.3 301 746.8 301C711.3 301 675.7 301 640 301C604.3 301 568.7 301 533.2 301C497.7 301 462.3 301 426.8 301C391.3 301 355.7 301 320 301C284.3 301 248.7 301 213.2 301C177.7 301 142.3 301 106.8 301C71.3 301 35.7 301 17.8 301L0 301Z"
    fill="#002a54"
  ></path>
  <path
    d="M0 166L17.8 158.3C35.7 150.7 71.3 135.3 106.8 126.8C142.3 118.3 177.7 116.7 213.2 121.2C248.7 125.7 284.3 136.3 320 141C355.7 145.7 391.3 144.3 426.8 140.5C462.3 136.7 497.7 130.3 533.2 131C568.7 131.7 604.3 139.3 640 151.8C675.7 164.3 711.3 181.7 746.8 187.3C782.3 193 817.7 187 853.2 177.7C888.7 168.3 924.3 155.7 960 145.8C995.7 136 1031.3 129 1066.8 134.3C1102.3 139.7 1137.7 157.3 1173.2 157.5C1208.7 157.7 1244.3 140.3 1280 138.7C1315.7 137 1351.3 151 1386.8 159.7C1422.3 168.3 1457.7 171.7 1493.2 164C1528.7 156.3 1564.3 137.7 1600 142.2C1635.7 146.7 1671.3 174.3 1706.8 179.3C1742.3 184.3 1777.7 166.7 1813.2 151.7C1848.7 136.7 1884.3 124.3 1902.2 118.2L1920 112L1920 301L1902.2 301C1884.3 301 1848.7 301 1813.2 301C1777.7 301 1742.3 301 1706.8 301C1671.3 301 1635.7 301 1600 301C1564.3 301 1528.7 301 1493.2 301C1457.7 301 1422.3 301 1386.8 301C1351.3 301 1315.7 301 1280 301C1244.3 301 1208.7 301 1173.2 301C1137.7 301 1102.3 301 1066.8 301C1031.3 301 995.7 301 960 301C924.3 301 888.7 301 853.2 301C817.7 301 782.3 301 746.8 301C711.3 301 675.7 301 640 301C604.3 301 568.7 301 533.2 301C497.7 301 462.3 301 426.8 301C391.3 301 355.7 301 320 301C284.3 301 248.7 301 213.2 301C177.7 301 142.3 301 106.8 301C71.3 301 35.7 301 17.8 301L0 301Z"
    fill="#00408b"
  ></path>
  <path
    d="M0 198L17.8 197.7C35.7 197.3 71.3 196.7 106.8 205.8C142.3 215 177.7 234 213.2 229.3C248.7 224.7 284.3 196.3 320 189.3C355.7 182.3 391.3 196.7 426.8 200.8C462.3 205 497.7 199 533.2 204.3C568.7 209.7 604.3 226.3 640 224C675.7 221.7 711.3 200.3 746.8 196.7C782.3 193 817.7 207 853.2 206.7C888.7 206.3 924.3 191.7 960 182.2C995.7 172.7 1031.3 168.3 1066.8 165.7C1102.3 163 1137.7 162 1173.2 160.5C1208.7 159 1244.3 157 1280 161.3C1315.7 165.7 1351.3 176.3 1386.8 182.5C1422.3 188.7 1457.7 190.3 1493.2 199.8C1528.7 209.3 1564.3 226.7 1600 222.3C1635.7 218 1671.3 192 1706.8 189.2C1742.3 186.3 1777.7 206.7 1813.2 214.8C1848.7 223 1884.3 219 1902.2 217L1920 215L1920 301L1902.2 301C1884.3 301 1848.7 301 1813.2 301C1777.7 301 1742.3 301 1706.8 301C1671.3 301 1635.7 301 1600 301C1564.3 301 1528.7 301 1493.2 301C1457.7 301 1422.3 301 1386.8 301C1351.3 301 1315.7 301 1280 301C1244.3 301 1208.7 301 1173.2 301C1137.7 301 1102.3 301 1066.8 301C1031.3 301 995.7 301 960 301C924.3 301 888.7 301 853.2 301C817.7 301 782.3 301 746.8 301C711.3 301 675.7 301 640 301C604.3 301 568.7 301 533.2 301C497.7 301 462.3 301 426.8 301C391.3 301 355.7 301 320 301C284.3 301 248.7 301 213.2 301C177.7 301 142.3 301 106.8 301C71.3 301 35.7 301 17.8 301L0 301Z"
    fill="#0054c4"
  ></path>
  <path
    d="M0 254L17.8 247.5C35.7 241 71.3 228 106.8 223.5C142.3 219 177.7 223 213.2 232.2C248.7 241.3 284.3 255.7 320 253.3C355.7 251 391.3 232 426.8 235.8C462.3 239.7 497.7 266.3 533.2 267.5C568.7 268.7 604.3 244.3 640 236.8C675.7 229.3 711.3 238.7 746.8 248.5C782.3 258.3 817.7 268.7 853.2 274.5C888.7 280.3 924.3 281.7 960 279.8C995.7 278 1031.3 273 1066.8 270.8C1102.3 268.7 1137.7 269.3 1173.2 266.8C1208.7 264.3 1244.3 258.7 1280 247.8C1315.7 237 1351.3 221 1386.8 218.2C1422.3 215.3 1457.7 225.7 1493.2 229.7C1528.7 233.7 1564.3 231.3 1600 226.8C1635.7 222.3 1671.3 215.7 1706.8 214C1742.3 212.3 1777.7 215.7 1813.2 220.3C1848.7 225 1884.3 231 1902.2 234L1920 237L1920 301L1902.2 301C1884.3 301 1848.7 301 1813.2 301C1777.7 301 1742.3 301 1706.8 301C1671.3 301 1635.7 301 1600 301C1564.3 301 1528.7 301 1493.2 301C1457.7 301 1422.3 301 1386.8 301C1351.3 301 1315.7 301 1280 301C1244.3 301 1208.7 301 1173.2 301C1137.7 301 1102.3 301 1066.8 301C1031.3 301 995.7 301 960 301C924.3 301 888.7 301 853.2 301C817.7 301 782.3 301 746.8 301C711.3 301 675.7 301 640 301C604.3 301 568.7 301 533.2 301C497.7 301 462.3 301 426.8 301C391.3 301 355.7 301 320 301C284.3 301 248.7 301 213.2 301C177.7 301 142.3 301 106.8 301C71.3 301 35.7 301 17.8 301L0 301Z"
    fill="#0066ff"
  ></path>
</svg>
