<svg
  id="visual"
  viewBox="0 0 1920 400"
  width="1920"
  height="400"
  xmlns="http://www.w3.org/2000/svg"
  xmlns:xlink="http://www.w3.org/1999/xlink"
  version="1.1"
>
  <path
    d="M0 373L22.8 368.3C45.7 363.7 91.3 354.3 137 353.2C182.7 352 228.3 359 274 359.3C319.7 359.7 365.3 353.3 411.2 349.7C457 346 503 345 548.8 346.2C594.7 347.3 640.3 350.7 686 349.3C731.7 348 777.3 342 823 339.7C868.7 337.3 914.3 338.7 960 340.2C1005.7 341.7 1051.3 343.3 1097 346C1142.7 348.7 1188.3 352.3 1234 351.2C1279.7 350 1325.3 344 1371.2 339.5C1417 335 1463 332 1508.8 329.3C1554.7 326.7 1600.3 324.3 1646 326.8C1691.7 329.3 1737.3 336.7 1783 336.8C1828.7 337 1874.3 330 1897.2 326.5L1920 323L1920 0L1897.2 0C1874.3 0 1828.7 0 1783 0C1737.3 0 1691.7 0 1646 0C1600.3 0 1554.7 0 1508.8 0C1463 0 1417 0 1371.2 0C1325.3 0 1279.7 0 1234 0C1188.3 0 1142.7 0 1097 0C1051.3 0 1005.7 0 960 0C914.3 0 868.7 0 823 0C777.3 0 731.7 0 686 0C640.3 0 594.7 0 548.8 0C503 0 457 0 411.2 0C365.3 0 319.7 0 274 0C228.3 0 182.7 0 137 0C91.3 0 45.7 0 22.8 0L0 0Z"
    fill="#ffffff"
  ></path>
  <path
    d="M0 279L22.8 283.2C45.7 287.3 91.3 295.7 137 301.3C182.7 307 228.3 310 274 307.5C319.7 305 365.3 297 411.2 296.2C457 295.3 503 301.7 548.8 303.5C594.7 305.3 640.3 302.7 686 300.3C731.7 298 777.3 296 823 293.7C868.7 291.3 914.3 288.7 960 284.8C1005.7 281 1051.3 276 1097 278C1142.7 280 1188.3 289 1234 292.5C1279.7 296 1325.3 294 1371.2 295C1417 296 1463 300 1508.8 301.3C1554.7 302.7 1600.3 301.3 1646 305.3C1691.7 309.3 1737.3 318.7 1783 319.2C1828.7 319.7 1874.3 311.3 1897.2 307.2L1920 303L1920 0L1897.2 0C1874.3 0 1828.7 0 1783 0C1737.3 0 1691.7 0 1646 0C1600.3 0 1554.7 0 1508.8 0C1463 0 1417 0 1371.2 0C1325.3 0 1279.7 0 1234 0C1188.3 0 1142.7 0 1097 0C1051.3 0 1005.7 0 960 0C914.3 0 868.7 0 823 0C777.3 0 731.7 0 686 0C640.3 0 594.7 0 548.8 0C503 0 457 0 411.2 0C365.3 0 319.7 0 274 0C228.3 0 182.7 0 137 0C91.3 0 45.7 0 22.8 0L0 0Z"
    fill="#d0d2d5"
  ></path>
  <path
    d="M0 234L22.8 238.8C45.7 243.7 91.3 253.3 137 255.5C182.7 257.7 228.3 252.3 274 254.7C319.7 257 365.3 267 411.2 270.8C457 274.7 503 272.3 548.8 270C594.7 267.7 640.3 265.3 686 264.2C731.7 263 777.3 263 823 255.7C868.7 248.3 914.3 233.7 960 232.3C1005.7 231 1051.3 243 1097 252C1142.7 261 1188.3 267 1234 261.7C1279.7 256.3 1325.3 239.7 1371.2 239C1417 238.3 1463 253.7 1508.8 257C1554.7 260.3 1600.3 251.7 1646 247.8C1691.7 244 1737.3 245 1783 247C1828.7 249 1874.3 252 1897.2 253.5L1920 255L1920 0L1897.2 0C1874.3 0 1828.7 0 1783 0C1737.3 0 1691.7 0 1646 0C1600.3 0 1554.7 0 1508.8 0C1463 0 1417 0 1371.2 0C1325.3 0 1279.7 0 1234 0C1188.3 0 1142.7 0 1097 0C1051.3 0 1005.7 0 960 0C914.3 0 868.7 0 823 0C777.3 0 731.7 0 686 0C640.3 0 594.7 0 548.8 0C503 0 457 0 411.2 0C365.3 0 319.7 0 274 0C228.3 0 182.7 0 137 0C91.3 0 45.7 0 22.8 0L0 0Z"
    fill="#a2a7ad"
  ></path>
  <path
    d="M0 212L22.8 208.8C45.7 205.7 91.3 199.3 137 192.5C182.7 185.7 228.3 178.3 274 176.7C319.7 175 365.3 179 411.2 184.2C457 189.3 503 195.7 548.8 197.8C594.7 200 640.3 198 686 195.5C731.7 193 777.3 190 823 193.2C868.7 196.3 914.3 205.7 960 205.8C1005.7 206 1051.3 197 1097 190C1142.7 183 1188.3 178 1234 183.7C1279.7 189.3 1325.3 205.7 1371.2 215C1417 224.3 1463 226.7 1508.8 221.2C1554.7 215.7 1600.3 202.3 1646 200.5C1691.7 198.7 1737.3 208.3 1783 212C1828.7 215.7 1874.3 213.3 1897.2 212.2L1920 211L1920 0L1897.2 0C1874.3 0 1828.7 0 1783 0C1737.3 0 1691.7 0 1646 0C1600.3 0 1554.7 0 1508.8 0C1463 0 1417 0 1371.2 0C1325.3 0 1279.7 0 1234 0C1188.3 0 1142.7 0 1097 0C1051.3 0 1005.7 0 960 0C914.3 0 868.7 0 823 0C777.3 0 731.7 0 686 0C640.3 0 594.7 0 548.8 0C503 0 457 0 411.2 0C365.3 0 319.7 0 274 0C228.3 0 182.7 0 137 0C91.3 0 45.7 0 22.8 0L0 0Z"
    fill="#777e87"
  ></path>
  <path
    d="M0 141L22.8 144.7C45.7 148.3 91.3 155.7 137 158.2C182.7 160.7 228.3 158.3 274 159.7C319.7 161 365.3 166 411.2 168.3C457 170.7 503 170.3 548.8 163.5C594.7 156.7 640.3 143.3 686 141C731.7 138.7 777.3 147.3 823 147.5C868.7 147.7 914.3 139.3 960 134.3C1005.7 129.3 1051.3 127.7 1097 134.5C1142.7 141.3 1188.3 156.7 1234 161.8C1279.7 167 1325.3 162 1371.2 153.8C1417 145.7 1463 134.3 1508.8 132.2C1554.7 130 1600.3 137 1646 142.7C1691.7 148.3 1737.3 152.7 1783 153.3C1828.7 154 1874.3 151 1897.2 149.5L1920 148L1920 0L1897.2 0C1874.3 0 1828.7 0 1783 0C1737.3 0 1691.7 0 1646 0C1600.3 0 1554.7 0 1508.8 0C1463 0 1417 0 1371.2 0C1325.3 0 1279.7 0 1234 0C1188.3 0 1142.7 0 1097 0C1051.3 0 1005.7 0 960 0C914.3 0 868.7 0 823 0C777.3 0 731.7 0 686 0C640.3 0 594.7 0 548.8 0C503 0 457 0 411.2 0C365.3 0 319.7 0 274 0C228.3 0 182.7 0 137 0C91.3 0 45.7 0 22.8 0L0 0Z"
    fill="#4e5762"
  ></path>
  <path
    d="M0 105L22.8 99.5C45.7 94 91.3 83 137 81C182.7 79 228.3 86 274 88C319.7 90 365.3 87 411.2 87.8C457 88.7 503 93.3 548.8 91.8C594.7 90.3 640.3 82.7 686 87.2C731.7 91.7 777.3 108.3 823 116.2C868.7 124 914.3 123 960 113.8C1005.7 104.7 1051.3 87.3 1097 87.8C1142.7 88.3 1188.3 106.7 1234 111C1279.7 115.3 1325.3 105.7 1371.2 104.7C1417 103.7 1463 111.3 1508.8 111C1554.7 110.7 1600.3 102.3 1646 100.2C1691.7 98 1737.3 102 1783 98.7C1828.7 95.3 1874.3 84.7 1897.2 79.3L1920 74L1920 0L1897.2 0C1874.3 0 1828.7 0 1783 0C1737.3 0 1691.7 0 1646 0C1600.3 0 1554.7 0 1508.8 0C1463 0 1417 0 1371.2 0C1325.3 0 1279.7 0 1234 0C1188.3 0 1142.7 0 1097 0C1051.3 0 1005.7 0 960 0C914.3 0 868.7 0 823 0C777.3 0 731.7 0 686 0C640.3 0 594.7 0 548.8 0C503 0 457 0 411.2 0C365.3 0 319.7 0 274 0C228.3 0 182.7 0 137 0C91.3 0 45.7 0 22.8 0L0 0Z"
    fill="#273340"
  ></path>
  <path
    d="M0 22L22.8 21.7C45.7 21.3 91.3 20.7 137 28C182.7 35.3 228.3 50.7 274 54.2C319.7 57.7 365.3 49.3 411.2 42.3C457 35.3 503 29.7 548.8 32.3C594.7 35 640.3 46 686 52.5C731.7 59 777.3 61 823 55.5C868.7 50 914.3 37 960 32.7C1005.7 28.3 1051.3 32.7 1097 39.7C1142.7 46.7 1188.3 56.3 1234 61.5C1279.7 66.7 1325.3 67.3 1371.2 62C1417 56.7 1463 45.3 1508.8 43.7C1554.7 42 1600.3 50 1646 53C1691.7 56 1737.3 54 1783 57.5C1828.7 61 1874.3 70 1897.2 74.5L1920 79L1920 0L1897.2 0C1874.3 0 1828.7 0 1783 0C1737.3 0 1691.7 0 1646 0C1600.3 0 1554.7 0 1508.8 0C1463 0 1417 0 1371.2 0C1325.3 0 1279.7 0 1234 0C1188.3 0 1142.7 0 1097 0C1051.3 0 1005.7 0 960 0C914.3 0 868.7 0 823 0C777.3 0 731.7 0 686 0C640.3 0 594.7 0 548.8 0C503 0 457 0 411.2 0C365.3 0 319.7 0 274 0C228.3 0 182.7 0 137 0C91.3 0 45.7 0 22.8 0L0 0Z"
    fill="#001220"
  ></path>
</svg>
