<svg id="visual" viewBox="0 0 1920 400" width="1920" height="400" xmlns="http://www.w3.org/2000/svg" xmlns:xlink="http://www.w3.org/1999/xlink" version="1.1"><path d="M0 47L21.3 48.3C42.7 49.7 85.3 52.3 128 58.5C170.7 64.7 213.3 74.3 256 69.7C298.7 65 341.3 46 384 37.3C426.7 28.7 469.3 30.3 512 39.3C554.7 48.3 597.3 64.7 640 71.7C682.7 78.7 725.3 76.3 768 69.5C810.7 62.7 853.3 51.3 896 46.7C938.7 42 981.3 44 1024 50.7C1066.7 57.3 1109.3 68.7 1152 67.5C1194.7 66.3 1237.3 52.7 1280 52.8C1322.7 53 1365.3 67 1408 74C1450.7 81 1493.3 81 1536 79C1578.7 77 1621.3 73 1664 74.2C1706.7 75.3 1749.3 81.7 1792 79.7C1834.7 77.7 1877.3 67.3 1898.7 62.2L1920 57L1920 401L1898.7 401C1877.3 401 1834.7 401 1792 401C1749.3 401 1706.7 401 1664 401C1621.3 401 1578.7 401 1536 401C1493.3 401 1450.7 401 1408 401C1365.3 401 1322.7 401 1280 401C1237.3 401 1194.7 401 1152 401C1109.3 401 1066.7 401 1024 401C981.3 401 938.7 401 896 401C853.3 401 810.7 401 768 401C725.3 401 682.7 401 640 401C597.3 401 554.7 401 512 401C469.3 401 426.7 401 384 401C341.3 401 298.7 401 256 401C213.3 401 170.7 401 128 401C85.3 401 42.7 401 21.3 401L0 401Z" fill="#ffffff"></path><path d="M0 117L21.3 110.7C42.7 104.3 85.3 91.7 128 87C170.7 82.3 213.3 85.7 256 93.7C298.7 101.7 341.3 114.3 384 119.5C426.7 124.7 469.3 122.3 512 119C554.7 115.7 597.3 111.3 640 110C682.7 108.7 725.3 110.3 768 114.3C810.7 118.3 853.3 124.7 896 130.2C938.7 135.7 981.3 140.3 1024 141.7C1066.7 143 1109.3 141 1152 131.3C1194.7 121.7 1237.3 104.3 1280 101.2C1322.7 98 1365.3 109 1408 108.8C1450.7 108.7 1493.3 97.3 1536 91.5C1578.7 85.7 1621.3 85.3 1664 91.7C1706.7 98 1749.3 111 1792 118.8C1834.7 126.7 1877.3 129.3 1898.7 130.7L1920 132L1920 401L1898.7 401C1877.3 401 1834.7 401 1792 401C1749.3 401 1706.7 401 1664 401C1621.3 401 1578.7 401 1536 401C1493.3 401 1450.7 401 1408 401C1365.3 401 1322.7 401 1280 401C1237.3 401 1194.7 401 1152 401C1109.3 401 1066.7 401 1024 401C981.3 401 938.7 401 896 401C853.3 401 810.7 401 768 401C725.3 401 682.7 401 640 401C597.3 401 554.7 401 512 401C469.3 401 426.7 401 384 401C341.3 401 298.7 401 256 401C213.3 401 170.7 401 128 401C85.3 401 42.7 401 21.3 401L0 401Z" fill="#c7c9cd"></path><path d="M0 180L21.3 179.8C42.7 179.7 85.3 179.3 128 174.5C170.7 169.7 213.3 160.3 256 158.3C298.7 156.3 341.3 161.7 384 168.7C426.7 175.7 469.3 184.3 512 188.5C554.7 192.7 597.3 192.3 640 187.2C682.7 182 725.3 172 768 170.5C810.7 169 853.3 176 896 178.5C938.7 181 981.3 179 1024 180.2C1066.7 181.3 1109.3 185.7 1152 188.3C1194.7 191 1237.3 192 1280 190.3C1322.7 188.7 1365.3 184.3 1408 183.5C1450.7 182.7 1493.3 185.3 1536 178.7C1578.7 172 1621.3 156 1664 152.7C1706.7 149.3 1749.3 158.7 1792 158.3C1834.7 158 1877.3 148 1898.7 143L1920 138L1920 401L1898.7 401C1877.3 401 1834.7 401 1792 401C1749.3 401 1706.7 401 1664 401C1621.3 401 1578.7 401 1536 401C1493.3 401 1450.7 401 1408 401C1365.3 401 1322.7 401 1280 401C1237.3 401 1194.7 401 1152 401C1109.3 401 1066.7 401 1024 401C981.3 401 938.7 401 896 401C853.3 401 810.7 401 768 401C725.3 401 682.7 401 640 401C597.3 401 554.7 401 512 401C469.3 401 426.7 401 384 401C341.3 401 298.7 401 256 401C213.3 401 170.7 401 128 401C85.3 401 42.7 401 21.3 401L0 401Z" fill="#91969e"></path><path d="M0 255L21.3 254.3C42.7 253.7 85.3 252.3 128 242.3C170.7 232.3 213.3 213.7 256 214.2C298.7 214.7 341.3 234.3 384 238.5C426.7 242.7 469.3 231.3 512 231C554.7 230.7 597.3 241.3 640 244.8C682.7 248.3 725.3 244.7 768 241.2C810.7 237.7 853.3 234.3 896 227.7C938.7 221 981.3 211 1024 210C1066.7 209 1109.3 217 1152 222.5C1194.7 228 1237.3 231 1280 234.7C1322.7 238.3 1365.3 242.7 1408 236.5C1450.7 230.3 1493.3 213.7 1536 210.2C1578.7 206.7 1621.3 216.3 1664 223C1706.7 229.7 1749.3 233.3 1792 235.2C1834.7 237 1877.3 237 1898.7 237L1920 237L1920 401L1898.7 401C1877.3 401 1834.7 401 1792 401C1749.3 401 1706.7 401 1664 401C1621.3 401 1578.7 401 1536 401C1493.3 401 1450.7 401 1408 401C1365.3 401 1322.7 401 1280 401C1237.3 401 1194.7 401 1152 401C1109.3 401 1066.7 401 1024 401C981.3 401 938.7 401 896 401C853.3 401 810.7 401 768 401C725.3 401 682.7 401 640 401C597.3 401 554.7 401 512 401C469.3 401 426.7 401 384 401C341.3 401 298.7 401 256 401C213.3 401 170.7 401 128 401C85.3 401 42.7 401 21.3 401L0 401Z" fill="#5e6671"></path><path d="M0 265L21.3 273C42.7 281 85.3 297 128 295.3C170.7 293.7 213.3 274.3 256 269.5C298.7 264.7 341.3 274.3 384 277.7C426.7 281 469.3 278 512 277.5C554.7 277 597.3 279 640 282.7C682.7 286.3 725.3 291.7 768 297.5C810.7 303.3 853.3 309.7 896 308.7C938.7 307.7 981.3 299.3 1024 298.2C1066.7 297 1109.3 303 1152 303.8C1194.7 304.7 1237.3 300.3 1280 293C1322.7 285.7 1365.3 275.3 1408 272.8C1450.7 270.3 1493.3 275.7 1536 283.7C1578.7 291.7 1621.3 302.3 1664 307.7C1706.7 313 1749.3 313 1792 311.3C1834.7 309.7 1877.3 306.3 1898.7 304.7L1920 303L1920 401L1898.7 401C1877.3 401 1834.7 401 1792 401C1749.3 401 1706.7 401 1664 401C1621.3 401 1578.7 401 1536 401C1493.3 401 1450.7 401 1408 401C1365.3 401 1322.7 401 1280 401C1237.3 401 1194.7 401 1152 401C1109.3 401 1066.7 401 1024 401C981.3 401 938.7 401 896 401C853.3 401 810.7 401 768 401C725.3 401 682.7 401 640 401C597.3 401 554.7 401 512 401C469.3 401 426.7 401 384 401C341.3 401 298.7 401 256 401C213.3 401 170.7 401 128 401C85.3 401 42.7 401 21.3 401L0 401Z" fill="#2f3a46"></path><path d="M0 352L21.3 353C42.7 354 85.3 356 128 357.3C170.7 358.7 213.3 359.3 256 353.8C298.7 348.3 341.3 336.7 384 338C426.7 339.3 469.3 353.7 512 351C554.7 348.3 597.3 328.7 640 319.2C682.7 309.7 725.3 310.3 768 318C810.7 325.7 853.3 340.3 896 346.2C938.7 352 981.3 349 1024 344.2C1066.7 339.3 1109.3 332.7 1152 334.7C1194.7 336.7 1237.3 347.3 1280 351.7C1322.7 356 1365.3 354 1408 349C1450.7 344 1493.3 336 1536 332.2C1578.7 328.3 1621.3 328.7 1664 334.8C1706.7 341 1749.3 353 1792 356.5C1834.7 360 1877.3 355 1898.7 352.5L1920 350L1920 401L1898.7 401C1877.3 401 1834.7 401 1792 401C1749.3 401 1706.7 401 1664 401C1621.3 401 1578.7 401 1536 401C1493.3 401 1450.7 401 1408 401C1365.3 401 1322.7 401 1280 401C1237.3 401 1194.7 401 1152 401C1109.3 401 1066.7 401 1024 401C981.3 401 938.7 401 896 401C853.3 401 810.7 401 768 401C725.3 401 682.7 401 640 401C597.3 401 554.7 401 512 401C469.3 401 426.7 401 384 401C341.3 401 298.7 401 256 401C213.3 401 170.7 401 128 401C85.3 401 42.7 401 21.3 401L0 401Z" fill="#001220"></path></svg>